<svg width="171" height="56" viewBox="0 0 171 56" fill="none" xmlns="http://www.w3.org/2000/svg">
<path d="M36.5173 20.5684C32.9769 25.0387 31.707 25.4622 26.1655 24.0262C30.668 27.5413 31.0945 28.8022 29.6482 34.3041C33.1886 29.8338 34.4585 29.4103 40 30.8463C35.4975 27.3312 35.071 26.0703 36.5173 20.5684Z" fill="#F8755A"/>
<path d="M4.0636 4.66745C3.27149 6.41547 2.97005 8.3004 2.89949 10.1821C2.84498 12.0671 3.09832 13.9647 3.6018 15.7955C4.09887 17.6295 4.91984 19.3712 5.84663 21.0014C6.30521 21.8197 6.8568 22.5902 7.3699 23.3607C7.93752 24.1058 8.49872 24.8381 9.11765 25.5195C11.5998 28.245 14.5405 30.3751 17.6929 31.7506C20.8228 33.1515 24.1483 33.8934 27.4354 33.8648C27.5958 33.8648 27.7304 33.7342 27.7304 33.5782C27.7304 33.505 27.7048 33.4381 27.6567 33.3903L27.6535 33.3872C26.5856 32.2282 25.6267 31.0724 24.7641 29.907C23.895 28.7481 23.1318 27.5732 22.4776 26.3983C21.1403 24.0676 20.3065 21.6987 19.8351 19.4667C19.7613 19.1929 19.7485 18.8968 19.6972 18.6198C19.6555 18.3427 19.601 18.0721 19.5657 17.7983C19.5336 17.2315 19.4727 16.6966 19.4438 16.1585C19.3957 15.0791 19.4887 14.0221 19.5144 13.0127C19.5465 12.0002 19.5689 11.01 19.5497 10.007C19.4984 8.99769 19.4663 7.99155 19.168 6.88033L18.8217 5.58444C17.7442 1.52166 13.4662 -0.850427 9.27158 0.283078C6.87283 0.929431 5.00642 2.61377 4.0636 4.66745Z" fill="#E32682"/>
<path d="M2.46977 48.5717C3.68198 49.495 5.09301 50.0713 6.54252 50.4661C7.99845 50.8514 9.51851 51.0011 11.0322 50.9501C12.549 50.9024 14.0498 50.5935 15.4865 50.1796C16.2049 49.9758 16.9072 49.6956 17.5967 49.4441C18.2765 49.1448 18.95 48.8487 19.5914 48.4984C22.1601 47.0943 24.3536 45.2285 25.9955 43.0633C27.6535 40.9205 28.8368 38.507 29.4109 35.9853C29.4397 35.8611 29.3627 35.737 29.2409 35.7051C29.1832 35.6924 29.1286 35.6987 29.0805 35.7274L29.0773 35.7306C27.9806 36.3387 26.9095 36.8609 25.8448 37.3099C24.7865 37.7652 23.7347 38.1345 22.702 38.4211C20.6464 39.0197 18.6549 39.2266 16.8366 39.182C16.6122 39.1884 16.3781 39.1438 16.1536 39.1343C15.9291 39.1152 15.711 39.1088 15.4897 39.0865C15.044 39.0101 14.6175 38.956 14.1942 38.8828C13.3475 38.7235 12.5426 38.4593 11.7601 38.2555C10.9776 38.0454 10.2144 37.8479 9.42872 37.6824C8.63662 37.5359 7.84773 37.3799 6.93055 37.4054L5.85945 37.434C2.50825 37.5264 -0.111775 40.3697 0.00367333 43.7893C0.0774318 45.7379 1.04591 47.4732 2.46977 48.5717Z" fill="#01BDB2"/>
<path d="M35.2859 55.1435C36.0972 54.5258 36.7129 53.7234 37.2196 52.8669C37.7231 52.004 38.0823 51.0552 38.31 50.0777C38.5409 49.1002 38.6018 48.0845 38.5793 47.0943C38.5729 46.5976 38.5088 46.1009 38.4671 45.6169C38.3901 45.1298 38.3132 44.649 38.1977 44.1777C37.7295 42.2896 36.8989 40.5671 35.7797 39.1407C34.6766 37.7078 33.3168 36.533 31.7775 35.7306C31.7006 35.6924 31.6076 35.7178 31.5659 35.7911C31.5466 35.8261 31.5434 35.8611 31.5531 35.8962V35.8993C31.7583 36.7049 31.9122 37.4818 32.0181 38.2396C32.1303 38.9942 32.188 39.7329 32.1976 40.4429C32.2297 41.863 32.0213 43.1716 31.6749 44.3274C31.6396 44.4739 31.5723 44.614 31.5242 44.754C31.4729 44.8941 31.4312 45.0342 31.3767 45.1712C31.2484 45.4418 31.1426 45.7061 31.0207 45.964C30.7706 46.4798 30.4595 46.9478 30.1933 47.4127C29.9207 47.8776 29.661 48.3297 29.4173 48.8041C29.1864 49.2849 28.9459 49.7625 28.8048 50.3547L28.638 51.0456C28.1185 53.2044 29.5103 55.3759 31.7487 55.8917C33.0314 56.1846 34.327 55.8662 35.2859 55.1435Z" fill="#FF1F3C"/>
<path d="M48 31.5955L52.0152 8H66.8028L66.0846 12.0112H56.2262L55.2795 17.6742H64.1586L63.5057 21.5169H54.6267L53.5821 27.5843H63.4405L62.7549 31.5955H48Z" fill="#7546FF"/>
<path d="M70.5739 31.5955L67.5054 14.6067H72.6304L74.3932 26.8427L80.3343 14.6067H85.492L76.5803 31.5955H70.5739Z" fill="#7546FF"/>
<path d="M92.6581 32C91.1347 32 89.8181 31.6854 88.7082 31.0562C87.5983 30.427 86.7605 29.5393 86.1946 28.3933C85.6288 27.2472 85.3894 25.9101 85.4765 24.382C85.5418 22.9888 85.8247 21.6854 86.3252 20.4719C86.8475 19.236 87.5548 18.1461 88.447 17.2022C89.3611 16.2584 90.4274 15.5281 91.6461 15.0112C92.8648 14.4719 94.2032 14.2022 95.6613 14.2022C97.1629 14.2022 98.4469 14.5169 99.5133 15.1461C100.58 15.7753 101.385 16.6405 101.929 17.7416C102.473 18.8202 102.712 20.0787 102.647 21.5169C102.647 22.0337 102.593 22.5393 102.484 23.0337C102.397 23.5056 102.299 23.9438 102.19 24.3483H88.8714L89.3937 21.4157H97.7831C97.8484 20.7416 97.7723 20.1798 97.5546 19.7303C97.337 19.2584 97.0106 18.8989 96.5753 18.6517C96.1401 18.4045 95.6287 18.2809 95.0411 18.2809C94.3447 18.2809 93.6809 18.4494 93.0498 18.7865C92.4187 19.1236 91.8746 19.6292 91.4176 20.3034C90.9824 20.9775 90.6777 21.8315 90.5036 22.8652L90.3404 23.8764C90.2098 24.6404 90.2316 25.3258 90.4057 25.9326C90.6015 26.5393 90.9388 27.0225 91.4176 27.382C91.9182 27.7191 92.5493 27.8876 93.311 27.8876C94.0291 27.8876 94.6385 27.7416 95.139 27.4494C95.6613 27.1348 96.0965 26.7416 96.4447 26.2697H101.472C100.95 27.3483 100.242 28.3258 99.35 29.2022C98.4795 30.0562 97.4676 30.7416 96.3142 31.2584C95.1825 31.7528 93.9638 32 92.6581 32Z" fill="#7546FF"/>
<path d="M104.647 31.5955L107.519 14.6067H111.828V17.2022C112.481 16.3034 113.297 15.5843 114.277 15.0449C115.278 14.4831 116.409 14.2022 117.672 14.2022C119.086 14.2022 120.207 14.5169 121.034 15.1461C121.883 15.7753 122.448 16.6629 122.731 17.809C123.014 18.9551 123.025 20.3146 122.764 21.8876L121.099 31.5955H116.235L117.802 22.3596C117.998 21.1236 117.911 20.1685 117.541 19.4944C117.171 18.7978 116.42 18.4494 115.289 18.4494C114.636 18.4494 114.015 18.618 113.428 18.9551C112.84 19.2697 112.34 19.7303 111.926 20.3371C111.535 20.9213 111.263 21.6405 111.11 22.4944L109.543 31.5955H104.647Z" fill="#7546FF"/>
<path d="M124.131 31.5955L124.849 27.5506L134.577 18.7865H126.612L127.33 14.6067H140.943L140.225 18.6517L130.366 27.4157H138.69L137.972 31.5955H124.131Z" fill="#7546FF"/>
<path d="M147.175 32C145.913 32 144.89 31.7978 144.107 31.3933C143.323 30.9888 142.747 30.4382 142.377 29.7416C142.028 29.0225 141.876 28.2247 141.92 27.3483C141.963 26.2022 142.311 25.2135 142.964 24.382C143.617 23.5281 144.531 22.8652 145.706 22.3933C146.882 21.9213 148.274 21.6854 149.885 21.6854H153.867C153.998 20.9213 154.009 20.2921 153.9 19.7978C153.813 19.2809 153.573 18.9101 153.182 18.6854C152.812 18.4382 152.268 18.3146 151.55 18.3146C150.81 18.3146 150.146 18.4719 149.558 18.7865C148.971 19.1011 148.557 19.5955 148.318 20.2697H143.585C143.933 19.0562 144.509 18 145.315 17.1011C146.12 16.2022 147.121 15.4944 148.318 14.9775C149.515 14.4607 150.831 14.2022 152.268 14.2022C153.856 14.2022 155.184 14.4719 156.25 15.0112C157.317 15.5506 158.078 16.3371 158.535 17.3708C159.014 18.382 159.123 19.618 158.862 21.0787L157.066 31.5955H152.79L152.757 29.1685C152.453 29.5955 152.104 29.9888 151.713 30.3483C151.343 30.6854 150.918 30.9775 150.44 31.2247C149.961 31.4719 149.449 31.6629 148.905 31.7978C148.361 31.9326 147.785 32 147.175 32ZM149.036 28.1573C149.537 28.1573 150.004 28.0674 150.44 27.8876C150.875 27.7079 151.267 27.4607 151.615 27.1461C151.963 26.8315 152.257 26.4719 152.496 26.0674C152.757 25.6405 152.964 25.1798 153.116 24.6854V24.6517H149.983C149.439 24.6517 148.96 24.7416 148.546 24.9213C148.133 25.0787 147.806 25.3146 147.567 25.6292C147.349 25.9213 147.241 26.2697 147.241 26.6742C147.197 27.1685 147.349 27.5393 147.698 27.7865C148.046 28.0337 148.492 28.1573 149.036 28.1573Z" fill="#7546FF"/>
<path d="M48 47.7824V36.7364H49.3776V47.7824H48ZM48.7038 47.7824V46.4603H54.9329V47.7824H48.7038ZM48.7038 42.7615V41.523H54.2291V42.7615H48.7038ZM48.7038 38.0418V36.7364H54.9179V38.0418H48.7038Z" fill="#E32682"/>
<path d="M58.4383 47.7824L55.6682 39.1464H57.1805L59.2918 46.4937H59.5015L61.5978 39.1464H63.0802L60.325 47.7824H58.4383Z" fill="#E32682"/>
<path d="M67.7141 48C67.1051 48 66.5661 47.8996 66.0969 47.6987C65.6377 47.4868 65.2484 47.1855 64.9289 46.795C64.6095 46.4045 64.3699 45.9414 64.2102 45.4059C64.0505 44.8703 63.9706 44.2678 63.9706 43.5983C63.9706 42.9177 64.0505 42.2929 64.2102 41.7238C64.3699 41.1548 64.6045 40.6583 64.9139 40.2343C65.2234 39.8103 65.6027 39.4868 66.052 39.2636C66.5012 39.0293 67.0153 38.9121 67.5943 38.9121C68.1034 38.9121 68.5676 39.007 68.9868 39.1967C69.4061 39.3863 69.7605 39.682 70.05 40.0837C70.3495 40.4742 70.5741 40.9707 70.7238 41.5732C70.8736 42.1646 70.9335 42.8619 70.9035 43.6653L64.8241 43.7155V42.6778L70.0799 42.6276L69.6158 43.3305C69.6657 42.6276 69.6058 42.0474 69.4361 41.59C69.2664 41.1325 69.0218 40.7866 68.7023 40.5523C68.3929 40.318 68.0235 40.2008 67.5943 40.2008C67.1351 40.2008 66.7308 40.3347 66.3814 40.6025C66.032 40.8703 65.7625 41.2552 65.5728 41.7573C65.3931 42.2594 65.3033 42.8675 65.3033 43.5816C65.3033 44.6081 65.5079 45.3947 65.9172 45.9414C66.3265 46.477 66.9354 46.7448 67.744 46.7448C68.0535 46.7448 68.323 46.7057 68.5526 46.6276C68.7922 46.5384 68.9918 46.4212 69.1516 46.2762C69.3213 46.1199 69.456 45.9414 69.5559 45.7406C69.6657 45.5397 69.7505 45.3222 69.8104 45.0879L71.0083 45.4059C70.9185 45.8075 70.7787 46.1702 70.5891 46.4937C70.4094 46.8061 70.1798 47.0739 69.9003 47.2971C69.6307 47.5202 69.3163 47.6932 68.9569 47.8159C68.5975 47.9386 68.1832 48 67.7141 48Z" fill="#E32682"/>
<path d="M72.8419 47.7824V39.1297H74.0698L73.935 41.8745H74.1896C74.3293 41.1939 74.514 40.636 74.7436 40.2008C74.9832 39.7657 75.2827 39.4421 75.642 39.2301C76.0014 39.0181 76.4207 38.9121 76.8998 38.9121C77.7584 38.9121 78.4072 39.258 78.8465 39.9498C79.2957 40.6304 79.5203 41.6513 79.5203 43.0126V47.7824H78.1427V43.1464C78.1427 42.1646 78.0029 41.4393 77.7234 40.9707C77.4539 40.5021 77.0546 40.2678 76.5255 40.2678C76.0463 40.2678 75.637 40.4351 75.2976 40.7699C74.9682 41.1046 74.7087 41.5453 74.519 42.0921C74.3293 42.6388 74.2245 43.2301 74.2045 43.8661V47.7824H72.8419Z" fill="#E32682"/>
<path d="M84.1581 47.9498C83.4393 47.9498 82.9053 47.7322 82.5559 47.2971C82.2065 46.8619 82.0318 46.198 82.0318 45.3054V40.4017H80.8638L80.8788 39.1297H81.6125C81.8621 39.1297 82.0418 39.0795 82.1516 38.9791C82.2714 38.8787 82.3413 38.7113 82.3612 38.477L82.511 37.1715H83.3495V39.1297H85.5806V40.4184H83.3495V45.272C83.3495 45.7183 83.4393 46.0418 83.619 46.2427C83.8087 46.4324 84.0782 46.5272 84.4276 46.5272C84.6173 46.5272 84.812 46.4993 85.0116 46.4435C85.2212 46.3877 85.4259 46.2762 85.6255 46.1088V47.6318C85.336 47.7545 85.0665 47.8382 84.8169 47.8828C84.5774 47.9275 84.3577 47.9498 84.1581 47.9498Z" fill="#E32682"/>
<path d="M95.3739 48C94.6651 48 94.0262 47.8773 93.4572 47.6318C92.8982 47.3863 92.424 47.0237 92.0347 46.5439C91.6454 46.0642 91.3459 45.4784 91.1363 44.7866C90.9366 44.0837 90.8368 43.2859 90.8368 42.3933C90.8368 41.4895 90.9416 40.6806 91.1512 39.9665C91.3609 39.2413 91.6604 38.622 92.0497 38.1088C92.439 37.5955 92.9082 37.205 93.4572 36.9372C94.0063 36.6583 94.6202 36.5188 95.299 36.5188C95.8181 36.5188 96.2973 36.6025 96.7365 36.7699C97.1757 36.9261 97.5551 37.1604 97.8745 37.4728C98.204 37.7741 98.4585 38.1423 98.6382 38.5774C98.8179 39.0126 98.9127 39.4979 98.9227 40.0335L97.62 40.4017C97.63 39.8326 97.5251 39.364 97.3055 38.9958C97.0859 38.6165 96.7964 38.3319 96.437 38.1423C96.0777 37.9526 95.6883 37.8577 95.2691 37.8577C94.8797 37.8577 94.5004 37.947 94.1311 38.1255C93.7717 38.2929 93.4522 38.5607 93.1727 38.9289C92.8932 39.2859 92.6686 39.749 92.4989 40.318C92.3392 40.8759 92.2593 41.5509 92.2593 42.3431C92.2593 43.3584 92.3891 44.1785 92.6486 44.8033C92.9182 45.4282 93.2925 45.8912 93.7717 46.1925C94.2508 46.4826 94.8049 46.6276 95.4338 46.6276C96.0427 46.6276 96.5319 46.5049 96.9012 46.2594C97.2706 46.0028 97.5451 45.6513 97.7248 45.205C97.9045 44.7476 98.0093 44.2232 98.0392 43.6318L99.2671 43.8828C99.2571 44.4407 99.1773 44.9707 99.0275 45.4728C98.8778 45.9749 98.6482 46.4156 98.3387 46.795C98.0293 47.1743 97.63 47.47 97.1408 47.682C96.6517 47.894 96.0627 48 95.3739 48Z" fill="#E32682"/>
<path d="M104.388 48C103.65 48 102.996 47.8215 102.427 47.4644C101.868 47.0962 101.429 46.5718 101.109 45.8912C100.8 45.2106 100.645 44.3849 100.645 43.4142C100.645 42.41 100.81 41.5788 101.139 40.9205C101.478 40.251 101.928 39.749 102.487 39.4142C103.046 39.0795 103.67 38.9121 104.358 38.9121C105.077 38.9121 105.716 39.0907 106.275 39.4477C106.844 39.7936 107.293 40.3068 107.623 40.9874C107.952 41.6569 108.117 42.4881 108.117 43.4812C108.117 44.4742 107.952 45.3054 107.623 45.9749C107.303 46.6444 106.859 47.152 106.29 47.4979C105.731 47.8326 105.097 48 104.388 48ZM104.448 46.7448C104.927 46.7448 105.337 46.6165 105.676 46.3598C106.026 46.0921 106.29 45.7183 106.47 45.2385C106.659 44.7587 106.754 44.1897 106.754 43.5314C106.754 42.8508 106.654 42.265 106.455 41.7741C106.265 41.272 105.991 40.887 105.631 40.6192C105.272 40.3403 104.838 40.2008 104.329 40.2008C103.869 40.2008 103.465 40.3236 103.116 40.569C102.766 40.8145 102.497 41.1771 102.307 41.6569C102.117 42.1255 102.023 42.7001 102.023 43.3808C102.023 44.4296 102.237 45.2552 102.666 45.8577C103.106 46.4491 103.7 46.7448 104.448 46.7448Z" fill="#E32682"/>
<path d="M110.057 47.7824V39.1297H111.285L111.15 41.8745H111.405C111.545 41.1939 111.729 40.636 111.959 40.2008C112.199 39.7657 112.498 39.4421 112.857 39.2301C113.217 39.0181 113.636 38.9121 114.115 38.9121C114.974 38.9121 115.623 39.258 116.062 39.9498C116.511 40.6304 116.736 41.6513 116.736 43.0126V47.7824H115.358V43.1464C115.358 42.1646 115.218 41.4393 114.939 40.9707C114.669 40.5021 114.27 40.2678 113.741 40.2678C113.262 40.2678 112.852 40.4351 112.513 40.7699C112.184 41.1046 111.924 41.5453 111.734 42.0921C111.545 42.6388 111.44 43.2301 111.42 43.8661V47.7824H110.057Z" fill="#E32682"/>
<path d="M119.577 47.7824V41.6736H118.199V40.4519L120.131 40.5858V40.3013C119.881 40.1897 119.671 40.0391 119.502 39.8494C119.342 39.6485 119.217 39.4198 119.127 39.1632C119.048 38.9066 119.008 38.6332 119.008 38.3431C119.008 37.8745 119.097 37.4672 119.277 37.1213C119.467 36.7755 119.731 36.5021 120.071 36.3013C120.42 36.1004 120.834 36 121.314 36C121.693 36 122.032 36.0614 122.332 36.1841C122.641 36.2957 122.896 36.4463 123.095 36.636L122.931 38.0586C122.741 37.8577 122.511 37.7015 122.242 37.59C121.972 37.4672 121.703 37.4059 121.433 37.4059C121.104 37.4059 120.834 37.523 120.625 37.7573C120.415 37.9916 120.31 38.3543 120.31 38.8452C120.31 39.1241 120.345 39.364 120.415 39.5649C120.485 39.7657 120.575 39.9386 120.685 40.0837C120.804 40.2176 120.924 40.3291 121.044 40.4184H122.961L122.946 41.6736H120.924V47.7824H119.577Z" fill="#E32682"/>
<path d="M127.814 48C127.205 48 126.666 47.8996 126.197 47.6987C125.738 47.4868 125.349 47.1855 125.029 46.795C124.71 46.4045 124.47 45.9414 124.31 45.4059C124.151 44.8703 124.071 44.2678 124.071 43.5983C124.071 42.9177 124.151 42.2929 124.31 41.7238C124.47 41.1548 124.705 40.6583 125.014 40.2343C125.324 39.8103 125.703 39.4868 126.152 39.2636C126.601 39.0293 127.116 38.9121 127.695 38.9121C128.204 38.9121 128.668 39.007 129.087 39.1967C129.506 39.3863 129.861 39.682 130.15 40.0837C130.45 40.4742 130.674 40.9707 130.824 41.5732C130.974 42.1646 131.034 42.8619 131.004 43.6653L124.924 43.7155V42.6778L130.18 42.6276L129.716 43.3305C129.766 42.6276 129.706 42.0474 129.536 41.59C129.367 41.1325 129.122 40.7866 128.803 40.5523C128.493 40.318 128.124 40.2008 127.695 40.2008C127.235 40.2008 126.831 40.3347 126.482 40.6025C126.132 40.8703 125.863 41.2552 125.673 41.7573C125.493 42.2594 125.404 42.8675 125.404 43.5816C125.404 44.6081 125.608 45.3947 126.017 45.9414C126.427 46.477 127.036 46.7448 127.844 46.7448C128.154 46.7448 128.423 46.7057 128.653 46.6276C128.892 46.5384 129.092 46.4212 129.252 46.2762C129.422 46.1199 129.556 45.9414 129.656 45.7406C129.766 45.5397 129.851 45.3222 129.911 45.0879L131.109 45.4059C131.019 45.8075 130.879 46.1702 130.689 46.4937C130.51 46.8061 130.28 47.0739 130.001 47.2971C129.731 47.5202 129.417 47.6932 129.057 47.8159C128.698 47.9386 128.284 48 127.814 48Z" fill="#E32682"/>
<path d="M132.942 47.7824V39.1297H134.17L134.05 42.1423H134.305C134.395 41.484 134.534 40.9149 134.724 40.4351C134.914 39.9554 135.163 39.5816 135.473 39.3138C135.792 39.046 136.187 38.9121 136.656 38.9121C136.756 38.9121 136.87 38.9233 137 38.9456C137.13 38.9568 137.28 38.9958 137.449 39.0628L137.374 40.6527C137.225 40.5858 137.075 40.5411 136.925 40.5188C136.776 40.4854 136.631 40.4686 136.491 40.4686C136.102 40.4686 135.762 40.6081 135.473 40.887C135.193 41.166 134.959 41.5453 134.769 42.0251C134.579 42.4937 134.425 43.0237 134.305 43.6151V47.7824H132.942Z" fill="#E32682"/>
<path d="M142.116 48C141.507 48 140.968 47.8996 140.498 47.6987C140.039 47.4868 139.65 47.1855 139.33 46.795C139.011 46.4045 138.771 45.9414 138.612 45.4059C138.452 44.8703 138.372 44.2678 138.372 43.5983C138.372 42.9177 138.452 42.2929 138.612 41.7238C138.771 41.1548 139.006 40.6583 139.315 40.2343C139.625 39.8103 140.004 39.4868 140.453 39.2636C140.903 39.0293 141.417 38.9121 141.996 38.9121C142.505 38.9121 142.969 39.007 143.388 39.1967C143.808 39.3863 144.162 39.682 144.452 40.0837C144.751 40.4742 144.976 40.9707 145.125 41.5732C145.275 42.1646 145.335 42.8619 145.305 43.6653L139.226 43.7155V42.6778L144.481 42.6276L144.017 43.3305C144.067 42.6276 144.007 42.0474 143.838 41.59C143.668 41.1325 143.423 40.7866 143.104 40.5523C142.794 40.318 142.425 40.2008 141.996 40.2008C141.537 40.2008 141.132 40.3347 140.783 40.6025C140.434 40.8703 140.164 41.2552 139.974 41.7573C139.795 42.2594 139.705 42.8675 139.705 43.5816C139.705 44.6081 139.909 45.3947 140.319 45.9414C140.728 46.477 141.337 46.7448 142.146 46.7448C142.455 46.7448 142.725 46.7057 142.954 46.6276C143.194 46.5384 143.393 46.4212 143.553 46.2762C143.723 46.1199 143.858 45.9414 143.957 45.7406C144.067 45.5397 144.152 45.3222 144.212 45.0879L145.41 45.4059C145.32 45.8075 145.18 46.1702 144.991 46.4937C144.811 46.8061 144.581 47.0739 144.302 47.2971C144.032 47.5202 143.718 47.6932 143.358 47.8159C142.999 47.9386 142.585 48 142.116 48Z" fill="#E32682"/>
<path d="M147.243 47.7824V39.1297H148.471L148.337 41.8745H148.591C148.731 41.1939 148.916 40.636 149.145 40.2008C149.385 39.7657 149.684 39.4421 150.044 39.2301C150.403 39.0181 150.822 38.9121 151.301 38.9121C152.16 38.9121 152.809 39.258 153.248 39.9498C153.697 40.6304 153.922 41.6513 153.922 43.0126V47.7824H152.544V43.1464C152.544 42.1646 152.404 41.4393 152.125 40.9707C151.855 40.5021 151.456 40.2678 150.927 40.2678C150.448 40.2678 150.039 40.4351 149.699 40.7699C149.37 41.1046 149.11 41.5453 148.921 42.0921C148.731 42.6388 148.626 43.2301 148.606 43.8661V47.7824H147.243Z" fill="#E32682"/>
<path d="M159.488 48C158.809 48 158.23 47.8773 157.751 47.6318C157.281 47.3863 156.897 47.0572 156.598 46.6444C156.308 46.2315 156.094 45.7573 155.954 45.2218C155.824 44.6862 155.759 44.1283 155.759 43.5481C155.759 42.9121 155.834 42.3152 155.984 41.7573C156.133 41.1994 156.358 40.7085 156.658 40.2845C156.967 39.8494 157.346 39.5146 157.796 39.2803C158.255 39.0349 158.789 38.9121 159.398 38.9121C159.987 38.9121 160.506 39.0293 160.955 39.2636C161.404 39.4868 161.769 39.8047 162.048 40.2176C162.338 40.6304 162.522 41.1213 162.602 41.6904L161.299 42.0921C161.28 41.7796 161.195 41.4784 161.045 41.1883C160.905 40.8982 160.696 40.6639 160.416 40.4854C160.137 40.2957 159.792 40.2008 159.383 40.2008C158.994 40.2008 158.659 40.2845 158.38 40.4519C158.11 40.6192 157.88 40.8536 157.691 41.1548C157.511 41.4561 157.371 41.8075 157.272 42.2092C157.182 42.6109 157.137 43.046 157.137 43.5146C157.137 44.1618 157.217 44.7252 157.376 45.205C157.546 45.6848 157.806 46.0586 158.155 46.3264C158.504 46.5941 158.954 46.728 159.503 46.728C159.912 46.728 160.261 46.6499 160.551 46.4937C160.84 46.3264 161.07 46.0976 161.24 45.8075C161.409 45.5063 161.519 45.1548 161.569 44.7531L162.827 45.0711C162.757 45.5509 162.627 45.9749 162.438 46.3431C162.248 46.7113 162.008 47.0181 161.719 47.2636C161.429 47.4979 161.095 47.6764 160.716 47.7992C160.346 47.9331 159.937 48 159.488 48Z" fill="#E32682"/>
<path d="M167.706 48C167.097 48 166.558 47.8996 166.089 47.6987C165.629 47.4868 165.24 47.1855 164.921 46.795C164.601 46.4045 164.362 45.9414 164.202 45.4059C164.042 44.8703 163.962 44.2678 163.962 43.5983C163.962 42.9177 164.042 42.2929 164.202 41.7238C164.362 41.1548 164.596 40.6583 164.906 40.2343C165.215 39.8103 165.594 39.4868 166.044 39.2636C166.493 39.0293 167.007 38.9121 167.586 38.9121C168.095 38.9121 168.559 39.007 168.979 39.1967C169.398 39.3863 169.752 39.682 170.042 40.0837C170.341 40.4742 170.566 40.9707 170.716 41.5732C170.865 42.1646 170.925 42.8619 170.895 43.6653L164.816 43.7155V42.6778L170.072 42.6276L169.607 43.3305C169.657 42.6276 169.597 42.0474 169.428 41.59C169.258 41.1325 169.013 40.7866 168.694 40.5523C168.385 40.318 168.015 40.2008 167.586 40.2008C167.127 40.2008 166.722 40.3347 166.373 40.6025C166.024 40.8703 165.754 41.2552 165.564 41.7573C165.385 42.2594 165.295 42.8675 165.295 43.5816C165.295 44.6081 165.5 45.3947 165.909 45.9414C166.318 46.477 166.927 46.7448 167.736 46.7448C168.045 46.7448 168.315 46.7057 168.544 46.6276C168.784 46.5384 168.984 46.4212 169.143 46.2762C169.313 46.1199 169.448 45.9414 169.548 45.7406C169.657 45.5397 169.742 45.3222 169.802 45.0879L171 45.4059C170.91 45.8075 170.77 46.1702 170.581 46.4937C170.401 46.8061 170.171 47.0739 169.892 47.2971C169.622 47.5202 169.308 47.6932 168.949 47.8159C168.589 47.9386 168.175 48 167.706 48Z" fill="#E32682"/>
</svg>
