<svg width="147" height="50" viewBox="0 0 147 50" fill="none" xmlns="http://www.w3.org/2000/svg">
<circle cx="25" cy="25" r="25" fill="#C62828"/>
<path d="M77.5064 13.664L69.3144 36H63.8744L55.6824 13.664H60.4824L66.6264 31.424L72.7384 13.664H77.5064ZM82.4644 16.16C81.675 16.16 81.0137 15.9147 80.4804 15.424C79.9684 14.912 79.7124 14.2827 79.7124 13.536C79.7124 12.7893 79.9684 12.1707 80.4804 11.68C81.0137 11.168 81.675 10.912 82.4644 10.912C83.2537 10.912 83.9044 11.168 84.4164 11.68C84.9497 12.1707 85.2164 12.7893 85.2164 13.536C85.2164 14.2827 84.9497 14.912 84.4164 15.424C83.9044 15.9147 83.2537 16.16 82.4644 16.16ZM84.6724 18.272V36H80.1924V18.272H84.6724ZM95.8826 36.288C94.432 36.288 93.1306 36.032 91.9786 35.52C90.8266 34.9867 89.9093 34.272 89.2266 33.376C88.5653 32.48 88.2026 31.488 88.1386 30.4H92.6506C92.736 31.0827 93.0666 31.648 93.6426 32.096C94.24 32.544 94.976 32.768 95.8506 32.768C96.704 32.768 97.3653 32.5973 97.8346 32.256C98.3253 31.9147 98.5706 31.4773 98.5706 30.944C98.5706 30.368 98.272 29.9413 97.6746 29.664C97.0986 29.3653 96.1706 29.0453 94.8906 28.704C93.568 28.384 92.48 28.0533 91.6266 27.712C90.7946 27.3707 90.0693 26.848 89.4506 26.144C88.8533 25.44 88.5546 24.4907 88.5546 23.296C88.5546 22.3147 88.832 21.4187 89.3866 20.608C89.9626 19.7973 90.7733 19.1573 91.8186 18.688C92.8853 18.2187 94.1333 17.984 95.5626 17.984C97.6746 17.984 99.36 18.5173 100.619 19.584C101.877 20.6293 102.571 22.048 102.699 23.84H98.4106C98.3466 23.136 98.048 22.5813 97.5146 22.176C97.0026 21.7493 96.3093 21.536 95.4346 21.536C94.624 21.536 93.9946 21.6853 93.5466 21.984C93.12 22.2827 92.9066 22.6987 92.9066 23.232C92.9066 23.8293 93.2053 24.288 93.8026 24.608C94.4 24.9067 95.328 25.216 96.5866 25.536C97.8666 25.856 98.9226 26.1867 99.7546 26.528C100.587 26.8693 101.301 27.4027 101.899 28.128C102.517 28.832 102.837 29.7707 102.859 30.944C102.859 31.968 102.571 32.8853 101.995 33.696C101.44 34.5067 100.629 35.1467 99.5626 35.616C98.5173 36.064 97.2906 36.288 95.8826 36.288ZM108.808 16.16C108.019 16.16 107.357 15.9147 106.824 15.424C106.312 14.912 106.056 14.2827 106.056 13.536C106.056 12.7893 106.312 12.1707 106.824 11.68C107.357 11.168 108.019 10.912 108.808 10.912C109.597 10.912 110.248 11.168 110.76 11.68C111.293 12.1707 111.56 12.7893 111.56 13.536C111.56 14.2827 111.293 14.912 110.76 15.424C110.248 15.9147 109.597 16.16 108.808 16.16ZM111.016 18.272V36H106.536V18.272H111.016ZM137.458 18.016C139.634 18.016 141.384 18.688 142.706 20.032C144.05 21.3547 144.722 23.2107 144.722 25.6V36H140.242V26.208C140.242 24.8213 139.89 23.7653 139.186 23.04C138.482 22.2933 137.522 21.92 136.306 21.92C135.09 21.92 134.12 22.2933 133.394 23.04C132.69 23.7653 132.338 24.8213 132.338 26.208V36H127.858V26.208C127.858 24.8213 127.506 23.7653 126.802 23.04C126.098 22.2933 125.138 21.92 123.922 21.92C122.685 21.92 121.704 22.2933 120.978 23.04C120.274 23.7653 119.922 24.8213 119.922 26.208V36H115.442V18.272H119.922V20.416C120.498 19.6693 121.234 19.0827 122.13 18.656C123.048 18.2293 124.05 18.016 125.138 18.016C126.525 18.016 127.762 18.3147 128.85 18.912C129.938 19.488 130.781 20.32 131.378 21.408C131.954 20.384 132.786 19.5627 133.874 18.944C134.984 18.3253 136.178 18.016 137.458 18.016Z" fill="white"/>
<mask id="mask0_679_261" style="mask-type:alpha" maskUnits="userSpaceOnUse" x="0" y="0" width="50" height="50">
<circle cx="25" cy="25" r="25" fill="#1E3A8A"/>
</mask>
<g mask="url(#mask0_679_261)">
<path d="M21.0295 37.4486L20.5823 31.8344C21.1989 31.3019 21.8159 30.7446 22.3961 30.1994C24.2686 28.4396 26.3158 26.3967 28.2625 24.3562L35.4925 34.8426L36.2137 34.0169L36.205 33.9939L32.9208 25.2646C32.9226 25.2627 32.9246 25.2612 32.9263 25.2593L33.9812 24.085C34.0808 23.9741 34.142 23.8387 34.1669 23.6932C34.2312 23.4585 34.1845 23.2006 34.0297 23.0048C33.9771 22.9146 33.9114 22.829 33.8319 22.7522L33.7191 22.6431C33.6325 22.5594 33.537 22.4938 33.4378 22.4442C33.2852 22.3502 33.1083 22.3154 32.938 22.3394C32.7427 22.3535 32.5607 22.4337 32.4266 22.5828L32.0637 22.9868L31.3327 21.0439C31.6941 20.6415 32.0457 20.2453 32.3831 19.859C34.9893 16.8754 36.3776 14.9939 36.8311 13.7269C37.2405 12.5828 36.8419 12.033 36.3157 11.5537L36.3112 11.5495C35.7806 11.0752 35.1948 10.7368 34.1139 11.275C32.9169 11.871 31.2192 13.4733 28.5718 16.4199C28.2336 16.7965 27.8871 17.1883 27.5359 17.5899L25.5024 17.0634L25.8145 16.7159C25.914 16.6052 25.9752 16.4697 26.0001 16.3241C26.0644 16.0895 26.0178 15.8315 25.8629 15.6356C25.8103 15.5454 25.7447 15.4598 25.6652 15.383L25.5523 15.2739C25.4658 15.1902 25.3703 15.1246 25.271 15.0751C25.1184 14.981 24.9415 14.9462 24.7712 14.9701C24.5759 14.9842 24.3939 15.0644 24.2599 15.2135L23.205 16.3878C23.1858 16.4092 23.1681 16.4315 23.1517 16.4546L14.1979 14.1361L14.1741 14.13L13.4416 14.9454L24.6089 21.047C22.8149 23.2292 21.0293 25.513 19.5036 27.5896C19.038 28.2234 18.565 28.8943 18.1152 29.5628L12.4884 29.7419L12 30.2929L16.7092 31.7864C15.8176 33.3139 15.2904 34.5425 15.6098 34.8511L15.6801 34.9146C16.0185 35.1995 17.1632 34.5391 18.5618 33.4804L20.5413 38L21.0295 37.4486Z" fill="white"/>
<path d="M-10 42.1299C-9.89553 43.1172 -9.71129 44.0763 -9.45141 44.9977C0.256999 45.1263 9.48243 39.7328 16 33C5.35548 42.4633 -5.8711 42.5049 -10 42.1299Z" fill="white"/>
<path d="M-6.45199 49C3.85997 47.2476 10.5816 40.5426 16 35C6.36613 44.059 -2.84554 45.9005 -8 46.5499C-7.5665 47.4243 -7.04819 48.2459 -6.45199 49Z" fill="white"/>
<path d="M-1.95219 53C6.30297 49.5256 13.5165 40.7035 17 35C10.3738 44.3002 0.666868 49.796 -5 51.0201C-4.07295 51.8085 -3.04976 52.4751 -1.95219 53Z" fill="white"/>
</g>
</svg>
