<svg width="444" height="526" viewBox="0 0 444 526" fill="none" xmlns="http://www.w3.org/2000/svg">
<path d="M753.47 337.328C754.344 337.083 754.86 336.177 754.624 335.299C754.386 334.415 753.478 333.888 752.591 334.123C750.468 334.691 748.337 335.22 746.205 335.717C745.29 335.946 744.76 336.817 744.968 337.716C745.174 338.609 746.068 339.167 746.959 338.958C749.129 338.451 751.294 337.911 753.451 337.334C753.456 337.332 753.462 337.33 753.47 337.328ZM766.154 333.429C766.188 333.42 766.223 333.41 766.257 333.4C768.363 332.662 770.459 331.892 772.54 331.087C773.392 330.753 773.815 329.792 773.485 328.934C773.15 328.077 772.157 327.668 771.334 327.985C769.292 328.781 767.233 329.539 765.161 330.255C764.296 330.557 763.842 331.507 764.143 332.374C764.431 333.204 765.317 333.664 766.154 333.429ZM734.004 341.476C734.803 341.252 735.324 340.459 735.19 339.619C735.051 338.714 734.199 338.09 733.295 338.235C731.124 338.574 728.947 338.874 726.774 339.146C725.877 339.263 725.214 340.089 725.331 341C725.441 341.907 726.272 342.557 727.18 342.444C729.394 342.175 731.603 341.866 733.811 341.516C733.875 341.505 733.941 341.493 734.004 341.476ZM784.572 325.881C784.663 325.855 784.755 325.823 784.839 325.779C786.86 324.822 788.855 323.824 790.833 322.784C791.644 322.361 791.957 321.357 791.532 320.545C791.1 319.729 790.088 319.44 789.289 319.845C787.352 320.86 785.389 321.835 783.412 322.78C782.584 323.174 782.231 324.163 782.624 324.989C782.979 325.734 783.81 326.094 784.572 325.881ZM714.202 343.534C714.932 343.329 715.45 342.645 715.411 341.854C715.366 340.935 714.586 340.231 713.668 340.272C712.221 340.347 710.776 340.401 709.333 340.442L707.095 340.489C706.168 340.486 705.442 341.255 705.455 342.169C705.468 343.089 706.221 343.821 707.137 343.807L709.429 343.758C710.894 343.725 712.364 343.664 713.84 343.594C713.965 343.587 714.087 343.566 714.202 343.534ZM802.02 316.304C802.169 316.262 802.318 316.2 802.453 316.108C804.347 314.916 806.219 313.691 808.057 312.427C808.814 311.912 809.004 310.875 808.486 310.116C807.964 309.358 806.936 309.147 806.179 309.69C804.375 310.931 802.545 312.132 800.69 313.298C799.912 313.786 799.68 314.809 800.167 315.589C800.567 316.226 801.33 316.497 802.02 316.304ZM694.292 343.532C694.96 343.345 695.464 342.744 695.501 342.012C695.544 341.097 694.837 340.318 693.922 340.27C691.728 340.164 689.537 340.03 687.346 339.854C686.443 339.777 685.63 340.456 685.562 341.379C685.487 342.289 686.169 343.089 687.082 343.164C689.307 343.343 691.533 343.481 693.762 343.591C693.948 343.601 694.123 343.579 694.292 343.532ZM818.18 304.688C818.396 304.628 818.599 304.524 818.784 304.378C820.516 302.955 822.214 301.495 823.878 300.011C824.562 299.401 824.62 298.346 824.011 297.661C823.401 296.989 822.334 296.924 821.668 297.529C820.038 298.99 818.376 300.414 816.681 301.8C815.973 302.382 815.869 303.43 816.45 304.144C816.879 304.669 817.565 304.861 818.18 304.688ZM674.464 341.692C675.079 341.52 675.568 340.992 675.661 340.319C675.783 339.408 675.149 338.574 674.241 338.444C672.064 338.145 669.891 337.816 667.721 337.46C666.823 337.328 665.966 337.926 665.816 338.831C665.666 339.735 666.282 340.588 667.186 340.739C669.384 341.101 671.586 341.435 673.792 341.739C674.021 341.77 674.252 341.752 674.464 341.692ZM832.703 291.085C832.991 291.004 833.256 290.848 833.473 290.613C834.993 288.966 836.478 287.297 837.925 285.589C838.52 284.89 838.434 283.842 837.733 283.249C837.03 282.658 835.972 282.739 835.396 283.439C833.979 285.11 832.526 286.744 831.035 288.355C830.412 289.029 830.454 290.076 831.127 290.702C831.566 291.113 832.166 291.235 832.703 291.085ZM654.869 338.17C655.437 338.011 655.904 337.549 656.041 336.932C656.24 336.033 655.675 335.146 654.777 334.946C652.63 334.469 650.489 333.964 648.356 333.436C647.486 333.215 646.571 333.755 646.351 334.652C646.129 335.543 646.675 336.441 647.564 336.664C649.721 337.199 651.89 337.711 654.065 338.194C654.336 338.251 654.614 338.242 654.869 338.17ZM845.179 275.573C845.541 275.471 845.869 275.251 846.096 274.918C847.366 273.072 848.594 271.197 849.778 269.294C850.259 268.513 850.018 267.488 849.24 267.004C848.456 266.523 847.433 266.763 846.956 267.537C845.803 269.404 844.601 271.231 843.365 273.027C842.844 273.787 843.035 274.818 843.788 275.342C844.213 275.634 844.72 275.701 845.179 275.573ZM635.601 333.126C636.129 332.978 636.573 332.571 636.741 332.005C637.007 331.128 636.509 330.203 635.633 329.935C633.526 329.298 631.43 328.639 629.338 327.95C628.473 327.661 627.53 328.14 627.244 329.009C626.958 329.885 627.433 330.824 628.305 331.112C630.419 331.808 632.544 332.473 634.674 333.117C634.989 333.211 635.308 333.208 635.601 333.126ZM616.747 326.719C617.236 326.582 617.658 326.221 617.853 325.708C618.175 324.849 617.739 323.886 616.882 323.566C614.823 322.788 612.771 321.988 610.729 321.164C609.887 320.813 608.911 321.222 608.571 322.086C608.23 322.937 608.643 323.907 609.493 324.248C611.557 325.079 613.631 325.887 615.714 326.672C616.057 326.805 616.416 326.812 616.747 326.719ZM855.206 258.374C855.65 258.25 856.04 257.938 856.256 257.493C857.225 255.462 858.134 253.407 858.982 251.329C859.331 250.483 858.924 249.512 858.075 249.163C857.229 248.813 856.262 249.219 855.909 250.073C855.085 252.091 854.2 254.085 853.26 256.054C852.864 256.886 853.214 257.874 854.043 258.275C854.42 258.453 854.832 258.479 855.206 258.374ZM598.345 319.108C598.8 318.98 599.201 318.659 599.41 318.189C599.786 317.356 599.411 316.368 598.576 315.996C596.568 315.089 594.566 314.167 592.574 313.221C591.745 312.833 590.758 313.178 590.361 314.009C589.972 314.84 590.327 315.832 591.153 316.221C593.166 317.173 595.185 318.105 597.215 319.019C597.583 319.186 597.983 319.209 598.345 319.108ZM862.197 239.721C862.734 239.571 863.182 239.155 863.344 238.577C863.955 236.423 864.506 234.246 864.997 232.045C865.198 231.152 864.636 230.266 863.742 230.064C862.839 229.858 861.964 230.421 861.758 231.322C861.281 233.451 860.748 235.57 860.153 237.664C859.903 238.55 860.412 239.465 861.294 239.717C861.601 239.807 861.91 239.801 862.197 239.721ZM580.414 310.413C580.841 310.293 581.219 310.005 581.439 309.58C581.858 308.761 581.541 307.757 580.726 307.339C578.771 306.322 576.823 305.291 574.888 304.235C574.081 303.808 573.071 304.097 572.639 304.906C572.201 305.71 572.498 306.719 573.304 307.16C575.261 308.222 577.225 309.263 579.202 310.287C579.59 310.489 580.023 310.522 580.414 310.413ZM866.031 220.179C866.658 220.003 867.152 219.46 867.231 218.77C867.488 216.54 867.687 214.307 867.825 212.063C867.886 211.15 867.19 210.361 866.274 210.3C865.362 210.266 864.568 210.939 864.516 211.858C864.379 214.035 864.184 216.213 863.932 218.387C863.827 219.299 864.478 220.122 865.391 220.229C865.611 220.256 865.828 220.236 866.031 220.179ZM562.967 300.773C563.367 300.661 563.724 300.399 563.952 300.012C564.415 299.222 564.149 298.204 563.355 297.738C561.45 296.62 559.557 295.486 557.674 294.341C556.891 293.866 555.871 294.118 555.393 294.899C554.92 295.685 555.169 296.708 555.952 297.183C557.851 298.337 559.76 299.481 561.681 300.607C562.086 300.844 562.55 300.89 562.967 300.773ZM546.023 290.277C546.397 290.172 546.738 289.935 546.965 289.581C547.464 288.814 547.245 287.783 546.479 287.283C544.631 286.082 542.788 284.866 540.955 283.633C540.19 283.125 539.155 283.334 538.654 284.095C538.144 284.858 538.348 285.886 539.113 286.4C540.958 287.629 542.811 288.857 544.668 290.069C545.089 290.344 545.579 290.401 546.023 290.277ZM866.768 200.279C867.492 200.076 868.009 199.399 867.977 198.611C867.887 196.371 867.742 194.133 867.538 191.904C867.456 190.99 866.648 190.313 865.735 190.394C864.84 190.469 864.15 191.284 864.235 192.197C864.431 194.373 864.576 196.558 864.663 198.745C864.697 199.66 865.469 200.373 866.385 200.339C866.518 200.335 866.646 200.313 866.768 200.279ZM529.512 279.121C529.871 279.021 530.196 278.801 530.426 278.468C530.949 277.714 530.764 276.681 530.011 276.157C528.201 274.898 526.393 273.624 524.589 272.343C523.843 271.804 522.811 271.992 522.276 272.735C521.745 273.484 521.921 274.52 522.67 275.052C524.483 276.344 526.296 277.615 528.117 278.886C528.539 279.178 529.054 279.25 529.512 279.121ZM864.436 180.489C865.259 180.258 865.782 179.424 865.611 178.569C865.174 176.365 864.683 174.177 864.13 171.999C863.904 171.112 863 170.577 862.113 170.799C862.098 170.803 862.085 170.806 862.073 170.81C861.208 171.052 860.689 171.939 860.913 172.821C861.449 174.936 861.934 177.072 862.358 179.212C862.536 180.113 863.407 180.699 864.306 180.52C864.352 180.513 864.392 180.501 864.436 180.489ZM513.266 267.574C513.615 267.476 513.936 267.265 514.164 266.945C514.699 266.202 514.532 265.163 513.785 264.624L508.405 260.738C507.656 260.193 506.615 260.37 506.086 261.112C505.55 261.856 505.717 262.895 506.459 263.428L511.849 267.324C512.275 267.629 512.798 267.706 513.266 267.574ZM859.003 161.333C859.049 161.32 859.097 161.307 859.138 161.288C859.998 160.966 860.433 160.009 860.111 159.149C859.32 157.037 858.474 154.955 857.57 152.909C857.196 152.064 856.189 151.652 855.38 152.06C854.541 152.43 854.164 153.412 854.532 154.246C855.415 156.243 856.238 158.265 857.004 160.316C857.309 161.126 858.182 161.563 859.003 161.333ZM497.107 255.908C497.457 255.81 497.778 255.599 498.008 255.278C498.543 254.535 498.37 253.497 497.627 252.958L492.222 249.086C491.475 248.547 490.439 248.716 489.907 249.472C489.374 250.214 489.547 251.252 490.292 251.784L495.69 255.658C496.116 255.963 496.639 256.039 497.107 255.908ZM850.42 143.357C850.558 143.318 850.689 143.261 850.82 143.185C851.608 142.714 851.868 141.697 851.399 140.913C850.253 138.975 849.044 137.075 847.776 135.219C847.263 134.467 846.232 134.27 845.468 134.781C844.713 135.302 844.517 136.334 845.036 137.093C846.261 138.894 847.433 140.736 848.546 142.602C848.938 143.267 849.714 143.555 850.42 143.357ZM480.847 244.372C481.206 244.271 481.534 244.051 481.761 243.718C482.284 242.965 482.099 241.931 481.346 241.407C479.522 240.138 477.697 238.883 475.86 237.625C475.101 237.116 474.075 237.309 473.555 238.061C473.037 238.82 473.232 239.851 473.991 240.373C475.818 241.62 477.638 242.877 479.451 244.135C479.877 244.428 480.388 244.5 480.847 244.372ZM464.304 233.244C464.682 233.138 465.023 232.901 465.25 232.547C465.747 231.774 465.526 230.744 464.753 230.246C462.887 229.043 461.014 227.848 459.13 226.664C458.351 226.174 457.326 226.422 456.843 227.184C456.356 227.96 456.591 228.987 457.367 229.477C459.236 230.653 461.098 231.837 462.958 233.041C463.374 233.31 463.864 233.367 464.304 233.244ZM838.669 127.3C838.906 127.233 839.132 127.117 839.329 126.94C840.011 126.325 840.067 125.277 839.454 124.592C837.955 122.916 836.389 121.285 834.772 119.715C834.108 119.065 833.064 119.088 832.427 119.752C831.789 120.41 831.806 121.464 832.466 122.101C834.028 123.618 835.534 125.184 836.986 126.807C837.423 127.298 838.079 127.465 838.669 127.3ZM116.974 321.552C117.38 321.438 117.742 321.169 117.968 320.775C119.058 318.865 120.168 316.962 121.301 315.074C121.774 314.288 121.522 313.266 120.736 312.792C119.955 312.322 118.933 312.569 118.459 313.362C117.31 315.268 116.185 317.188 115.083 319.129C114.629 319.924 114.906 320.938 115.705 321.396C116.106 321.626 116.563 321.667 116.974 321.552ZM447.317 222.814C447.72 222.701 448.08 222.439 448.307 222.045C448.764 221.25 448.493 220.233 447.697 219.775C445.773 218.662 443.836 217.567 441.886 216.489C441.092 216.045 440.08 216.328 439.629 217.135C439.189 217.94 439.479 218.951 440.282 219.393C442.211 220.463 444.132 221.549 446.04 222.653C446.442 222.885 446.902 222.931 447.317 222.814ZM823.909 113.947C824.258 113.849 824.576 113.638 824.805 113.325C825.343 112.58 825.177 111.542 824.433 111.002C822.619 109.683 820.749 108.427 818.821 107.228C818.034 106.747 817.017 106.985 816.537 107.76C816.055 108.542 816.296 109.567 817.074 110.05C818.929 111.203 820.735 112.422 822.487 113.69C822.915 114.003 823.438 114.079 823.909 113.947ZM127.452 304.612C127.82 304.508 128.154 304.28 128.384 303.939C129.607 302.107 130.852 300.288 132.116 298.484C132.644 297.736 132.461 296.702 131.713 296.17C130.956 295.641 129.926 295.821 129.4 296.575C128.119 298.397 126.861 300.233 125.622 302.084C125.112 302.847 125.317 303.882 126.079 304.39C126.5 304.676 127.002 304.738 127.452 304.612ZM429.761 213.401C430.201 213.278 430.587 212.974 430.804 212.536C431.205 211.709 430.865 210.712 430.042 210.309C428.047 209.33 426.038 208.37 424.012 207.435C423.183 207.047 422.199 207.417 421.809 208.248C421.428 209.083 421.791 210.067 422.623 210.454C424.627 211.382 426.611 212.324 428.583 213.294C428.963 213.484 429.38 213.508 429.761 213.401ZM139.113 288.452C139.444 288.359 139.747 288.166 139.971 287.874C141.326 286.139 142.7 284.426 144.094 282.72C144.671 282.006 144.571 280.962 143.859 280.378C143.15 279.795 142.099 279.908 141.524 280.609C140.115 282.332 138.729 284.076 137.359 285.828C136.793 286.547 136.921 287.596 137.643 288.162C138.076 288.5 138.623 288.589 139.113 288.452ZM411.554 205.337C412.038 205.201 412.454 204.849 412.649 204.342C412.986 203.492 412.563 202.525 411.712 202.191C410.694 201.788 409.668 201.395 408.641 201.008C407.577 200.612 406.509 200.224 405.439 199.842C404.572 199.532 403.625 199.987 403.319 200.854C403.015 201.714 403.467 202.666 404.33 202.971C405.383 203.343 406.429 203.725 407.475 204.12C408.492 204.502 409.495 204.888 410.497 205.282C410.851 205.419 411.217 205.431 411.554 205.337ZM151.918 273.198C152.211 273.116 152.481 272.952 152.702 272.716C154.176 271.082 155.673 269.469 157.188 267.872C157.815 267.204 157.79 266.152 157.125 265.524C156.459 264.874 155.41 264.918 154.775 265.582C153.245 267.198 151.732 268.829 150.237 270.482C149.623 271.166 149.676 272.217 150.356 272.828C150.796 273.23 151.387 273.347 151.918 273.198ZM392.688 198.947C393.222 198.797 393.67 198.382 393.834 197.803C394.086 196.923 393.575 196.001 392.693 195.75C390.544 195.132 388.389 194.555 386.229 194.015C385.338 193.793 384.439 194.328 384.214 195.22C383.993 196.112 384.534 197.011 385.421 197.235C387.554 197.769 389.673 198.342 391.784 198.944C392.089 199.033 392.4 199.027 392.688 198.947ZM165.806 258.93C166.061 258.858 166.3 258.723 166.506 258.531C168.095 257.006 169.705 255.511 171.333 254.029C172.012 253.414 172.061 252.362 171.445 251.678C170.823 251.01 169.765 250.969 169.101 251.567C167.451 253.067 165.819 254.583 164.209 256.127C163.546 256.765 163.523 257.816 164.158 258.481C164.599 258.937 165.238 259.089 165.806 258.93ZM373.306 194.387C373.893 194.223 374.37 193.738 374.489 193.091C374.658 192.194 374.064 191.323 373.164 191.15C370.972 190.74 368.774 190.365 366.564 190.027C365.665 189.881 364.808 190.512 364.674 191.413C364.535 192.321 365.157 193.173 366.064 193.309C368.231 193.646 370.395 194.017 372.553 194.423C372.812 194.471 373.069 194.453 373.306 194.387ZM180.715 245.723C180.931 245.662 181.137 245.558 181.32 245.405C183.02 244.012 184.74 242.64 186.475 241.29C187.197 240.731 187.328 239.683 186.764 238.957C186.2 238.232 185.166 238.096 184.433 238.666C182.676 240.035 180.935 241.427 179.213 242.839C178.503 243.415 178.403 244.462 178.983 245.176C179.415 245.703 180.101 245.895 180.715 245.723ZM353.59 191.62C354.23 191.441 354.726 190.884 354.794 190.177C354.878 189.264 354.21 188.453 353.297 188.365C351.078 188.151 348.854 187.972 346.628 187.827C345.708 187.796 344.923 188.466 344.866 189.38C344.806 190.299 345.502 191.089 346.416 191.15C348.606 191.291 350.796 191.467 352.986 191.675C353.194 191.696 353.4 191.673 353.59 191.62ZM196.59 233.709C196.764 233.66 196.931 233.58 197.09 233.474C198.896 232.22 200.717 230.981 202.552 229.772C203.316 229.268 203.529 228.238 203.023 227.468C202.516 226.7 201.497 226.501 200.723 226.994C198.866 228.223 197.02 229.468 195.192 230.742C194.442 231.27 194.256 232.3 194.777 233.057C195.194 233.655 195.928 233.894 196.59 233.709ZM333.703 190.613C334.399 190.418 334.911 189.783 334.915 189.027C334.92 188.109 334.182 187.358 333.264 187.353C331.035 187.337 328.809 187.361 326.577 187.406C325.674 187.437 324.936 188.19 324.956 189.101C324.977 190.019 325.738 190.749 326.654 190.729C328.851 190.68 331.048 190.663 333.246 190.675C333.405 190.677 333.56 190.653 333.703 190.613ZM213.363 222.973C213.497 222.935 213.629 222.878 213.758 222.809C215.65 221.692 217.561 220.61 219.487 219.551C220.291 219.116 220.585 218.104 220.144 217.296C219.704 216.495 218.674 216.185 217.894 216.64C215.934 217.708 213.995 218.812 212.072 219.937C211.285 220.407 211.021 221.426 211.484 222.212C211.872 222.878 212.654 223.171 213.363 222.973ZM313.815 191.34C314.561 191.131 315.08 190.412 315.016 189.608C314.946 188.697 314.145 188.012 313.233 188.085C311.008 188.256 308.789 188.467 306.573 188.704C305.689 188.804 305.008 189.628 305.105 190.539C305.205 191.448 306.023 192.108 306.936 192.014C309.118 191.773 311.306 191.572 313.495 191.396C313.602 191.386 313.712 191.369 313.815 191.34ZM230.938 213.631C231.028 213.606 231.12 213.573 231.205 213.529C232.816 212.768 234.435 212.011 236.062 211.272L237.185 210.775C238.024 210.406 238.404 209.423 238.037 208.581C237.667 207.741 236.66 207.416 235.852 207.724L234.707 208.241C233.042 208.99 231.404 209.753 229.778 210.532C228.949 210.926 228.597 211.915 228.991 212.748C229.344 213.484 230.176 213.845 230.938 213.631ZM294.05 193.757C294.855 193.532 295.375 192.732 295.236 191.887C295.086 190.978 294.231 190.368 293.324 190.521C291.126 190.881 288.935 191.279 286.748 191.704C285.843 191.803 285.26 192.748 285.436 193.65C285.611 194.552 286.481 195.144 287.38 194.965C289.539 194.548 291.701 194.159 293.871 193.793C293.931 193.791 293.99 193.774 294.05 193.757ZM249.24 205.791C249.287 205.778 249.337 205.764 249.382 205.745C251.436 204.966 253.502 204.219 255.581 203.508C256.446 203.205 256.908 202.26 256.607 201.393C256.311 200.526 255.362 200.07 254.497 200.36C252.39 201.093 250.292 201.849 248.207 202.636C247.348 202.958 246.917 203.921 247.241 204.774C247.548 205.591 248.423 206.02 249.24 205.791ZM274.56 197.831C275.425 197.589 275.941 196.703 275.722 195.827C275.495 194.933 274.594 194.397 273.707 194.618C271.795 195.1 269.905 195.602 267.979 196.149L267.252 196.352C266.368 196.6 265.855 197.519 266.103 198.4C266.35 199.282 267.265 199.8 268.149 199.553L268.883 199.347C270.793 198.825 272.636 198.315 274.517 197.842C274.533 197.839 274.548 197.835 274.56 197.831Z" fill="#212D4E"/>
<path d="M120.71 349.997L100.594 352.18C99.8053 352.265 99.117 351.931 98.6503 351.416C97.9826 351.224 97.3784 350.754 97.1058 350.008L90.1573 330.972C89.938 330.372 89.9988 329.724 90.3221 329.203L93.4577 324.151C94.3024 322.79 96.4079 322.928 97.2348 324.399L107.435 337.261L123.463 340.731C125.145 340.823 126.2 342.654 125.356 344.015L122.221 349.067C121.898 349.587 121.345 349.928 120.71 349.997Z" fill="#212D4E"/>
<path d="M73.0583 390.996C72.5168 390.393 71.8001 389.296 71.4654 388.558L51.8997 345.426C51.565 344.688 51.589 343.492 51.9543 342.769L53.7372 339.237C54.1025 338.513 54.8972 338.362 55.5036 338.899L88.0398 367.733C88.6462 368.27 89.7587 368.955 90.5108 369.254L130.577 385.173C131.33 385.472 131.553 386.25 131.073 386.903L129.283 389.335C128.804 389.987 127.749 390.541 126.94 390.565L77.0766 392.057C76.2674 392.081 74.9683 391.921 74.1884 391.701L73.0583 390.996Z" fill="#212D4E"/>
<path d="M62.0504 352.727L56.2335 349.105L52.5724 355.004C51.5745 356.612 52.8003 357.546 54.4058 358.546C56.0126 359.547 57.3913 360.233 58.3893 358.625L62.0504 352.727Z" fill="#212D4E"/>
<path d="M68.2938 366.594L62.4769 362.972L58.8158 368.871C57.8179 370.479 59.0438 371.414 60.6492 372.413C62.256 373.414 63.6348 374.101 64.6327 372.493L68.2938 366.594Z" fill="#212D4E"/>
<path d="M113.562 384.803L119.379 388.424L115.718 394.323C114.72 395.931 113.341 395.244 111.734 394.244C110.128 393.243 108.903 392.308 109.901 390.701L113.562 384.803Z" fill="#212D4E"/>
<path d="M98.116 385.763L103.933 389.385L100.272 395.284C99.2739 396.892 98.0344 395.98 96.4279 394.98C94.8212 393.98 93.4571 393.27 94.455 391.662L98.116 385.763Z" fill="#212D4E"/>
<path d="M105.091 348.097L112.278 331.51C112.785 330.693 112.504 329.599 111.651 329.067C110.798 328.536 109.695 328.767 109.188 329.584L97.5187 343.38C96.2757 345.383 99.534 346.687 100.388 347.218C101.239 347.75 103.848 350.1 105.091 348.097Z" fill="#212D4E"/>
<path d="M76.3608 405.783L108.876 346.026C109.952 344.049 109.441 341.668 107.707 340.588L103.083 337.709C101.35 336.629 98.9914 337.223 97.6975 339.065C97.6975 339.065 59.0645 394.04 58.594 394.71C56.3024 397.97 54.6198 401.657 53.6827 405.533C53.2126 407.477 52.9288 409.467 52.8476 411.467C52.7053 414.977 51.9003 421.498 57.321 421.049C61.2164 420.726 65.5612 417.557 68.5083 415.164C71.6974 412.576 74.3942 409.397 76.3608 405.783Z" fill="#212D4E"/>
</svg>
