<svg width="13" height="13" viewBox="0 0 13 13" fill="none" xmlns="http://www.w3.org/2000/svg">
<g clip-path="url(#clip0_6819_378)">
<path d="M11.6602 1.01562H11.0411V0H10.0092V1.01562H3.19881V0H2.16694V1.01562H1.54781C0.694349 1.01562 0 1.69904 0 2.53906V11.4766C0 12.3166 0.694349 13 1.54781 13H11.6602C12.5137 13 13.208 12.3166 13.208 11.4766V2.53906C13.208 1.69904 12.5137 1.01562 11.6602 1.01562ZM12.1761 11.4766C12.1761 11.7566 11.9447 11.9844 11.6602 11.9844H1.54781C1.26332 11.9844 1.03188 11.7566 1.03188 11.4766V4.77344H12.1761V11.4766ZM12.1761 3.75781H1.03188V2.53906C1.03188 2.25905 1.26332 2.03125 1.54781 2.03125H2.16694V3.04688H3.19881V2.03125H10.0092V3.04688H11.0411V2.03125H11.6602C11.9447 2.03125 12.1761 2.25905 12.1761 2.53906V3.75781Z" fill="#E32682"/>
<path d="M2.99232 5.83984H1.96045V6.85547H2.99232V5.83984Z" fill="#E32682"/>
<path d="M5.05629 5.83984H4.02441V6.85547H5.05629V5.83984Z" fill="#E32682"/>
<path d="M7.12001 5.83984H6.08813V6.85547H7.12001V5.83984Z" fill="#E32682"/>
<path d="M9.18373 5.83984H8.15186V6.85547H9.18373V5.83984Z" fill="#E32682"/>
<path d="M11.2475 5.83984H10.2156V6.85547H11.2475V5.83984Z" fill="#E32682"/>
<path d="M2.99232 7.87109H1.96045V8.88672H2.99232V7.87109Z" fill="#E32682"/>
<path d="M5.05629 7.87109H4.02441V8.88672H5.05629V7.87109Z" fill="#E32682"/>
<path d="M7.12001 7.87109H6.08813V8.88672H7.12001V7.87109Z" fill="#E32682"/>
<path d="M9.18373 7.87109H8.15186V8.88672H9.18373V7.87109Z" fill="#E32682"/>
<path d="M2.99232 9.90234H1.96045V10.918H2.99232V9.90234Z" fill="#E32682"/>
<path d="M5.05629 9.90234H4.02441V10.918H5.05629V9.90234Z" fill="#E32682"/>
<path d="M7.12001 9.90234H6.08813V10.918H7.12001V9.90234Z" fill="#E32682"/>
<path d="M9.18373 9.90234H8.15186V10.918H9.18373V9.90234Z" fill="#E32682"/>
<path d="M11.2475 7.87109H10.2156V8.88672H11.2475V7.87109Z" fill="#E32682"/>
</g>
<defs>
<clipPath id="clip0_6819_378">
<rect width="13" height="13" fill="white"/>
</clipPath>
</defs>
</svg>
