<svg width="43" height="41" viewBox="0 0 43 41" fill="none" xmlns="http://www.w3.org/2000/svg">
<path d="M43 23.837C43 21.579 41.656 19.6333 39.7283 18.7449V18.2283C39.7283 8.17707 31.5512 0 21.5 0C11.4488 0 3.27174 8.17707 3.27174 18.2283V18.7449C1.34404 19.6333 0 21.579 0 23.837C0 26.9295 2.51588 29.4457 5.6087 29.4457H7.47826C7.99449 29.4457 8.41304 29.0271 8.41304 28.5109V19.163C8.41304 18.6468 7.99449 18.2283 7.47826 18.2283H5.6087C5.45094 18.2283 5.29581 18.2391 5.1413 18.2519V18.2283C5.1413 9.20816 12.4799 1.86957 21.5 1.86957C30.5201 1.86957 37.8587 9.20816 37.8587 18.2283V18.2519C37.7042 18.2391 37.5491 18.2283 37.3913 18.2283H35.5217C35.0055 18.2283 34.587 18.6468 34.587 19.163V28.5109C34.587 29.0271 35.0055 29.4457 35.5217 29.4457H37.3913C37.5491 29.4457 37.7042 29.4348 37.8587 29.422V30.8478C37.8587 33.9404 35.3428 36.4565 32.25 36.4565H25.2391C25.2391 35.4257 24.4007 34.587 23.3696 34.587H18.6957C17.6646 34.587 16.8261 35.4257 16.8261 36.4565V38.3261C16.8261 39.357 17.6646 40.1957 18.6957 40.1957H23.3696C24.4007 40.1957 25.2391 39.357 25.2391 38.3261H32.25C36.3735 38.3261 39.7283 34.9713 39.7283 30.8478V28.929C41.656 28.0406 43 26.095 43 23.837ZM6.54348 20.0978V27.5761H5.6087C3.54697 27.5761 1.86957 25.8987 1.86957 23.837C1.86957 21.7752 3.54697 20.0978 5.6087 20.0978H6.54348ZM18.6957 38.3261V36.4565H23.3696L23.3703 37.3846C23.3702 37.3869 23.3696 37.389 23.3696 37.3913C23.3696 37.3936 23.3702 37.3958 23.3703 37.3982L23.3709 38.3261H18.6957ZM37.3913 27.5761H36.4565V20.0978H37.3913C39.453 20.0978 41.1304 21.7752 41.1304 23.837C41.1304 25.8987 39.453 27.5761 37.3913 27.5761ZM21.5 29.913C27.1699 29.913 31.7826 25.3003 31.7826 19.6304C31.7826 13.9606 27.1699 9.34783 21.5 9.34783C15.8301 9.34783 11.2174 13.9606 11.2174 19.6304C11.2174 21.4649 11.709 23.2577 12.6428 24.84L11.7017 29.7366C11.6364 30.0767 11.7642 30.4249 12.0344 30.642C12.2033 30.7775 12.4105 30.8478 12.6196 30.8478C12.7451 30.8478 12.8711 30.8227 12.9902 30.7714L17.1871 28.9598C18.5478 29.5926 19.9965 29.913 21.5 29.913ZM13.8711 28.3548L14.5471 24.8363C14.5923 24.601 14.5457 24.3575 14.4166 24.1558C13.5466 22.7979 13.087 21.233 13.087 19.6304C13.087 14.9914 16.8612 11.2174 21.5 11.2174C26.1388 11.2174 29.913 14.9914 29.913 19.6304C29.913 24.2694 26.1388 28.0435 21.5 28.0435C20.1485 28.0435 18.8504 27.7263 17.6417 27.1007C17.393 26.9718 17.099 26.961 16.8416 27.0726L13.8711 28.3548ZM21.5 22.4348H16.8261C16.3099 22.4348 15.8913 22.0162 15.8913 21.5C15.8913 20.9838 16.3099 20.5652 16.8261 20.5652H21.5C22.0162 20.5652 22.4348 20.9838 22.4348 21.5C22.4348 22.0162 22.0162 22.4348 21.5 22.4348ZM15.8913 17.7609C15.8913 17.2446 16.3099 16.8261 16.8261 16.8261H26.1739C26.6901 16.8261 27.1087 17.2446 27.1087 17.7609C27.1087 18.2771 26.6901 18.6957 26.1739 18.6957H16.8261C16.3099 18.6957 15.8913 18.2771 15.8913 17.7609Z" fill="#000D44"/>
</svg>
