<svg width="25" height="25" viewBox="0 0 25 25" fill="none" xmlns="http://www.w3.org/2000/svg">
<path fill-rule="evenodd" clip-rule="evenodd" d="M9.80014 3.82815C9.35087 4.96051 8.9852 6.33599 8.73811 7.88017C9.9336 7.77067 11.1967 7.71238 12.5 7.71238C13.8033 7.71238 15.0664 7.77067 16.2619 7.88017C16.0148 6.33599 15.6491 4.96051 15.1999 3.82815C14.768 2.73978 14.2776 1.92326 13.7816 1.39449C13.2875 0.867744 12.8541 0.690826 12.5 0.690826C12.1459 0.690826 11.7125 0.867744 11.2184 1.39449C10.7224 1.92326 10.232 2.73978 9.80014 3.82815ZM8.03654 3.11695C7.47596 4.52986 7.04581 6.23186 6.78218 8.11345C5.48443 8.3064 4.30013 8.56386 3.27296 8.87453C2.07779 9.236 1.0414 9.68545 0.282612 10.228C0.186748 10.2966 0.0921266 10.369 5.73051e-05 10.4454C0.837614 5.22607 4.81392 1.06699 9.9136 1.58051e-06C9.8883 0.0259519 9.86322 0.0521884 9.83835 0.0786982C9.12237 0.841968 8.52134 1.89505 8.03654 3.11695ZM15.0864 0C15.1117 0.0259508 15.1368 0.0521879 15.1616 0.0786982C15.8776 0.841968 16.4787 1.89505 16.9635 3.11695C17.524 4.52986 17.9542 6.23186 18.2178 8.11345C19.5156 8.3064 20.6999 8.56386 21.727 8.87453C22.9222 9.236 23.9586 9.68545 24.7174 10.228C24.8132 10.2966 24.9079 10.369 24.9999 10.4454C24.1624 5.22607 20.1861 1.06699 15.0864 0ZM25 14.5541C24.9079 14.6305 24.8133 14.703 24.7174 14.7716C23.9586 15.3142 22.9222 15.7636 21.727 16.1251C20.6999 16.4358 19.5156 16.6932 18.2178 16.8862C17.9542 18.7678 17.524 20.4698 16.9635 21.8827C16.4787 23.1046 15.8776 24.1576 15.1616 24.9209C15.1367 24.9476 15.1114 24.9739 15.086 25C20.186 23.9331 24.1625 19.7738 25 14.5541ZM9.91398 25C9.88855 24.9739 9.86334 24.9476 9.83835 24.9209C9.12237 24.1576 8.52134 23.1046 8.03654 21.8827C7.47596 20.4698 7.04581 18.7678 6.78218 16.8862C5.48443 16.6932 4.30012 16.4358 3.27296 16.1251C2.07779 15.7636 1.0414 15.3142 0.282612 14.7716C0.186728 14.703 0.0920873 14.6305 0 14.5541C0.837454 19.7738 4.81399 23.9331 9.91398 25ZM3.81876 14.2909C4.62437 14.5345 5.55127 14.7457 6.57289 14.9152C6.51506 14.13 6.48504 13.3226 6.48504 12.4998C6.48504 11.677 6.51506 10.8696 6.57289 10.0844C5.55127 10.2539 4.62437 10.4651 3.81876 10.7087C2.72236 11.0403 1.90429 11.4162 1.38151 11.79C0.834058 12.1815 0.786663 12.4352 0.786663 12.4998C0.786663 12.5644 0.834058 12.8181 1.38151 13.2096C1.90429 13.5834 2.72236 13.9593 3.81876 14.2909ZM8.3845 12.4998C8.3845 13.4205 8.42432 14.3147 8.4992 15.1723C9.74784 15.3014 11.0935 15.3723 12.5 15.3723C13.9064 15.3723 15.2522 15.3014 16.5008 15.1723C16.5757 14.3147 16.6155 13.4205 16.6155 12.4998C16.6155 11.5791 16.5757 10.6849 16.5008 9.82732C15.2522 9.69823 13.9064 9.62735 12.5 9.62735C11.0935 9.62735 9.74784 9.69823 8.4992 9.82732C8.42432 10.6849 8.3845 11.5791 8.3845 12.4998ZM9.80014 21.1715C9.35087 20.0391 8.9852 18.6636 8.73811 17.1194C9.9336 17.2289 11.1967 17.2872 12.5 17.2872C13.8033 17.2872 15.0664 17.2289 16.2619 17.1194C16.0148 18.6636 15.6491 20.0391 15.1999 21.1715C14.768 22.2598 14.2776 23.0764 13.7816 23.6051C13.2875 24.1319 12.8541 24.3088 12.5 24.3088C12.1459 24.3088 11.7125 24.1319 11.2184 23.6051C10.7224 23.0764 10.232 22.2598 9.80014 21.1715ZM21.1812 14.2909C20.3756 14.5345 19.4487 14.7457 18.4271 14.9152C18.4849 14.13 18.515 13.3226 18.515 12.4998C18.515 11.677 18.4849 10.8696 18.4271 10.0844C19.4487 10.2539 20.3756 10.4651 21.1812 10.7087C22.2776 11.0403 23.0957 11.4162 23.6185 11.79C24.1659 12.1815 24.2133 12.4352 24.2133 12.4998C24.2133 12.5644 24.1659 12.8181 23.6185 13.2096C23.0957 13.5834 22.2776 13.9593 21.1812 14.2909Z" fill="black"/>
</svg>
