<svg width="60" height="42" viewBox="0 0 60 42" fill="none" xmlns="http://www.w3.org/2000/svg">
<path d="M30.001 24.001C39.9422 24.0011 48.0009 28.0303 48.001 33.001C48.001 37.9716 39.9422 42.0009 30.001 42.001C20.0595 42.001 12 37.9717 12 33.001C12 28.0303 20.0596 24.001 30.001 24.001ZM13.1455 24.0576C9.63283 26.4391 7.50014 29.5707 7.5 33.001C7.5 34.9456 8.18546 36.7945 9.41895 38.4648C3.8985 37.3577 0 34.6569 0 31.501C0.000290808 27.6729 5.73646 24.5145 13.1455 24.0576ZM46.8555 24.0576C54.2645 24.5145 60.0007 27.6729 60.001 31.501C60.001 34.6569 56.1025 37.3577 50.582 38.4648C51.8155 36.7945 52.501 34.9456 52.501 33.001C52.5008 29.5707 50.3681 26.4391 46.8555 24.0576ZM30 0C34.9706 0 39.0008 4.0294 39.001 9C39.001 13.9707 34.9707 18.001 30 18.001C25.0294 18.0008 21 13.9706 21 9C21.0001 4.02949 25.0295 0.000151913 30 0ZM15 6C15.6186 6 16.2159 6.09376 16.7773 6.26758C16.5959 7.15005 16.5 8.06385 16.5 9C16.5 11.8212 17.3659 14.4404 18.8457 16.6064C17.8044 17.4766 16.4631 18 15 18C11.6863 17.9999 9 15.3137 9 12C9.0001 8.68634 11.6863 6.0001 15 6ZM45.002 6C48.3155 6.00025 51.0019 8.68643 51.002 12C51.002 15.3137 48.3156 17.9998 45.002 18C43.5388 18 42.1975 17.4766 41.1562 16.6064C42.636 14.4404 43.501 11.8212 43.501 9C43.501 8.06387 43.406 7.15003 43.2246 6.26758C43.7861 6.09376 44.3834 6 45.002 6Z" fill="white"/>
</svg>
