<svg width="28" height="28" viewBox="0 0 28 28" fill="none" xmlns="http://www.w3.org/2000/svg">
<path d="M21.13 12.5741C21.13 11.8251 20.9824 11.0834 20.6958 10.3914C20.4091 9.69938 19.989 9.0706 19.4594 8.54097C18.9297 8.01133 18.301 7.5912 17.609 7.30456C16.917 7.01792 16.1753 6.87039 15.4263 6.87039M26.8337 12.5741C26.8337 11.0761 26.5386 9.59268 25.9653 8.20867C25.392 6.82466 24.5518 5.56711 23.4925 4.50784C22.4332 3.44856 21.1757 2.6083 19.7917 2.03502C18.4077 1.46175 16.9243 1.16669 15.4263 1.16669M26.8337 21.6345V23.9815C26.8337 25.5565 25.5568 26.8334 23.9818 26.8334C11.3815 26.8334 1.16699 16.6188 1.16699 4.01854C1.16699 2.4435 2.44381 1.16669 4.01884 1.16669H6.36582C7.53196 1.16669 8.58061 1.87666 9.0137 2.95939L10.1739 5.85992C10.7248 7.23705 10.1281 8.80653 8.80142 9.46984L8.29662 9.72224C8.29662 9.72224 9.00958 13.2871 11.8614 16.1389C14.7133 18.9908 18.2781 19.7037 18.2781 19.7037L18.5305 19.1989C19.1938 17.8723 20.7633 17.2756 22.1404 17.8264L25.041 18.9866C26.1237 19.4197 26.8337 20.4684 26.8337 21.6345Z" stroke="white" stroke-width="1.5" stroke-linecap="round"/>
</svg>
