<svg width="50" height="50" viewBox="0 0 50 50" fill="none" xmlns="http://www.w3.org/2000/svg">
<mask id="mask0_459_126" style="mask-type:alpha" maskUnits="userSpaceOnUse" x="0" y="0" width="50" height="51">
<path d="M19.4443 27.7783C30.1833 27.7783 38.8887 32.7531 38.8887 38.8896C38.8887 45.0262 30.1833 50.001 19.4443 50.001C8.70551 50.0009 9.01982e-07 45.0261 0 38.8896C0 32.7532 8.70551 27.7784 19.4443 27.7783ZM35.7969 27.8662C43.8333 28.4616 49.9997 31.9256 50 36.1094C50 39.103 46.8427 41.7279 42.1025 43.1973C42.7225 41.8305 43.0556 40.3843 43.0557 38.8877C43.0557 34.557 40.271 30.6464 35.7969 27.8662ZM19.4443 0C25.5808 5.20555e-05 30.5557 4.97483 30.5557 11.1113C30.5556 17.2478 25.5808 22.2226 19.4443 22.2227C13.3079 22.2227 8.33309 17.2478 8.33301 11.1113C8.33301 4.9748 13.3078 0 19.4443 0ZM33.6836 5.56348C38.1234 5.74721 41.666 9.40469 41.666 13.8896C41.6659 18.4919 37.9353 22.2227 33.333 22.2227C32.3189 22.2227 31.3471 22.0416 30.4482 21.71C33.0947 18.9629 34.7217 15.227 34.7217 11.1113C34.7216 9.1543 34.3541 7.2832 33.6836 5.56348Z" fill="#1E3A8A"/>
</mask>
<g mask="url(#mask0_459_126)">
<rect width="50" height="50" fill="white"/>
</g>
</svg>
