<svg width="50" height="35" viewBox="0 0 50 35" fill="none" xmlns="http://www.w3.org/2000/svg">
<path d="M25.0001 20C33.2843 20 40.0001 23.3579 40.0001 27.5C39.9999 31.642 33.2842 35 25.0001 35C16.716 35 10.0003 31.642 10.0001 27.5C10.0001 23.3579 16.7159 20 25.0001 20ZM10.9542 20.0479C8.02717 22.0324 6.25017 24.6416 6.25012 27.5C6.25012 29.1203 6.82099 30.6609 7.84875 32.0527C3.24871 31.1301 0.00012207 28.8798 0.00012207 26.25C0.000242557 23.06 4.7802 20.4286 10.9542 20.0479ZM39.045 20.0479C45.2191 20.4286 49.999 23.06 49.9991 26.25C49.9991 28.8799 46.7508 31.1301 42.1505 32.0527C43.1784 30.6608 43.7491 29.1204 43.7491 27.5C43.7491 24.6415 41.9722 22.0324 39.045 20.0479ZM12.5001 5C13.0155 5 13.5128 5.07784 13.9806 5.22266C13.8294 5.95806 13.7501 6.71986 13.7501 7.5C13.7501 9.85075 14.4713 12.033 15.7042 13.8379C14.8365 14.563 13.7194 15 12.5001 15C9.73874 15 7.50017 12.7614 7.50012 10C7.50012 7.23859 9.73872 5 12.5001 5ZM25.0001 0C29.1422 2.64145e-05 32.5001 3.3579 32.5001 7.5C32.5001 11.6421 29.1422 15 25.0001 15C20.858 15 17.5002 11.6421 17.5001 7.5C17.5001 3.35788 20.858 0 25.0001 0ZM37.5001 5C40.2614 5.0001 42.5001 7.23865 42.5001 10C42.5001 12.7613 40.2614 14.9999 37.5001 15C36.2809 15 35.1637 14.563 34.296 13.8379C35.5289 12.033 36.2501 9.85072 36.2501 7.5C36.2501 6.71986 36.1708 5.95806 36.0197 5.22266C36.4874 5.07787 36.9848 5 37.5001 5Z" fill="#1E3A8A"/>
</svg>
