<svg width="60" height="43" viewBox="0 0 60 43" fill="none" xmlns="http://www.w3.org/2000/svg">
<path d="M30 24.5002C39.9412 24.5004 48 28.5296 48 33.5002C48 38.4709 39.9412 42.5001 30 42.5002C20.0586 42.5002 11.999 38.471 11.999 33.5002C11.9991 28.5295 20.0586 24.5002 30 24.5002ZM13.1445 24.5569C9.63186 26.9384 7.49916 30.07 7.49902 33.5002C7.49902 35.4448 8.18448 37.2938 9.41797 38.9641C3.89753 37.8569 -0.000976562 35.1562 -0.000976562 32.0002C-0.000685531 28.1722 5.73549 25.0138 13.1445 24.5569ZM46.8545 24.5569C54.2635 25.0138 59.9997 28.1722 60 32.0002C60 35.1562 56.1015 37.8569 50.5811 38.9641C51.8145 37.2938 52.5 35.4448 52.5 33.5002C52.4999 30.07 50.3672 26.9384 46.8545 24.5569ZM30 0.499268C34.9706 0.499268 38.9999 4.52867 39 9.49927C39 14.47 34.9707 18.5002 30 18.5002C25.0293 18.5002 21 14.47 21 9.49927C21.0001 4.52869 25.0294 0.499298 30 0.499268ZM14.999 6.49927C15.6176 6.49927 16.2149 6.59303 16.7764 6.76685C16.595 7.64931 16.499 8.56312 16.499 9.49927C16.499 12.3205 17.3649 14.9397 18.8447 17.1057C17.8034 17.9759 16.4622 18.4993 14.999 18.4993C11.6853 18.4992 8.99902 15.813 8.99902 12.4993C8.99912 9.1856 11.6854 6.49937 14.999 6.49927ZM45.001 6.49927C48.3145 6.49952 51.0009 9.1857 51.001 12.4993C51.001 15.8129 48.3146 18.499 45.001 18.4993C43.5378 18.4993 42.1966 17.9759 41.1553 17.1057C42.6351 14.9397 43.5 12.3205 43.5 9.49927C43.5 8.56314 43.405 7.6493 43.2236 6.76685C43.7851 6.59303 44.3824 6.49927 45.001 6.49927Z" fill="white"/>
</svg>
