<svg width="24" height="24" viewBox="0 0 24 24" fill="none" xmlns="http://www.w3.org/2000/svg">
<path d="M18.1111 10.7778C18.1111 10.1358 17.9847 9.50003 17.739 8.90688C17.4933 8.31373 17.1332 7.77479 16.6792 7.32081C16.2252 6.86684 15.6863 6.50672 15.0931 6.26103C14.5 6.01534 13.8642 5.88889 13.2222 5.88889M23 10.7778C23 9.49374 22.7471 8.22228 22.2557 7.03598C21.7643 5.84969 21.0441 4.7718 20.1362 3.86384C19.2282 2.95589 18.1503 2.23567 16.964 1.74429C15.7777 1.25291 14.5063 1 13.2222 1M23 18.5439V20.5556C23 21.9056 21.9056 23 20.5556 23C9.75532 23 1 14.2447 1 3.44444C1 2.09441 2.09442 1 3.44444 1H5.45614C6.45569 1 7.35453 1.60855 7.72575 2.5366L8.72022 5.02277C9.19238 6.20317 8.68091 7.54843 7.5438 8.11699L7.11111 8.33333C7.11111 8.33333 7.72222 11.3889 10.1667 13.8333C12.6111 16.2778 15.6667 16.8889 15.6667 16.8889L15.883 16.4562C16.4516 15.3191 17.7968 14.8076 18.9772 15.2798L21.4634 16.2742C22.3915 16.6455 23 17.5443 23 18.5439Z" stroke="#212529" stroke-width="1.5" stroke-linecap="round"/>
</svg>
