<svg width="125" height="109" viewBox="0 0 125 109" fill="none" xmlns="http://www.w3.org/2000/svg">
<path d="M88.615 0.233777C93.5055 0.233777 98.2003 1.00722 102.7 2.55412C107.003 4.29438 110.818 6.61472 114.143 9.51516C117.469 12.4156 120.11 15.8961 122.066 19.9567C124.022 24.2107 125 28.8514 125 33.8788C125 39.6797 124.315 45.2872 122.946 50.7013C121.381 56.1155 118.936 61.3362 115.61 66.3636C114.437 68.1039 112.383 71.2944 109.448 75.9351C106.318 80.5758 102.993 85.3131 99.4718 90.1472C95.9507 95.1746 92.5274 99.5253 89.2019 103.199C85.8764 107.066 83.3333 109 81.5728 109L78.0516 106.97C82.7465 100.395 87.6369 93.9177 92.723 87.5368C97.6135 81.3492 102.504 75.0649 107.394 68.684C101.917 74.6782 96.831 80.8658 92.1361 87.2468C87.4413 93.8211 82.3552 100.105 76.8779 106.1L73.0634 103.199L71.0094 106.1L69.2488 106.39C66.1189 106.39 63.6737 105.423 61.9131 103.489C60.1526 101.556 58.8811 99.2352 58.0986 96.5281C61.0329 94.4012 64.0649 91.5007 67.1948 87.8268C70.3247 84.3463 73.3568 80.4791 76.2911 76.2251C79.2254 72.1645 81.964 68.0072 84.507 63.7533C87.0501 59.6927 89.1041 56.1154 90.669 53.0216C86.1698 60.5628 81.3772 67.8139 76.2911 74.7749C71.0094 81.9293 64.7496 88.3102 57.5117 93.9177L57.2183 91.0173C57.2183 89.8572 57.7073 88.5036 58.6854 86.9567C59.6635 85.4098 60.8372 83.7662 62.2066 82.026C63.3803 80.4791 64.6518 78.9322 66.0211 77.3853C67.3904 76.0318 68.4664 74.8716 69.2488 73.9048L71.8897 75.645C73.259 72.7446 75.0196 69.7475 77.1714 66.6537C79.3232 63.7533 81.475 60.7561 83.6268 57.6623C85.5829 54.5685 87.3435 51.4748 88.9085 48.381C90.2778 45.2872 90.9624 42.1934 90.9624 39.0996L89.4953 37.6494C87.9304 44.417 85.2895 50.7013 81.5728 56.5022C78.2473 61.7229 74.6283 66.8471 70.716 71.8745C72.0853 69.9408 73.6502 67.7172 75.4108 65.2035C77.5626 61.9163 79.6166 58.4358 81.5728 54.7619C83.529 51.2814 85.1917 47.8009 86.561 44.3204C87.9304 40.8398 88.615 37.746 88.615 35.039C87.8326 34.6523 86.9523 34.2655 85.9742 33.8788C84.9961 33.4921 84.018 33.2987 83.0399 33.2987L80.6925 33.5887C80.4969 32.4286 80.2034 31.2684 79.8122 30.1082C79.421 28.9481 79.2254 27.7879 79.2254 26.6277C79.2254 25.0808 79.7144 24.0173 80.6925 23.4372C81.6706 23.0505 82.8443 22.8572 84.2136 22.8572L83.9202 19.9567C81.5728 18.9899 79.3232 17.5397 77.1714 15.6061C74.8239 13.8658 73.6502 11.5455 73.6502 8.64504C73.6502 6.90477 74.2371 5.45455 75.4108 4.29438C76.3889 3.32757 77.6604 2.55412 79.2254 1.97403C80.7903 1.39394 82.4531 0.910534 84.2136 0.523808C85.9742 0.330449 87.4413 0.233777 88.615 0.233777ZM35.5047 53.0216C30.0274 59.2092 24.061 65.1068 17.6056 70.7143C10.9546 76.5151 5.18386 82.5094 0.293413 88.697L-5.57553e-06 85.5065C-5.4572e-06 84.153 0.489039 82.6061 1.46713 80.8658C2.44522 79.3189 3.61892 77.772 4.98825 76.2251C6.35758 74.6782 7.82471 73.228 9.38965 71.8745C10.759 70.5209 11.9327 69.3607 12.9108 68.3939L15.2582 70.4242C16.6275 68.1039 18.4859 65.6869 20.8333 63.1732C23.1807 60.8528 25.5282 58.4358 27.8756 55.9221C30.223 53.4084 32.3748 50.8947 34.331 48.381C36.0915 45.8672 37.1674 43.3535 37.5587 40.8398L36.0916 39.6797C33.9397 44.7071 31.0055 49.2511 27.2887 53.3117C23.572 57.3723 19.8552 61.3362 16.1385 65.2035C19.464 61.5296 22.8873 57.3723 26.4084 52.7316C30.1252 48.0909 32.9617 43.5469 34.9178 39.0996L30.5164 38.2294L30.8098 35.9091C30.8098 35.1357 30.8098 34.3622 30.8098 33.5887C30.6142 33.0087 30.5164 32.3319 30.5164 31.5585C30.5164 29.2381 31.4945 28.0779 33.4507 28.0779L35.2113 28.368L35.5047 25.1775C33.3529 24.0173 31.5923 22.3737 30.223 20.2468C28.6581 18.1198 27.8756 15.7994 27.8756 13.2857C27.8756 10.1919 29.2449 8.16163 31.9836 7.19481C34.7222 6.42136 37.2653 6.03464 39.6127 6.03464C43.3294 6.03464 47.144 6.71142 51.0563 8.06495C54.7731 9.61185 58.1964 11.6421 61.3263 14.1558C64.4562 16.8629 66.9992 19.9567 68.9554 23.4372C70.9116 26.9178 71.8897 30.6883 71.8897 34.7489C71.8897 41.5166 70.8138 47.8975 68.662 53.8918C66.3146 59.886 62.6956 65.3002 57.8052 70.1342C56.8271 71.101 54.7731 73.228 51.6432 76.5152C48.5133 79.9957 45.1878 83.4762 41.6667 86.9567C38.1455 90.6306 34.9178 93.9177 31.9836 96.8182C29.0493 99.7186 27.2887 101.169 26.7019 101.169C24.7457 101.169 23.1807 100.685 22.007 99.7186C25.3325 94.3045 29.6361 89.0837 34.9178 84.0563C40.1995 79.2222 45.1878 74.6782 49.8826 70.4242C44.4053 74.6782 39.3192 79.1255 34.6244 83.7662C29.7339 88.6003 25.0391 93.6277 20.5399 98.8485L16.4319 96.5281C16.2363 98.075 15.2582 99.0418 13.4976 99.4286C11.5415 99.8153 10.0743 100.009 9.09623 100.009C6.74881 100.009 4.89044 99.1385 3.52111 97.3983C2.15179 95.658 1.27151 93.7244 0.880273 91.5974C6.94444 85.6032 12.9108 79.3189 18.7793 72.7446C24.4523 66.1703 30.0274 59.596 35.5047 53.0216ZM37.5587 40.5498C37.5587 39.7763 37.3631 39.3896 36.9718 39.3896L36.9718 39.6797L37.5587 40.5498ZM36.0916 35.619C35.8959 35.8124 35.7981 36.0058 35.7981 36.1991C35.9937 36.0058 36.0916 35.8124 36.0916 35.619Z" fill="white" fill-opacity="0.3"/>
</svg>
