<svg width="40" height="56" viewBox="0 0 40 56" fill="none" xmlns="http://www.w3.org/2000/svg">
<path d="M36.5173 20.5684C32.9769 25.0387 31.707 25.4622 26.1655 24.0262C30.668 27.5413 31.0945 28.8022 29.6482 34.3041C33.1886 29.8338 34.4585 29.4103 40 30.8463C35.4975 27.3312 35.071 26.0703 36.5173 20.5684Z" fill="#F8755A"/>
<path d="M4.0636 4.66745C3.27149 6.41547 2.97005 8.3004 2.89949 10.1821C2.84498 12.0671 3.09832 13.9647 3.6018 15.7955C4.09887 17.6295 4.91984 19.3712 5.84663 21.0014C6.30521 21.8197 6.8568 22.5902 7.3699 23.3607C7.93752 24.1058 8.49872 24.8381 9.11765 25.5195C11.5998 28.245 14.5405 30.3751 17.6929 31.7506C20.8228 33.1515 24.1483 33.8934 27.4354 33.8648C27.5958 33.8648 27.7304 33.7342 27.7304 33.5782C27.7304 33.505 27.7048 33.4381 27.6567 33.3903L27.6535 33.3872C26.5856 32.2282 25.6267 31.0724 24.7641 29.907C23.895 28.7481 23.1318 27.5732 22.4776 26.3983C21.1403 24.0676 20.3065 21.6987 19.8351 19.4667C19.7613 19.1929 19.7485 18.8968 19.6972 18.6198C19.6555 18.3427 19.601 18.0721 19.5657 17.7983C19.5336 17.2315 19.4727 16.6966 19.4438 16.1585C19.3957 15.0791 19.4887 14.0221 19.5144 13.0127C19.5465 12.0002 19.5689 11.01 19.5497 10.007C19.4984 8.99769 19.4663 7.99155 19.168 6.88033L18.8217 5.58444C17.7442 1.52166 13.4662 -0.850427 9.27158 0.283078C6.87283 0.929431 5.00642 2.61377 4.0636 4.66745Z" fill="#E32682"/>
<path d="M2.46977 48.5717C3.68198 49.495 5.09301 50.0713 6.54252 50.4661C7.99845 50.8514 9.51851 51.0011 11.0322 50.9501C12.549 50.9024 14.0498 50.5935 15.4865 50.1796C16.2049 49.9758 16.9072 49.6956 17.5967 49.4441C18.2765 49.1448 18.95 48.8487 19.5914 48.4984C22.1601 47.0943 24.3536 45.2285 25.9955 43.0633C27.6535 40.9205 28.8368 38.507 29.4109 35.9853C29.4397 35.8611 29.3627 35.737 29.2409 35.7051C29.1832 35.6924 29.1286 35.6987 29.0805 35.7274L29.0773 35.7306C27.9806 36.3387 26.9095 36.8609 25.8448 37.3099C24.7865 37.7652 23.7347 38.1345 22.702 38.4211C20.6464 39.0197 18.6549 39.2266 16.8366 39.182C16.6122 39.1884 16.3781 39.1438 16.1536 39.1343C15.9291 39.1152 15.711 39.1088 15.4897 39.0865C15.044 39.0101 14.6175 38.956 14.1942 38.8828C13.3475 38.7235 12.5426 38.4593 11.7601 38.2555C10.9776 38.0454 10.2144 37.8479 9.42872 37.6824C8.63662 37.5359 7.84773 37.3799 6.93055 37.4054L5.85945 37.434C2.50825 37.5264 -0.111775 40.3697 0.00367333 43.7893C0.0774318 45.7379 1.04591 47.4732 2.46977 48.5717Z" fill="#01BDB2"/>
<path d="M35.2859 55.1435C36.0972 54.5258 36.7129 53.7234 37.2196 52.8669C37.7231 52.004 38.0823 51.0552 38.31 50.0777C38.5409 49.1002 38.6018 48.0845 38.5793 47.0943C38.5729 46.5976 38.5088 46.1009 38.4671 45.6169C38.3901 45.1298 38.3132 44.649 38.1977 44.1777C37.7295 42.2896 36.8989 40.5671 35.7797 39.1407C34.6766 37.7078 33.3168 36.533 31.7775 35.7306C31.7006 35.6924 31.6076 35.7178 31.5659 35.7911C31.5466 35.8261 31.5434 35.8611 31.5531 35.8962V35.8993C31.7583 36.7049 31.9122 37.4818 32.0181 38.2396C32.1303 38.9942 32.188 39.7329 32.1976 40.4429C32.2297 41.863 32.0213 43.1716 31.6749 44.3274C31.6396 44.4739 31.5723 44.614 31.5242 44.754C31.4729 44.8941 31.4312 45.0342 31.3767 45.1712C31.2484 45.4418 31.1426 45.7061 31.0207 45.964C30.7706 46.4798 30.4595 46.9478 30.1933 47.4127C29.9207 47.8776 29.661 48.3297 29.4173 48.8041C29.1864 49.2849 28.9459 49.7625 28.8048 50.3547L28.638 51.0456C28.1185 53.2044 29.5103 55.3759 31.7487 55.8917C33.0314 56.1846 34.327 55.8662 35.2859 55.1435Z" fill="#FF1F3C"/>
</svg>
