<svg width="36" height="36" viewBox="0 0 36 36" fill="none" xmlns="http://www.w3.org/2000/svg">
<path d="M2.53148 0C2.27852 0.00425197 2.05701 0.169654 1.98986 0.409783C1.73132 1.33429 1.11514 2.01822 0.378202 2.27857C-0.126067 2.45353 -0.126067 3.16714 0.378202 3.34205C1.11488 3.60337 1.72999 4.28932 1.98767 5.2141C2.06319 5.48491 2.29723 5.62155 2.52709 5.62499C2.52859 5.62499 2.52998 5.62503 2.53149 5.62499C2.53299 5.62501 2.53438 5.6261 2.53589 5.6261C2.76575 5.62185 2.99979 5.48489 3.07531 5.2141C3.33299 4.28932 3.9481 3.60337 4.68478 3.34205C5.18904 3.16708 5.18904 2.45347 4.68478 2.27857C3.9478 2.01822 3.33164 1.33429 3.0731 0.409783C3.00595 0.169611 2.78444 0.00397559 2.53148 0ZM33.4684 0.00110551C33.2154 0.00535748 32.9939 0.170759 32.9268 0.410889C32.6682 1.33539 32.052 2.01932 31.3151 2.27967C30.8108 2.45464 30.8108 3.16825 31.3151 3.34313C32.0518 3.60446 32.6669 4.29043 32.9246 5.21521C33.0001 5.48599 33.2341 5.62265 33.464 5.6261C33.4655 5.6261 33.467 5.62615 33.4684 5.6261C33.47 5.62612 33.4714 5.62722 33.4729 5.62722C33.7028 5.62297 33.9368 5.48599 34.0123 5.21521C34.27 4.29043 34.8851 3.60446 35.6218 3.34313C36.1261 3.16816 36.1261 2.45455 35.6218 2.27967C34.8844 2.01932 34.2685 1.33539 34.01 0.410889C33.9429 0.170716 33.7213 0.00505984 33.4684 0.00110551ZM2.53148 1.91492C2.74677 2.2529 3.06864 2.59253 3.34885 2.81029C2.91956 3.16202 2.70253 3.45202 2.53148 3.71118C2.36044 3.45202 2.1434 3.16202 1.71411 2.81029C1.99432 2.59253 2.3162 2.2529 2.53148 1.91492ZM34.2857 2.8114C33.8565 3.16313 33.6394 3.45311 33.4684 3.71229C33.2973 3.45311 33.0803 3.16312 32.651 2.8114C32.9312 2.59364 33.2531 2.25401 33.4684 1.91602C33.6837 2.25401 34.0055 2.59364 34.2857 2.8114ZM15.75 34.3147C15.75 35.2398 16.4959 36 17.4364 36H18.5635C19.504 36 20.2499 35.2398 20.2499 34.3147L20.2505 33.75C21.1915 33.75 21.9374 32.9898 21.9374 32.0647V31.5C22.6876 31.5 22.6876 30.375 21.9374 30.375V29.25C22.588 29.25 22.6724 28.4057 22.1945 28.181C22.2216 27.9211 22.3219 27.6477 22.4801 27.3537C24.067 28.2999 25.5397 28.9673 26.7812 29.2522C27.7465 29.4737 28.5662 29.476 29.2355 29.1818C29.9529 28.8665 30.3533 28.2585 30.4835 27.5174C30.7291 26.1199 30.0636 24.0632 28.6016 21.5595C28.2277 20.897 27.2369 21.4747 27.6293 22.1264C29.0306 24.5261 29.5502 26.3196 29.3739 27.3229C29.3056 27.7114 29.1228 28.0052 28.7829 28.1546C28.4429 28.3041 27.8611 28.3461 27.0361 28.1567C25.9354 27.9041 24.5956 27.3034 23.1228 26.4319C23.5115 25.9421 23.9676 25.4173 24.4609 24.8136C25.6937 23.3049 26.9976 21.3758 26.9976 18.4986C26.9976 17.4762 26.8354 16.499 26.5428 15.584C27.8572 13.9309 28.9492 12.3344 29.7716 10.873C31.0931 8.52483 31.766 6.46057 31.4008 5.05029C31.2064 4.29974 30.7069 3.74388 29.9473 3.50898C29.5932 3.39949 29.2087 3.36143 28.7949 3.38163C28.3811 3.40077 27.9382 3.48092 27.4667 3.60686C25.5807 4.11095 23.1916 5.40888 20.4784 7.42351C19.8755 7.86977 20.5457 8.77395 21.1485 8.32767C23.7917 6.36509 26.1158 5.129 27.7578 4.69011C28.5788 4.47064 29.2179 4.46125 29.6133 4.5836C30.0088 4.70584 30.2113 4.95333 30.3121 5.32956C30.561 6.25872 30.0831 8.02487 28.7905 10.3218C28.0889 11.5684 27.1627 12.9417 26.0593 14.3724C24.6586 11.5173 21.7744 9.56446 18.0011 9.56369C14.2268 9.56448 11.3431 11.5174 9.9427 14.3735C8.83851 12.9419 7.91135 11.5681 7.20937 10.3207C5.91674 8.02369 5.43882 6.25766 5.68779 5.32848C5.7886 4.95222 5.99102 4.7048 6.38651 4.58249C6.782 4.46025 7.42104 4.4696 8.24206 4.689C9.8841 5.12794 12.2081 6.36394 14.8513 8.32658C15.4542 8.77287 16.1243 7.86869 15.5215 7.4224C12.8082 5.40774 10.4192 4.10987 8.53319 3.60575C8.0617 3.47968 7.6188 3.4006 7.20497 3.3805C6.79114 3.36135 6.40669 3.39749 6.05253 3.50783C5.29294 3.74271 4.79343 4.29857 4.59907 5.04921C4.2339 6.45952 4.90679 8.52366 6.22831 10.872C7.05115 12.3341 8.14397 13.9311 9.45932 15.5851C9.16712 16.4996 9.0045 17.477 9.0045 18.4987C9.0045 21.3759 10.3084 23.3049 11.5412 24.8136C12.0343 25.4171 12.4907 25.9412 12.8793 26.4308C11.4057 27.3029 10.065 27.904 8.96385 28.1567C8.13881 28.3462 7.55702 28.3039 7.21706 28.1546C6.87708 28.0052 6.69428 27.7114 6.626 27.3229C6.44967 26.3196 6.96931 24.526 8.3706 22.1264C8.76298 21.4747 7.7722 20.897 7.39833 21.5595C5.93628 24.0631 5.2708 26.1199 5.51641 27.5174C5.64666 28.2585 6.04701 28.8665 6.76443 29.1818C7.43368 29.4759 8.25343 29.4737 9.21873 29.2522C10.4609 28.9671 11.9352 28.2997 13.5231 27.3527C13.6844 27.6472 13.7803 27.9199 13.8076 28.1799C13.3271 28.4029 13.4109 29.25 14.0625 29.25V30.375C13.3123 30.375 13.3123 31.5 14.0625 31.5V32.0647C14.0625 32.9898 14.8084 33.75 15.7494 33.75L15.75 34.3147ZM17.9999 6.18859C17.7186 6.18859 17.4374 6.3761 17.4374 6.7511V7.87609C17.4374 8.62626 18.5624 8.62626 18.5624 7.87609V6.7511C18.5624 6.37601 18.2812 6.18859 17.9999 6.18859ZM9.24949 10.6084L10.0449 11.4049C10.5753 11.9354 11.3707 11.1388 10.8403 10.6084L10.0449 9.81299C9.91227 9.68033 9.76282 9.62994 9.62192 9.63826C9.19922 9.66317 8.85166 10.2106 9.24949 10.6084ZM25.955 9.81305L25.1585 10.6085C24.628 11.1389 25.4234 11.9354 25.9539 11.405L26.7504 10.6085C27.1482 10.2106 26.7995 9.66323 26.3768 9.63834C26.2359 9.62979 26.0876 9.68039 25.955 9.81305ZM25.2727 15.3633C24.5973 16.1919 23.8712 17.0337 23.0886 17.8791C21.4419 19.6582 19.7076 21.2951 17.9977 22.7285C16.2892 21.2947 14.5559 19.655 12.9112 17.878C12.1295 17.0336 11.404 16.1932 10.7293 15.3655C11.8579 12.6014 14.4978 10.6905 18.001 10.6897C21.5033 10.6905 24.1436 12.6004 25.2727 15.3633ZM2.80613 11.8136C2.55456 11.8147 2.33332 11.9822 2.26562 12.2245C1.96615 13.2824 1.24454 14.0744 0.372709 14.3789C-0.123657 14.5573 -0.123657 15.2596 0.372709 15.438C1.24492 15.7413 1.96954 16.5359 2.27001 17.5935C2.42818 18.1324 3.19185 18.1324 3.34995 17.5935C3.64942 16.5356 4.37098 15.7424 5.24285 15.438C5.74708 15.263 5.74708 14.5494 5.24285 14.3745C4.37063 14.0712 3.65041 13.2821 3.34995 12.2245C3.28192 11.9807 3.05928 11.8126 2.80613 11.8136ZM33.1827 11.8136C32.9312 11.8147 32.7099 11.9822 32.6422 12.2245C32.3428 13.2824 31.6211 14.0744 30.7493 14.3789C30.2529 14.5573 30.2529 15.2596 30.7493 15.438C31.6215 15.7413 32.3461 16.5359 32.6466 17.5935C32.8048 18.1324 33.5685 18.1324 33.7265 17.5935C34.026 16.5356 34.7476 15.7424 35.6195 15.438C36.1237 15.263 36.1237 14.5494 35.6195 14.3745C34.7472 14.0712 34.027 13.2821 33.7265 12.2245C33.6585 11.9807 33.4359 11.8126 33.1827 11.8136ZM17.9999 11.8147C16.6181 11.8147 15.2681 12.2355 14.135 13.0265C13.4981 13.4543 14.1613 14.4036 14.7821 13.9526C15.7264 13.2934 16.8483 12.9397 17.9999 12.9397C18.7654 12.9553 18.7654 11.799 17.9999 11.8147ZM2.80613 13.7472C3.15152 14.2805 3.38504 14.5217 3.86629 14.9062C3.45267 15.2419 3.14915 15.5209 2.81053 16.0664C2.44014 15.4633 2.03345 15.1253 1.74597 14.9073C2.13857 14.6099 2.51113 14.2512 2.80613 13.7472ZM33.1827 13.7472C33.5281 14.2805 33.7617 14.5217 34.2429 14.9062C33.8293 15.2419 33.5258 15.5209 33.1871 16.0664C32.8167 15.4633 32.4101 15.1253 32.1226 14.9073C32.5152 14.6099 32.8877 14.2512 33.1827 13.7472ZM12.9375 14.6261C12.6269 14.6261 12.375 14.8779 12.375 15.1886C12.375 15.4993 12.6269 15.7511 12.9375 15.7511C13.2482 15.7511 13.5 15.4993 13.5 15.1886C13.5 14.8779 13.2482 14.6261 12.9375 14.6261ZM25.877 18.4988C25.877 20.9597 24.7665 22.6624 23.5886 24.104C23.0923 24.7113 22.5888 25.2692 22.1527 25.8288C21.1033 25.1508 20.0013 24.3514 18.8788 23.4525C20.5978 21.9994 22.3139 20.3668 23.9138 18.6383C24.5302 17.9723 25.1159 17.309 25.6693 16.6509C25.8008 17.2436 25.877 17.8594 25.877 18.4988ZM10.3327 16.652C10.8856 17.3094 11.4703 17.9731 12.0861 18.6383C13.6845 20.3652 15.3997 21.999 17.1177 23.4525C15.9974 24.3487 14.8959 25.1507 13.8483 25.8278C13.4123 25.2685 12.9094 24.7109 12.4135 24.104C11.2356 22.6625 10.1251 20.9597 10.1251 18.4988C10.1251 17.8598 10.2014 17.2444 10.3327 16.652ZM6.18766 18.0011C5.4375 18.0011 5.4375 19.125 6.18766 19.125H7.31264C8.06279 19.125 8.06279 18.0011 7.31264 18.0011H6.18766ZM28.6861 18.0011C27.936 18.0011 27.936 19.125 28.6861 19.125H29.8122C30.5624 19.125 30.5624 18.0011 29.8122 18.0011H28.6861ZM17.9999 24.1842C19.1955 25.151 20.3809 26.018 21.5221 26.7572C21.2802 27.1862 21.1027 27.6358 21.064 28.125H14.9381C14.8993 27.6354 14.7245 27.184 14.4811 26.755C15.6207 26.0166 16.8065 25.1486 17.9999 24.1842ZM26.9371 26.3067C27.5268 26.7705 28.2222 25.8861 27.6326 25.4224L26.7482 24.7269C26.6008 24.611 26.4465 24.5789 26.3076 24.6038C25.8909 24.6787 25.6105 25.2635 26.0527 25.6113L26.9371 26.3067ZM9.25498 24.7312L8.3706 25.4278C7.78119 25.8918 8.47661 26.7762 9.06602 26.3121L9.9504 25.6155C10.3925 25.2675 10.1123 24.6827 9.69552 24.6081C9.55659 24.5833 9.40233 24.6145 9.25498 24.7312ZM3.9388 27.0042C3.6857 27.0031 3.46317 27.1713 3.39499 27.4151C2.92084 29.1528 1.77234 30.4666 0.372709 30.9736C-0.123714 31.152 -0.123714 31.8554 0.372709 32.0338C1.77291 32.5388 2.92359 33.8507 3.39938 35.5879C3.55244 36.1365 4.33071 36.1365 4.48371 35.5879C4.95786 33.8502 6.10635 32.5363 7.50599 32.0294C8.00244 31.851 8.00244 31.1476 7.50599 30.9692C6.1058 30.4641 4.95506 29.1523 4.47932 27.4151C4.4115 27.1728 4.19044 27.0051 3.9388 27.0042ZM32.06 27.0042C31.8069 27.0031 31.5843 27.1713 31.5161 27.4151C31.042 29.1528 29.8935 30.4666 28.4939 30.9736C27.9974 31.152 27.9974 31.8554 28.4939 32.0338C29.8941 32.5388 31.0447 33.8507 31.5205 35.5879C31.6736 36.1365 32.4519 36.1365 32.6049 35.5879C33.079 33.8502 34.2275 32.5363 35.6271 32.0294C36.1236 31.851 36.1236 31.1476 35.6271 30.9692C34.227 30.4642 33.0762 29.1523 32.6005 27.4151C32.5327 27.1728 32.3116 27.0051 32.06 27.0042ZM3.9388 29.0707C4.4934 30.199 5.13618 30.9167 6.0778 31.5009C5.10514 32.1232 4.49182 32.8591 3.9388 33.9201C3.43967 32.9017 2.6712 31.9892 1.8042 31.5053C2.77997 30.8634 3.39282 30.1574 3.9388 29.0707ZM32.06 29.0707C32.6146 30.199 33.2573 30.9167 34.199 31.5009C33.2263 32.1232 32.613 32.8591 32.06 33.9201C31.5608 32.9017 30.7923 31.9892 29.9254 31.5053C30.9011 30.8634 31.514 30.1574 32.06 29.0707ZM15.1875 29.2497H20.8124V30.3747H15.1875V29.2497ZM15.1875 31.4997H20.8124V32.0644C20.8124 32.3857 20.5547 32.6247 20.251 32.6247H15.7489C15.4451 32.6247 15.1875 32.3857 15.1875 32.0644V31.4997ZM16.8749 33.7497H19.1249V34.3144C19.1249 34.6358 18.8673 34.8747 18.5635 34.8747H17.4363C17.1326 34.8747 16.8749 34.6358 16.8749 34.3144V33.7497Z" fill="#E32682"/>
</svg>
