<svg width="36" height="36" viewBox="0 0 36 36" fill="none" xmlns="http://www.w3.org/2000/svg">
<path d="M19.3677 27.0124H7.33786V26.2074C7.34338 25.8172 7.25285 25.4318 7.07465 25.0869C6.89645 24.742 6.63633 24.4488 6.31831 24.2342C4.63189 23.0626 3.25114 21.4852 2.29679 19.6401C1.34244 17.795 0.843556 15.7382 0.843764 13.6498C0.843764 6.60002 6.43813 0.865 13.3147 0.865C13.4265 0.865 13.5339 0.819433 13.613 0.738324C13.6921 0.657214 13.7365 0.547206 13.7365 0.4325C13.7365 0.317794 13.6921 0.207786 13.613 0.126676C13.5339 0.0455668 13.4265 0 13.3147 0C5.97293 0 1.2815e-07 6.12326 1.2815e-07 13.6498C-0.0003016 15.8794 0.532216 18.0752 1.55099 20.045C2.56976 22.0149 4.04377 23.6989 5.84412 24.9498C6.04802 25.0853 6.21477 25.2719 6.32853 25.492C6.44229 25.7121 6.49928 25.9584 6.4941 26.2074V27.1385C6.00086 27.3042 5.5713 27.6254 5.26675 28.0563C4.96219 28.4872 4.7982 29.0057 4.7982 29.5378C4.7982 30.0699 4.96219 30.5884 5.26675 31.0192C5.5713 31.4501 6.00086 31.7713 6.4941 31.937C6.49661 33.0148 6.9157 34.0475 7.65956 34.8091C8.40342 35.5706 9.4114 35.9989 10.4627 36H16.1671C17.2183 35.9988 18.2262 35.5705 18.9699 34.8089C19.7137 34.0474 20.1328 33.0147 20.1353 31.937C20.6921 31.7499 21.1656 31.3654 21.4707 30.8526C21.7759 30.3399 21.8927 29.7323 21.8003 29.1392C21.7079 28.546 21.4122 28.006 20.9664 27.6162C20.5206 27.2264 19.9538 27.0123 19.3679 27.0124H19.3677ZM16.1669 35.135H10.4627C9.65654 35.134 8.88189 34.8141 8.30031 34.2418C7.71873 33.6695 7.37512 32.8891 7.34116 32.0635H19.2882C19.2542 32.8891 18.9106 33.6694 18.3291 34.2417C17.7475 34.814 16.973 35.134 16.1669 35.135ZM19.3677 31.1985H7.26157C6.83386 31.1956 6.42463 31.0194 6.12319 30.7083C5.82175 30.3972 5.65257 29.9765 5.65257 29.5381C5.65257 29.0996 5.82175 28.6789 6.12319 28.3678C6.42463 28.0567 6.83386 27.8805 7.26157 27.8777H19.3677C19.5813 27.8762 19.793 27.9181 19.9908 28.0009C20.1885 28.0837 20.3683 28.2058 20.5199 28.3601C20.6714 28.5144 20.7916 28.6979 20.8737 28.9001C20.9558 29.1023 20.998 29.3191 20.998 29.5381C20.998 29.757 20.9558 29.9738 20.8737 30.176C20.7916 30.3782 20.6714 30.5617 20.5199 30.716C20.3683 30.8704 20.1885 30.9924 19.9908 31.0752C19.793 31.158 19.5813 31.1999 19.3677 31.1985ZM13.3147 8.50828C12.2648 8.50828 11.2385 8.82744 10.3656 9.4254C9.49265 10.0233 8.81229 10.8732 8.41053 11.8676C8.00876 12.862 7.90365 13.9561 8.10847 15.0117C8.3133 16.0673 8.81886 17.037 9.56123 17.798C10.3036 18.5591 11.2494 19.0773 12.2791 19.2873C13.3088 19.4973 14.3761 19.3895 15.3461 18.9776C16.316 18.5657 17.145 17.8682 17.7283 16.9733C18.3116 16.0784 18.6229 15.0263 18.6228 13.95C18.6213 12.5073 18.0615 11.1241 17.0664 10.1039C16.0712 9.08372 14.722 8.50989 13.3147 8.50828ZM13.3147 18.5268C12.4317 18.5268 11.5685 18.2584 10.8344 17.7555C10.1002 17.2526 9.52797 16.5378 9.19007 15.7015C8.85217 14.8652 8.76376 13.9449 8.93602 13.0571C9.10828 12.1693 9.53347 11.3538 10.1578 10.7137C10.7822 10.0736 11.5777 9.63775 12.4437 9.46115C13.3097 9.28456 14.2074 9.37519 15.0231 9.7216C15.8389 10.068 16.5361 10.6546 17.0267 11.4073C17.5172 12.1599 17.7791 13.0448 17.7791 13.95C17.7777 15.1634 17.307 16.3267 16.47 17.1848C15.6331 18.0428 14.4983 18.5254 13.3147 18.5268ZM33.8979 11.7942C33.4137 11.7948 32.9444 11.9665 32.5692 12.2803C32.1939 12.594 31.9356 13.0308 31.8377 13.517H23.8509V12.4043C23.8507 12.1976 23.7768 11.998 23.6432 11.8432C23.5096 11.6884 23.3254 11.5889 23.1252 11.5635L21.6285 11.3749C21.4622 10.8103 21.2414 10.2641 20.9693 9.74444L21.8974 8.52587C22.0214 8.3628 22.083 8.15893 22.0706 7.95258C22.0583 7.74623 21.9729 7.5516 21.8304 7.40526L19.6987 5.21963C19.556 5.07358 19.3661 4.98602 19.1648 4.97338C18.9635 4.96074 18.7647 5.02391 18.6056 5.151L17.4173 6.1025C16.9104 5.82358 16.3776 5.5972 15.8269 5.42672L15.643 3.89279C15.6182 3.68752 15.5212 3.49859 15.3701 3.36155C15.219 3.22451 15.0242 3.1488 14.8225 3.14867H11.8069C11.6052 3.1489 11.4106 3.22462 11.2595 3.36162C11.1085 3.49862 11.0114 3.68746 10.9866 3.89264L10.8028 5.42672C10.252 5.59716 9.71923 5.82354 9.21235 6.1025L8.02405 5.151C7.86497 5.02395 7.66612 4.96082 7.46485 4.97345C7.26357 4.98609 7.07372 5.07363 6.93095 5.21963L4.79834 7.40526C4.6559 7.55161 4.57049 7.74624 4.55816 7.95259C4.54584 8.15894 4.60744 8.36281 4.7314 8.52587L5.65954 9.74444C5.38747 10.2641 5.16669 10.8103 5.00049 11.3749L3.50394 11.5635C3.30381 11.5889 3.11962 11.6884 2.986 11.8432C2.85238 11.998 2.77852 12.1976 2.7783 12.4043V15.4958C2.7785 15.7025 2.85236 15.9021 2.98598 16.0569C3.1196 16.2118 3.3038 16.3113 3.50394 16.3367L5.00042 16.5252C5.16667 17.0898 5.38747 17.636 5.65954 18.1556L4.7314 19.3738C4.60742 19.5369 4.54579 19.7408 4.55811 19.9471C4.57042 20.1535 4.65583 20.3481 4.79827 20.4944L6.9306 22.6804C7.07332 22.8265 7.26319 22.9141 7.46449 22.9268C7.66579 22.9394 7.86466 22.8762 8.0237 22.7491L9.212 21.7976C9.7189 22.0765 10.2517 22.3029 10.8025 22.4733L10.9864 24.0075C11.0112 24.2127 11.1082 24.4015 11.2593 24.5385C11.4103 24.6755 11.605 24.7512 11.8066 24.7514H14.8222C15.0239 24.7512 15.2185 24.6755 15.3696 24.5385C15.5206 24.4015 15.6176 24.2127 15.6424 24.0075L15.8263 22.4733C16.3771 22.3029 16.9099 22.0766 17.4168 21.7976L18.6051 22.7491C18.7641 22.8762 18.963 22.9394 19.1643 22.9268C19.3656 22.9142 19.5555 22.8266 19.6983 22.6805L21.8306 20.4945C21.973 20.3482 22.0585 20.1536 22.0708 19.9472C22.0832 19.7408 22.0215 19.537 21.8976 19.3739L20.9694 18.1557C21.2415 17.636 21.4623 17.0898 21.6285 16.5252L23.1251 16.3367C23.3252 16.3113 23.5094 16.2118 23.6431 16.0569C23.7767 15.9021 23.8505 15.7025 23.8507 15.4958V14.3825H31.838C31.9178 14.7819 32.1065 15.15 32.3822 15.4439C32.6578 15.7378 33.0092 15.9455 33.3954 16.0429C33.7816 16.1403 34.1868 16.1234 34.564 15.9942C34.9412 15.8649 35.2749 15.6287 35.5264 15.3128C35.7779 14.9969 35.9368 14.6144 35.9847 14.2096C36.0326 13.8049 35.9675 13.3945 35.7971 13.0261C35.6266 12.6578 35.3577 12.3465 35.0216 12.1285C34.6854 11.9106 34.2959 11.7948 33.8982 11.7947L33.8979 11.7942ZM23.0071 15.48L21.2479 15.7016C21.1644 15.7121 21.0857 15.748 21.0222 15.8047C20.9587 15.8614 20.9132 15.9363 20.8916 16.0197C20.7137 16.7058 20.4474 17.3645 20.0998 17.9784C20.0575 18.0531 20.038 18.139 20.0437 18.2252C20.0495 18.3113 20.0803 18.3937 20.1321 18.4618L21.2236 19.8941L19.1129 22.0583L17.7157 20.9393C17.6493 20.8862 17.569 20.8547 17.485 20.8487C17.4009 20.8428 17.3171 20.8628 17.2443 20.9062C16.6454 21.2626 16.0029 21.5356 15.3337 21.7179C15.2523 21.7401 15.1792 21.7867 15.1239 21.8518C15.0686 21.9169 15.0335 21.9975 15.0233 22.0832L14.8071 23.8867H11.8223L11.6061 22.0832C11.5959 21.9975 11.5608 21.917 11.5055 21.8518C11.4502 21.7867 11.3771 21.7401 11.2957 21.7179C10.6265 21.5356 9.98403 21.2626 9.38518 20.9062C9.31234 20.8628 9.2285 20.8428 9.14447 20.8487C9.06043 20.8546 8.98004 20.8862 8.91366 20.9393L7.51653 22.0583L5.40578 19.8942L6.49698 18.4618C6.54875 18.3938 6.5795 18.3115 6.58527 18.2254C6.59105 18.1394 6.57159 18.0535 6.52939 17.9789C6.18177 17.3648 5.91549 16.706 5.73759 16.0198C5.71596 15.9364 5.67046 15.8615 5.60695 15.8048C5.54344 15.7481 5.46483 15.7121 5.38124 15.7016L3.62207 15.48V12.4201L5.38124 12.1984C5.46485 12.1879 5.54347 12.152 5.60698 12.0952C5.67049 12.0385 5.71598 11.9636 5.73759 11.8801C5.91546 11.1941 6.18172 10.5354 6.52932 9.92141C6.5716 9.84673 6.5911 9.76079 6.58532 9.67466C6.57954 9.58852 6.54875 9.50613 6.49691 9.43809L5.40578 8.00586L7.51653 5.84207L8.9138 6.96094C8.98014 7.01402 9.06044 7.04554 9.14439 7.05146C9.22834 7.05738 9.3121 7.03743 9.3849 6.99417C9.98376 6.63782 10.6263 6.36484 11.2955 6.18244C11.3769 6.16028 11.4499 6.11364 11.5053 6.04853C11.5606 5.98342 11.5956 5.90283 11.6059 5.81712L11.822 4.01367H14.8069L15.0231 5.81712C15.0333 5.90282 15.0684 5.98341 15.1237 6.04851C15.179 6.11362 15.252 6.16026 15.3334 6.18244C16.0026 6.36484 16.6452 6.63782 17.2441 6.99417C17.3169 7.03751 17.4007 7.0575 17.4848 7.05158C17.5688 7.04566 17.6491 7.01409 17.7155 6.96094L19.1127 5.84207L21.2234 8.00586L20.1319 9.4383C20.0801 9.50635 20.0493 9.58874 20.0435 9.67487C20.0377 9.76101 20.0572 9.84695 20.0995 9.92162C20.4473 10.5355 20.7137 11.1941 20.8916 11.8801C20.9132 11.9636 20.9587 12.0385 21.0222 12.0952C21.0857 12.1519 21.1643 12.1878 21.2479 12.1983L23.0071 12.42V15.48ZM33.8982 15.2407C33.6493 15.2407 33.4059 15.165 33.199 15.0232C32.992 14.8814 32.8307 14.6799 32.7354 14.4441C32.6401 14.2084 32.6152 13.9489 32.6638 13.6986C32.7123 13.4483 32.8322 13.2184 33.0082 13.038C33.1842 12.8575 33.4085 12.7346 33.6527 12.6849C33.8968 12.6351 34.1499 12.6606 34.3798 12.7583C34.6098 12.8559 34.8064 13.0213 34.9447 13.2335C35.083 13.4457 35.1568 13.6952 35.1568 13.9504C35.1563 14.2924 35.0236 14.6203 34.7877 14.8622C34.5517 15.1041 34.2319 15.2402 33.8982 15.2407ZM23.6254 9.80413H28.946C29.3138 9.80413 29.5823 9.56935 29.7443 9.10629L30.8531 5.93462C31.3691 6.01046 31.8942 5.88723 32.3266 5.58881C32.759 5.2904 33.0679 4.83805 33.1936 4.31942C33.3192 3.8008 33.2525 3.25283 33.0065 2.78172C32.7605 2.3106 32.3526 1.94989 31.862 1.76948C31.3713 1.58907 30.8328 1.60181 30.3508 1.80523C29.8688 2.00865 29.4776 2.38827 29.2531 2.87051C29.0285 3.35276 28.9866 3.90329 29.1354 4.41542C29.2842 4.92756 29.6132 5.36482 30.0586 5.64247L28.9497 8.81413C28.9356 8.85713 28.918 8.89886 28.8971 8.93891H23.6254C23.5135 8.93891 23.4062 8.98448 23.3271 9.06559C23.2479 9.1467 23.2035 9.2567 23.2035 9.37141C23.2035 9.48612 23.2479 9.59612 23.3271 9.67723C23.4062 9.75834 23.5135 9.80391 23.6254 9.80391V9.80413ZM31.1509 2.51059C31.3998 2.51059 31.6432 2.58626 31.8502 2.72804C32.0571 2.86982 32.2184 3.07134 32.3137 3.30711C32.409 3.54288 32.4339 3.80231 32.3853 4.05261C32.3368 4.3029 32.2169 4.5328 32.0409 4.71326C31.8649 4.89371 31.6406 5.01659 31.3964 5.06638C31.1523 5.11617 30.8992 5.09061 30.6693 4.99296C30.4393 4.8953 30.2427 4.72992 30.1044 4.51773C29.9661 4.30554 29.8923 4.05608 29.8923 3.80088C29.8927 3.45882 30.0255 3.13089 30.2614 2.88901C30.4974 2.64714 30.8172 2.51105 31.1509 2.51059ZM31.1509 21.9433C31.0513 21.9434 30.9518 21.9508 30.8531 21.9653L29.7442 18.794C29.5825 18.331 29.3138 18.0962 28.946 18.0962H23.6254C23.5135 18.0962 23.4062 18.1418 23.3271 18.2229C23.2479 18.304 23.2035 18.414 23.2035 18.5287C23.2035 18.6434 23.2479 18.7534 23.3271 18.8346C23.4062 18.9157 23.5135 18.9612 23.6254 18.9612H28.8975C28.9183 19.0012 28.9359 19.0429 28.95 19.0859L30.0589 22.2575C29.6252 22.5282 29.3017 22.9508 29.1483 23.4471C28.9949 23.9434 29.0219 24.4799 29.2245 24.9573C29.427 25.4347 29.7913 25.8208 30.25 26.0442C30.7088 26.2676 31.2309 26.3131 31.7198 26.1724C32.2087 26.0317 32.6315 25.7143 32.9098 25.2789C33.1881 24.8434 33.3032 24.3194 33.2339 23.8036C33.1645 23.2879 32.9153 22.8153 32.5324 22.4734C32.1495 22.1314 31.6587 21.9431 31.1509 21.9433ZM31.1509 25.3896C30.902 25.3896 30.6587 25.3139 30.4517 25.1721C30.2447 25.0304 30.0834 24.8289 29.9881 24.5931C29.8929 24.3574 29.8679 24.0979 29.9165 23.8477C29.965 23.5974 30.0848 23.3675 30.2608 23.187C30.4368 23.0065 30.661 22.8836 30.9051 22.8338C31.1493 22.784 31.4023 22.8095 31.6323 22.9071C31.8623 23.0047 32.0589 23.17 32.1972 23.3821C32.3356 23.5943 32.4095 23.8437 32.4095 24.0989C32.4091 24.441 32.2764 24.769 32.0405 25.011C31.8045 25.2529 31.4846 25.3891 31.1509 25.3896Z" fill="white"/>
</svg>
