<svg width="33" height="36" viewBox="0 0 33 36" fill="none" xmlns="http://www.w3.org/2000/svg">
<path d="M32.4302 27.638H29.3389V23.8325C29.3483 22.9507 29.0718 22.089 28.5499 21.3733C28.0279 20.6577 27.2878 20.1255 26.4377 19.8546L20.1139 17.7733V15.7761C20.1137 15.7477 20.1113 15.7194 20.1068 15.6913C21.0246 14.9846 21.7118 14.0271 22.0827 12.9379H22.3163C22.7484 12.9383 23.1706 12.8104 23.5281 12.5709C23.8856 12.3315 24.1619 11.9914 24.3212 11.595C24.4805 11.1985 24.5154 10.7639 24.4214 10.3476C24.3273 9.93136 24.1086 9.5526 23.7938 9.26054C23.8082 9.22766 23.8195 9.19349 23.8274 9.15851C23.9236 8.72862 24.007 8.27897 24.0752 7.82194C24.0958 7.68398 24.1161 7.55475 24.1353 7.4324C24.3142 6.29404 24.4222 5.60701 23.7304 4.32127C22.9746 2.91807 21.8195 1.76378 20.4074 1.00061C18.9953 0.237448 17.3879 -0.101245 15.7832 0.0262633C14.1785 0.153772 12.6466 0.741911 11.3763 1.71822C10.1061 2.69452 9.15288 4.01634 8.6342 5.52081C8.62409 5.55021 8.61646 5.58038 8.61141 5.61102C8.39915 6.88952 8.59211 8.22666 9.18287 9.58644C8.96247 9.89535 8.82943 10.2567 8.79744 10.6332C8.76545 11.0097 8.83568 11.3878 9.00088 11.7287C9.16608 12.0695 9.42029 12.3607 9.73736 12.5724C10.0544 12.784 10.4229 12.9084 10.8049 12.9328C11.1837 14.036 11.8838 15.0043 12.8175 15.7164C12.84 15.7336 12.8633 15.7495 12.886 15.7662V17.7736L6.56226 19.8548C5.71214 20.1258 4.97206 20.658 4.45011 21.3736C3.92815 22.0893 3.65169 22.951 3.6611 23.8328V27.6383H2.12906V21.5226C2.12375 21.2747 2.18733 21.0301 2.3129 20.8154C2.43847 20.6007 2.62123 20.4241 2.84134 20.3046L7.23885 17.7983C7.48263 17.9856 7.77744 18.0969 8.08561 18.118C8.39378 18.139 8.70131 18.0689 8.9689 17.9165L10.7455 16.904C11.1021 16.7008 11.3623 16.366 11.4689 15.9733C11.5755 15.5806 11.5197 15.1622 11.3138 14.8102C11.1079 14.4581 10.7688 14.2012 10.371 14.096C9.97318 13.9907 9.54934 14.0458 9.1927 14.2491L7.41614 15.2616C7.14446 15.417 6.92682 15.65 6.79187 15.9299C6.65692 16.2098 6.61099 16.5234 6.66013 16.8296L2.27152 19.3302C1.87763 19.5478 1.55058 19.8663 1.32491 20.2522C1.09925 20.6381 0.983333 21.0769 0.989421 21.5225V27.638H0.56982C0.418694 27.638 0.273758 27.6972 0.166896 27.8027C0.0600344 27.9082 0 28.0513 0 28.2005V33.2073C0 33.3565 0.0600344 33.4996 0.166896 33.6051C0.273758 33.7106 0.418694 33.7698 0.56982 33.7698H2.0307V35.4375C2.0307 35.5867 2.09073 35.7298 2.19759 35.8352C2.30446 35.9407 2.44939 36 2.60052 36H30.3995C30.5506 36 30.6955 35.9407 30.8024 35.8352C30.9093 35.7298 30.9693 35.5867 30.9693 35.4375V33.7698H32.4302C32.5813 33.7698 32.7262 33.7106 32.8331 33.6051C32.94 33.4996 33 33.3565 33 33.2073V28.2005C33 28.0513 32.94 27.9082 32.8331 27.8027C32.7262 27.6972 32.5813 27.638 32.4302 27.638ZM7.79464 16.4836C7.80835 16.4319 7.83232 16.3833 7.86516 16.3408C7.89799 16.2982 7.93905 16.2625 7.98596 16.2357L9.76252 15.2232C9.82447 15.1878 9.89479 15.1692 9.96637 15.1693C10.0033 15.1693 10.04 15.174 10.0757 15.1833C10.1547 15.2039 10.2257 15.2473 10.2797 15.3078C10.3337 15.3683 10.3683 15.4434 10.3789 15.5233C10.3896 15.6033 10.376 15.6846 10.3398 15.7569C10.3035 15.8292 10.2463 15.8892 10.1754 15.9294L8.39887 16.9419C8.32821 16.9824 8.24695 17.0012 8.16541 16.996C8.08388 16.9908 8.00575 16.9618 7.94096 16.9127C7.87617 16.8635 7.82764 16.7965 7.80155 16.72C7.77546 16.6436 7.77298 16.5612 7.79443 16.4834L7.79464 16.4836ZM28.1995 23.8325V27.638H25.117V26.4062C25.117 26.257 25.0569 26.1139 24.9501 26.0084C24.8432 25.9029 24.6983 25.8437 24.5471 25.8437C24.396 25.8437 24.2511 25.9029 24.1442 26.0084C24.0374 26.1139 23.9773 26.257 23.9773 26.4062V27.638H19.1987L18.4508 24.5442L19.022 22.7124L20.9762 24.082C21.0615 24.1417 21.1617 24.1772 21.266 24.1845C21.3703 24.1917 21.4747 24.1705 21.5676 24.1232C21.6605 24.0758 21.7384 24.0041 21.7928 23.916C21.8472 23.8278 21.876 23.7266 21.876 23.6234V19.5392L26.0775 20.9219C26.6995 21.1202 27.2409 21.5096 27.6227 22.0333C28.0044 22.5569 28.2066 23.1874 28.1995 23.8325ZM17.4496 23.9314H15.5288L14.9385 22.0385L16.5 20.9439L18.0437 22.0261L17.4496 23.9314ZM15.5751 25.0564H17.4033L18.027 27.638H14.9514L15.5751 25.0564ZM20.7363 19.1642V22.5338L17.4841 20.254L19.5811 18.784L20.7363 19.1642ZM22.3469 11.8113C22.435 11.1428 22.4057 10.4643 22.2602 9.8056H22.3166C22.5836 9.80539 22.84 9.90894 23.0303 10.0939C23.2205 10.2788 23.3294 10.5302 23.3334 10.7937C23.3374 11.0573 23.2361 11.3118 23.0515 11.5022C22.8669 11.6927 22.6138 11.8037 22.3469 11.8113ZM9.72861 5.83869C10.1831 4.54878 11.0089 3.41775 12.1048 2.58418C13.2007 1.7506 14.5191 1.25068 15.8984 1.14568C17.2778 1.04067 18.6583 1.33513 19.8707 1.99299C21.0831 2.65084 22.0748 3.64352 22.7242 4.84939C23.2382 5.80466 23.1759 6.20095 23.0091 7.26028C22.9895 7.38522 22.9687 7.51741 22.9477 7.65832C22.8935 8.02191 22.8286 8.37931 22.7554 8.7251C22.6109 8.69547 22.4638 8.68056 22.3162 8.6806H21.9063C21.2055 6.38263 20.4194 5.19533 19.4381 4.95029C18.8222 4.79666 18.208 5.02025 17.6121 5.61489C17.5793 5.64768 17.5505 5.68433 17.5267 5.72401C16.3775 7.64095 14.3286 8.55762 11.4367 8.44638C11.3429 8.44344 11.2499 8.46326 11.1657 8.50409C11.0815 8.54493 11.0087 8.60553 10.9537 8.6806H10.9453C10.6576 8.6803 10.3728 8.73714 10.1078 8.84773C9.70689 7.80844 9.57846 6.79811 9.72861 5.83869ZM9.92955 10.8092C9.92989 10.6073 9.99182 10.4103 10.1073 10.2437C10.2227 10.0771 10.3863 9.94868 10.5768 9.87521C10.4623 10.4836 10.4435 11.1057 10.5212 11.7197C10.3448 11.6395 10.1954 11.5112 10.0905 11.3498C9.9857 11.1885 9.92984 11.0009 9.92955 10.8092ZM11.8186 9.58018C11.8482 9.58018 11.8776 9.58053 11.9071 9.58053C14.9516 9.58053 17.1575 8.49856 18.4694 6.3602C18.7411 6.10173 18.973 5.99458 19.159 6.0407C19.4121 6.10398 20.085 6.53493 20.8642 9.16604C20.8702 9.18619 20.8773 9.206 20.8856 9.22538C21.2953 10.1919 21.3699 11.2649 21.0977 12.2776C20.8255 13.2903 20.2218 14.1857 19.3805 14.8245C18.5393 15.4633 17.5078 15.8097 16.4464 15.8097C15.3851 15.8097 14.3535 15.4633 13.5123 14.8245C11.904 13.6036 11.2384 11.493 11.8186 9.58018ZM16.4464 16.9334C17.3203 16.9336 18.1836 16.744 18.9749 16.3779V17.8312C18.9678 17.8358 18.96 17.84 18.9528 17.8452L16.5 19.5642L14.0254 17.8294V16.4258C14.7875 16.7605 15.6123 16.9334 16.4464 16.9334ZM13.4192 18.784L15.5162 20.254L12.264 22.5338V19.1642L13.4192 18.784ZM4.80066 23.8324C4.79361 23.1873 4.99573 22.5569 5.37749 22.0332C5.75926 21.5095 6.30067 21.1201 6.9226 20.9218L11.1242 19.5391V23.6232C11.1243 23.7264 11.153 23.8276 11.2074 23.9158C11.2618 24.0039 11.3397 24.0756 11.4326 24.123C11.5256 24.1703 11.6299 24.1915 11.7342 24.1843C11.8385 24.177 11.9387 24.1415 12.024 24.0818L13.9602 22.7247L14.5275 24.5441L13.7796 27.6382H9.02268V26.4062C9.02268 26.257 8.96264 26.1139 8.85578 26.0084C8.74892 25.9029 8.60398 25.8437 8.45286 25.8437C8.30173 25.8437 8.15679 25.9029 8.04993 26.0084C7.94307 26.1139 7.88304 26.257 7.88304 26.4062V27.638H4.80052L4.80066 23.8324ZM29.8297 34.875H3.17034V33.7698H29.8297V34.875ZM31.8604 32.6448H1.13964V28.763H31.8601L31.8604 32.6448Z" fill="white"/>
</svg>
