<svg width="18" height="12" viewBox="0 0 18 12" fill="none" xmlns="http://www.w3.org/2000/svg">
<path d="M18 4.5C17.5833 4.52083 17.2292 4.66667 16.9375 4.9375C16.6667 5.22917 16.5208 5.58333 16.5 6C16.5208 6.41667 16.6667 6.77083 16.9375 7.0625C17.2292 7.33333 17.5833 7.47917 18 7.5V10C17.9792 10.5625 17.7812 11.0312 17.4062 11.4062C17.0312 11.7812 16.5625 11.9792 16 12H2C1.4375 11.9792 0.96875 11.7812 0.59375 11.4062C0.21875 11.0312 0.0208333 10.5625 0 10V7.5C0.416667 7.47917 0.770833 7.33333 1.0625 7.0625C1.33333 6.77083 1.47917 6.41667 1.5 6C1.47917 5.58333 1.33333 5.22917 1.0625 4.9375C0.770833 4.66667 0.416667 4.52083 0 4.5V2C0.0208333 1.4375 0.21875 0.96875 0.59375 0.59375C0.96875 0.21875 1.4375 0.0208333 2 0H16C16.5625 0.0208333 17.0312 0.21875 17.4062 0.59375C17.7812 0.96875 17.9792 1.4375 18 2V4.5ZM2 1C1.70833 1 1.46875 1.09375 1.28125 1.28125C1.09375 1.46875 1 1.70833 1 2V3.71875C1.45833 3.90625 1.82292 4.20833 2.09375 4.625C2.36458 5.02083 2.5 5.47917 2.5 6C2.5 6.52083 2.36458 6.97917 2.09375 7.375C1.82292 7.77083 1.45833 8.07292 1 8.28125V10C1 10.2917 1.09375 10.5312 1.28125 10.7188C1.46875 10.9062 1.70833 11 2 11H16C16.2917 11 16.5312 10.9062 16.7188 10.7188C16.9062 10.5312 17 10.2917 17 10V8.28125C16.5417 8.07292 16.1771 7.77083 15.9062 7.375C15.6354 6.97917 15.5 6.52083 15.5 6C15.5 5.47917 15.6354 5.02083 15.9062 4.625C16.1771 4.20833 16.5417 3.90625 17 3.71875V2C17 1.70833 16.9062 1.46875 16.7188 1.28125C16.5312 1.09375 16.2917 1 16 1H2Z" fill="#E32682"/>
</svg>
