<svg width="16" height="16" viewBox="0 0 16 16" fill="none" xmlns="http://www.w3.org/2000/svg">
<path d="M8.5 7.0625L10.7188 5.59375C10.9896 5.44792 11.2188 5.48958 11.4062 5.71875C11.5521 5.98958 11.5104 6.21875 11.2812 6.40625L8.28125 8.40625C8.09375 8.51042 7.92708 8.52083 7.78125 8.4375C7.59375 8.35417 7.5 8.19792 7.5 7.96875V3.46875C7.52083 3.17708 7.6875 3.01042 8 2.96875C8.3125 3.01042 8.47917 3.17708 8.5 3.46875V7.0625ZM16 8C15.9792 9.5 15.6146 10.8438 14.9062 12.0312C14.1979 13.2396 13.2396 14.1979 12.0312 14.9062C10.8438 15.6146 9.5 15.9792 8 16C6.5 15.9792 5.15625 15.6146 3.96875 14.9062C2.76042 14.1979 1.80208 13.2396 1.09375 12.0312C0.385417 10.8438 0.0208333 9.5 0 8C0.0208333 6.5 0.385417 5.15625 1.09375 3.96875C1.80208 2.76042 2.76042 1.80208 3.96875 1.09375C5.15625 0.385417 6.5 0.0208333 8 0C9.5 0.0208333 10.8438 0.385417 12.0312 1.09375C13.2396 1.80208 14.1979 2.76042 14.9062 3.96875C15.6146 5.15625 15.9792 6.5 16 8ZM8 1C6.6875 1.02083 5.51042 1.34375 4.46875 1.96875C3.40625 2.57292 2.57292 3.40625 1.96875 4.46875C1.34375 5.51042 1.02083 6.6875 1 8C1.02083 9.3125 1.34375 10.4896 1.96875 11.5312C2.57292 12.5938 3.40625 13.4271 4.46875 14.0312C5.51042 14.6562 6.6875 14.9792 8 15C9.3125 14.9792 10.4896 14.6562 11.5312 14.0312C12.5938 13.4271 13.4271 12.5938 14.0312 11.5312C14.6562 10.4896 14.9792 9.3125 15 8C14.9792 6.6875 14.6562 5.51042 14.0312 4.46875C13.4271 3.40625 12.5938 2.57292 11.5312 1.96875C10.4896 1.34375 9.3125 1.02083 8 1Z" fill="#E32682"/>
</svg>
