<svg width="12" height="16" viewBox="0 0 12 16" fill="none" xmlns="http://www.w3.org/2000/svg">
<path d="M8.5 6C8.47917 6.70833 8.23958 7.30208 7.78125 7.78125C7.30208 8.23958 6.70833 8.47917 6 8.5C5.29167 8.47917 4.69792 8.23958 4.21875 7.78125C3.76042 7.30208 3.52083 6.70833 3.5 6C3.52083 5.29167 3.76042 4.69792 4.21875 4.21875C4.69792 3.76042 5.29167 3.52083 6 3.5C6.70833 3.52083 7.30208 3.76042 7.78125 4.21875C8.23958 4.69792 8.47917 5.29167 8.5 6ZM6 7.5C6.41667 7.47917 6.77083 7.33333 7.0625 7.0625C7.33333 6.77083 7.47917 6.41667 7.5 6C7.47917 5.58333 7.33333 5.22917 7.0625 4.9375C6.77083 4.66667 6.41667 4.52083 6 4.5C5.58333 4.52083 5.22917 4.66667 4.9375 4.9375C4.66667 5.22917 4.52083 5.58333 4.5 6C4.52083 6.41667 4.66667 6.77083 4.9375 7.0625C5.22917 7.33333 5.58333 7.47917 6 7.5ZM12 6C11.9583 6.9375 11.625 8.02083 11 9.25C10.3542 10.4792 9.625 11.6667 8.8125 12.8125C8 13.9792 7.3125 14.9062 6.75 15.5938C6.54167 15.8438 6.29167 15.9688 6 15.9688C5.70833 15.9688 5.45833 15.8438 5.25 15.5938C4.6875 14.9062 3.98958 13.9792 3.15625 12.8125C2.34375 11.6667 1.625 10.4792 1 9.25C0.375 8.02083 0.0416667 6.9375 0 6C0.0416667 4.29167 0.625 2.875 1.75 1.75C2.875 0.625 4.29167 0.0416667 6 0C7.70833 0.0416667 9.125 0.625 10.25 1.75C11.375 2.875 11.9583 4.29167 12 6ZM6 1C4.58333 1.04167 3.40625 1.53125 2.46875 2.46875C1.53125 3.40625 1.04167 4.58333 1 6C1 6.5 1.17708 7.15625 1.53125 7.96875C1.88542 8.80208 2.33333 9.66667 2.875 10.5625C3.41667 11.4375 3.96875 12.25 4.53125 13C5.09375 13.7708 5.58333 14.4167 6 14.9375C6.41667 14.4167 6.90625 13.7708 7.46875 13C8.03125 12.25 8.58333 11.4375 9.125 10.5625C9.66667 9.66667 10.1146 8.80208 10.4688 7.96875C10.8229 7.15625 11 6.5 11 6C10.9583 4.58333 10.4688 3.40625 9.53125 2.46875C8.59375 1.53125 7.41667 1.04167 6 1Z" fill="#FF1F3C"/>
<path d="M8.5 6C8.47917 6.70833 8.23958 7.30208 7.78125 7.78125C7.30208 8.23958 6.70833 8.47917 6 8.5C5.29167 8.47917 4.69792 8.23958 4.21875 7.78125C3.76042 7.30208 3.52083 6.70833 3.5 6C3.52083 5.29167 3.76042 4.69792 4.21875 4.21875C4.69792 3.76042 5.29167 3.52083 6 3.5C6.70833 3.52083 7.30208 3.76042 7.78125 4.21875C8.23958 4.69792 8.47917 5.29167 8.5 6ZM6 7.5C6.41667 7.47917 6.77083 7.33333 7.0625 7.0625C7.33333 6.77083 7.47917 6.41667 7.5 6C7.47917 5.58333 7.33333 5.22917 7.0625 4.9375C6.77083 4.66667 6.41667 4.52083 6 4.5C5.58333 4.52083 5.22917 4.66667 4.9375 4.9375C4.66667 5.22917 4.52083 5.58333 4.5 6C4.52083 6.41667 4.66667 6.77083 4.9375 7.0625C5.22917 7.33333 5.58333 7.47917 6 7.5ZM12 6C11.9583 6.9375 11.625 8.02083 11 9.25C10.3542 10.4792 9.625 11.6667 8.8125 12.8125C8 13.9792 7.3125 14.9062 6.75 15.5938C6.54167 15.8438 6.29167 15.9688 6 15.9688C5.70833 15.9688 5.45833 15.8438 5.25 15.5938C4.6875 14.9062 3.98958 13.9792 3.15625 12.8125C2.34375 11.6667 1.625 10.4792 1 9.25C0.375 8.02083 0.0416667 6.9375 0 6C0.0416667 4.29167 0.625 2.875 1.75 1.75C2.875 0.625 4.29167 0.0416667 6 0C7.70833 0.0416667 9.125 0.625 10.25 1.75C11.375 2.875 11.9583 4.29167 12 6ZM6 1C4.58333 1.04167 3.40625 1.53125 2.46875 2.46875C1.53125 3.40625 1.04167 4.58333 1 6C1 6.5 1.17708 7.15625 1.53125 7.96875C1.88542 8.80208 2.33333 9.66667 2.875 10.5625C3.41667 11.4375 3.96875 12.25 4.53125 13C5.09375 13.7708 5.58333 14.4167 6 14.9375C6.41667 14.4167 6.90625 13.7708 7.46875 13C8.03125 12.25 8.58333 11.4375 9.125 10.5625C9.66667 9.66667 10.1146 8.80208 10.4688 7.96875C10.8229 7.15625 11 6.5 11 6C10.9583 4.58333 10.4688 3.40625 9.53125 2.46875C8.59375 1.53125 7.41667 1.04167 6 1Z" fill="#E32682"/>
</svg>
