<svg width="60" height="65" viewBox="0 0 60 65" fill="none" xmlns="http://www.w3.org/2000/svg">
<path d="M56.8961 34.6519H54.4857L47.772 17.5682C47.4539 16.7548 46.6972 16.2242 45.8582 16.2264H45.5168V11.7044C45.5191 10.8416 45.1917 10.0137 44.6075 9.40555L42.1031 6.77939C42.6674 5.54227 42.4284 4.06699 41.5061 3.09431L39.4373 0.926415C38.209 -0.301692 36.2763 -0.301692 35.048 0.926415C33.8364 2.19618 33.8364 4.25446 35.048 5.5241L37.117 7.69187C38.0424 8.67077 39.4603 8.92315 40.6425 8.31945L43.1469 10.9434C43.3401 11.1473 43.4489 11.4225 43.45 11.7097V16.2261H16.5516V11.7044C16.5527 11.4172 16.6615 11.142 16.8546 10.9381L19.3591 8.31411C20.5408 8.91807 21.9586 8.66556 22.8835 7.68653L24.9525 5.51877C26.1641 4.249 26.1641 2.19072 24.9525 0.921081C23.7242 -0.307027 21.7915 -0.307027 20.5632 0.921081L18.4942 3.08884C17.5693 4.06229 17.3297 5.54061 17.8963 6.77939L15.3919 9.40555C14.8077 10.0137 14.4803 10.8416 14.4826 11.7044V16.2263H14.1412C13.3022 16.2241 12.5455 16.7546 12.2274 17.568L5.51367 34.6519H3.10343C1.38951 34.6519 0 36.1078 0 37.9035V38.9873C0.00339437 41.9788 2.31714 44.403 5.17242 44.4067H25.862V57.413H18.6207C16.3354 57.413 14.4828 59.3541 14.4828 61.7484V62.8322C14.4828 64.0295 15.4091 65 16.5518 65H43.4482C44.5909 65 45.5172 64.0295 45.5172 62.8322V61.7484C45.5172 59.3541 43.6646 57.413 41.3793 57.413H34.138V44.4067H54.8276C57.6827 44.4031 59.9965 41.9789 60 38.9873V37.9035C59.9995 36.1077 58.6101 34.6519 56.8961 34.6519ZM38.5786 6.15397L36.5096 3.98621C36.2407 3.71401 36.1328 3.31112 36.2275 2.93211C36.3222 2.5531 36.6047 2.25728 36.9663 2.15808C37.328 2.05888 37.7126 2.17192 37.9723 2.45364L40.0413 4.62141C40.4376 5.04081 40.4409 5.71526 40.0486 6.13885L40.0342 6.14648L40.0269 6.15841C39.6195 6.55953 38.9839 6.55762 38.5786 6.15397ZM19.9581 4.62141L22.027 2.45364C22.2868 2.17192 22.6714 2.05888 23.0331 2.15808C23.3949 2.25728 23.6772 2.55322 23.7719 2.93211C23.8666 3.31112 23.7587 3.71401 23.4898 3.98621L21.4208 6.15397C21.0164 6.55851 20.3808 6.56194 19.9725 6.16159L19.9652 6.14648H19.9497C19.553 5.72161 19.5568 5.04132 19.9581 4.62141ZM14.1412 18.394H45.8582L52.2481 34.6519H7.75129L14.1412 18.394ZM43.448 61.7484V62.8322H16.5516V61.7484C16.5516 60.5512 17.4779 59.5807 18.6206 59.5807H41.379C42.5217 59.5807 43.448 60.5512 43.448 61.7484ZM32.0687 57.413H27.9308V44.4067H32.0687V57.413ZM57.9305 38.9873C57.9305 40.7831 56.541 42.2389 54.8271 42.2389H5.17229C3.45838 42.2389 2.06887 40.7831 2.06887 38.9873V37.9035C2.06887 37.3049 2.53208 36.8197 3.1033 36.8197H56.896C57.4673 36.8197 57.9304 37.3049 57.9304 37.9035V38.9873H57.9305Z" fill="#E32682"/>
<path fill-rule="evenodd" clip-rule="evenodd" d="M19.6546 20.5618H16.2192C15.7999 20.5616 15.422 20.8266 15.2623 21.2327L14.2174 23.8903C13.9997 24.444 14.2517 25.0778 14.7802 25.3059C15.3086 25.534 15.9135 25.27 16.1313 24.7163L16.9123 22.7295H19.6547C20.2261 22.7295 20.6892 22.2443 20.6892 21.6457C20.6892 21.0471 20.226 20.5618 19.6546 20.5618Z" fill="#E32682"/>
</svg>
