<svg width="60" height="65" viewBox="0 0 60 65" fill="none" xmlns="http://www.w3.org/2000/svg">
<path fill-rule="evenodd" clip-rule="evenodd" d="M45.1976 64.9999H13.3709C12.9566 64.9999 12.6552 64.7334 12.5046 64.3527L4.8963 41.6232C4.74564 41.1663 5.0093 40.6333 5.49894 40.481C5.95092 40.3287 6.47822 40.5571 6.62888 41.0521L14.0112 63.1344H44.5573L51.8643 41.0521C52.0526 40.5571 52.5799 40.3287 53.0319 40.481C53.5215 40.6333 53.7475 41.1663 53.5969 41.6232L46.0262 64.3527C45.9886 64.7334 45.6119 64.9999 45.1976 64.9999Z" fill="#E32682"/>
<path fill-rule="evenodd" clip-rule="evenodd" d="M57.3258 42.2703H1.24294C0.564972 42.2703 0 41.6992 0 41.052V37.2066C0 36.5213 0.564972 35.9883 1.24294 35.9883H57.3258C58.0038 35.9883 58.5311 36.5213 58.5311 37.2066V41.052C58.5311 41.7373 58.0038 42.2703 57.3258 42.2703ZM1.84557 40.4047H56.6855V37.7777H1.84557V40.4047Z" fill="#E32682"/>
<path fill-rule="evenodd" clip-rule="evenodd" d="M29.3032 59.0606C25.838 59.0606 23.0132 56.2051 23.0132 52.7405C23.0132 49.2378 25.838 46.3823 29.3032 46.3823C32.7307 46.3823 35.5556 49.2378 35.5556 52.7405C35.5556 56.2051 32.7307 59.0606 29.3032 59.0606ZM29.3032 48.2479C26.8173 48.2479 24.8588 50.2658 24.8588 52.7405C24.8588 55.2152 26.8173 57.2331 29.3032 57.2331C31.7514 57.2331 33.7476 55.2152 33.7476 52.7405C33.7476 50.2658 31.7514 48.2479 29.3032 48.2479Z" fill="#E32682"/>
<path fill-rule="evenodd" clip-rule="evenodd" d="M29.3029 30.8486C25.4611 30.8486 22.3726 27.7266 22.3726 23.8813C22.3726 23.3482 22.7869 22.9294 23.3142 22.9294C23.8415 22.9294 24.2558 23.3482 24.2558 23.8813C24.2558 26.6606 26.5157 28.983 29.3405 28.983C32.1654 28.983 34.463 26.7367 34.463 23.8813C34.463 23.3482 34.8773 22.9294 35.4046 22.9294C35.9319 22.9294 36.3462 23.3482 36.3462 23.8813C36.2332 27.6886 33.107 30.8486 29.3029 30.8486Z" fill="#E32682"/>
<path fill-rule="evenodd" clip-rule="evenodd" d="M42.4857 37.7779C41.9584 37.7779 41.5441 37.3591 41.5441 36.8261V29.8587C41.5441 27.0413 39.2842 24.7569 36.497 24.7569H22.0714C19.2842 24.7569 17.062 27.0413 17.062 29.8587V36.8261C17.062 37.3591 16.6476 37.7779 16.1203 37.7779C15.593 37.7779 15.1787 37.3591 15.1787 36.8261V29.8587C15.1787 26.0514 18.2672 22.9294 22.0337 22.9294H36.4593C40.2258 22.9294 43.3143 26.0514 43.3143 29.8587V36.8261C43.352 37.3591 42.9377 37.7779 42.4857 37.7779Z" fill="#E32682"/>
<path fill-rule="evenodd" clip-rule="evenodd" d="M29.4537 21.711C24.8963 21.711 21.1675 17.9417 21.1675 13.3349C21.1675 12.7638 21.2428 12.1166 21.3935 11.5074C21.4311 11.3932 21.5065 11.2409 21.5441 11.1267L24.256 7.35747C24.5196 7.01482 25.047 6.9006 25.4236 7.09096C29.868 9.45148 32.9942 6.82445 32.9942 6.78638C33.2202 6.63409 33.4085 6.51987 33.6722 6.59601C33.9358 6.63409 34.1618 6.74831 34.3125 6.93867L37.175 10.746C37.2503 10.8602 37.288 10.9744 37.3257 11.0886C37.5517 11.8501 37.6647 12.6115 37.6647 13.4111C37.7023 17.9798 34.0112 21.711 29.4537 21.711ZM23.126 12.0785C23.0131 12.5354 23.0131 12.9923 23.0131 13.3349C23.0131 16.9518 25.8756 19.8454 29.4537 19.8454C32.9942 19.8454 35.9321 16.9518 35.9321 13.3349C35.9321 12.8019 35.8944 12.307 35.7061 11.6978L33.4839 8.7281C32.1279 9.52763 29.1147 10.746 25.3483 9.07075L23.126 12.0785Z" fill="#E32682"/>
<path fill-rule="evenodd" clip-rule="evenodd" d="M22.7116 37.7779C22.1843 37.7779 21.77 37.3591 21.77 36.8261V31.039C21.77 30.544 22.1843 30.0872 22.7116 30.0872C23.2389 30.0872 23.6533 30.544 23.6533 31.039V36.8261C23.5779 37.3591 23.2389 37.7779 22.7116 37.7779Z" fill="#E32682"/>
<path fill-rule="evenodd" clip-rule="evenodd" d="M35.9319 37.7779C35.4045 37.7779 34.9902 37.3591 34.9902 36.8261V31.039C34.9902 30.544 35.4045 30.0872 35.9319 30.0872C36.4592 30.0872 36.8735 30.544 36.8735 31.039V36.8261C36.8358 37.3591 36.3838 37.7779 35.9319 37.7779Z" fill="#E32682"/>
<path fill-rule="evenodd" clip-rule="evenodd" d="M22.2979 12.6117C21.9589 12.6117 21.6576 12.4594 21.507 12.1929C21.394 11.9644 18.2678 6.7865 19.6614 0.694831C19.699 0.42832 19.925 0.237956 20.151 0.0856641C20.4147 -0.0285547 20.6407 -0.0285547 20.9043 0.0856641C23.2772 1.18978 24.4825 0.961341 26.1021 0.656758C26.554 0.542539 27.0437 0.42832 27.6086 0.390247C30.6972 0.00951823 36.0832 -0.0285547 37.6651 3.77874C37.7028 3.89296 37.7028 3.9691 37.7028 4.08332C37.7781 5.11129 38.0041 10.1369 37.2885 11.6979C37.1378 12.0406 36.8742 12.1929 36.5729 12.2309C36.2339 12.3071 35.9326 12.1167 35.7066 11.8502L33.3714 8.72822C32.0154 9.52775 29.0399 10.7461 25.2734 9.07087L23.0135 12.1929C22.8629 12.4974 22.5992 12.6117 22.2979 12.6117ZM21.2433 2.25582C20.7537 5.45395 21.6953 8.38556 22.4486 9.94655L24.2565 7.35759C24.5201 7.01494 25.0474 6.90072 25.4241 7.09108C29.8685 9.4516 32.9947 6.82457 32.9947 6.7865C33.2207 6.63421 33.409 6.51999 33.6727 6.59613C33.9363 6.63421 34.1623 6.74843 34.313 6.93879L35.9326 9.07087C36.0456 7.6241 35.9702 5.72046 35.9326 4.31176C34.6896 1.60858 29.4542 1.98931 27.8723 2.17967C27.4203 2.25582 26.9307 2.33197 26.4787 2.44619C24.9344 2.78884 23.4655 3.09343 21.2433 2.25582Z" fill="#E32682"/>
<path fill-rule="evenodd" clip-rule="evenodd" d="M23.6909 24.7568C23.4649 24.7568 23.2389 24.6426 23.0506 24.4903C22.7116 24.1476 22.7116 23.5385 23.0506 23.1958C23.126 23.1197 23.1636 23.0816 23.2013 23.0816C23.7286 22.7009 25.0092 21.5967 25.4235 19.8454C25.5365 19.3885 26.0261 19.0459 26.5158 19.1601C26.9678 19.2743 27.3067 19.8073 27.1937 20.2642C26.6288 22.5866 24.9339 24.0334 24.2559 24.5664C24.0676 24.7187 23.8416 24.7568 23.6909 24.7568Z" fill="#E32682"/>
<path fill-rule="evenodd" clip-rule="evenodd" d="M34.9529 24.757C34.7646 24.757 34.5762 24.719 34.4256 24.6047C34.3126 24.5667 32.2033 23.0818 31.4877 20.4929C31.3371 19.9979 31.6384 19.4649 32.128 19.3126C32.58 19.1603 33.1073 19.4649 33.258 19.9598C33.7853 21.9016 35.4425 23.0057 35.4425 23.0818C35.8945 23.3483 35.9698 23.9194 35.7062 24.3382C35.5178 24.6047 35.2165 24.757 34.9529 24.757Z" fill="#E32682"/>
<path fill-rule="evenodd" clip-rule="evenodd" d="M8.85114 37.7779H8.77581C8.2485 37.7018 7.90952 37.283 7.94718 36.7499L9.03946 23.234C9.03946 23.0056 9.15246 22.8152 9.37845 22.663L12.0903 20.1121C12.4293 19.7313 13.0319 19.8075 13.3709 20.1501C13.7476 20.5309 13.7099 21.102 13.3332 21.4827L10.885 23.7671L9.83042 36.9403C9.71743 37.3972 9.30312 37.7779 8.85114 37.7779Z" fill="#E32682"/>
<path fill-rule="evenodd" clip-rule="evenodd" d="M14.1621 22.4344C12.5049 22.4344 11.1489 21.0638 11.1489 19.3886C11.1489 17.6753 12.5049 16.2666 14.1621 16.2666C15.857 16.2666 17.213 17.6372 17.213 19.3886C17.213 21.0638 15.857 22.4344 14.1621 22.4344ZM14.1621 18.1702C13.5595 18.1702 12.9568 18.7413 12.9568 19.4267C12.9568 20.112 13.4841 20.645 14.1621 20.645C14.8401 20.645 15.3674 20.112 15.3674 19.4267C15.3674 18.7413 14.8401 18.1702 14.1621 18.1702Z" fill="#E32682"/>
<path fill-rule="evenodd" clip-rule="evenodd" d="M44.2563 21.7111C44.0303 21.7111 43.842 21.6349 43.6537 21.4826C43.4277 21.2923 43.3147 20.9115 43.3523 20.607L44.1433 16.5712C42.4861 14.8199 41.5444 12.4594 41.5444 10.0608C41.5444 4.92092 45.6499 0.694824 50.7723 0.694824C55.857 0.694824 60.0002 4.88285 60.0002 10.0608C60.0002 15.2006 55.857 19.3886 50.7723 19.3886C50.5087 19.3886 50.3203 19.3886 50.0943 19.3886L44.6706 21.6349C44.52 21.6349 44.407 21.7111 44.2563 21.7111ZM50.7346 2.5604C46.6668 2.5604 43.3147 5.94889 43.3147 10.0608C43.3147 12.1167 44.181 14.1346 45.7252 15.6194C45.9135 15.8478 46.0265 16.1524 45.9889 16.457L45.4616 19.2744L49.5294 17.5611C49.68 17.5231 49.8307 17.485 49.9813 17.5231C50.2073 17.5611 50.4333 17.5611 50.697 17.5611C54.7648 17.5611 58.0416 14.2488 58.0416 10.1369C58.1169 5.94889 54.8024 2.5604 50.7346 2.5604Z" fill="#E32682"/>
<path fill-rule="evenodd" clip-rule="evenodd" d="M54.0114 7.09117H47.759C47.2317 7.09117 46.8174 6.67237 46.8174 6.21549C46.8174 5.72055 47.2317 5.26367 47.759 5.26367H54.0114C54.5387 5.26367 54.953 5.68247 54.953 6.21549C54.953 6.74852 54.501 7.09117 54.0114 7.09117Z" fill="#E32682"/>
<path fill-rule="evenodd" clip-rule="evenodd" d="M54.0114 11.2791H47.759C47.2317 11.2791 46.8174 10.8603 46.8174 10.3273C46.8174 9.79429 47.2317 9.37549 47.759 9.37549H54.0114C54.5387 9.37549 54.953 9.79429 54.953 10.3273C54.953 10.8603 54.501 11.2791 54.0114 11.2791Z" fill="#E32682"/>
<path fill-rule="evenodd" clip-rule="evenodd" d="M54.0114 15.391H47.759C47.2317 15.391 46.8174 14.9721 46.8174 14.4391C46.8174 13.9442 47.2317 13.4873 47.759 13.4873H54.0114C54.5387 13.4873 54.953 13.9442 54.953 14.4391C54.953 14.9721 54.501 15.391 54.0114 15.391Z" fill="#E32682"/>
</svg>
