<svg width="15" height="15" viewBox="0 0 15 15" fill="none" xmlns="http://www.w3.org/2000/svg">
<path d="M0.792969 9.10547C0.519531 9.23307 0.31901 9.42448 0.191406 9.67969C0.0638021 9.9349 0.0273438 10.2083 0.0820312 10.5L0.683594 13.0977C0.75651 13.3893 0.902344 13.6172 1.12109 13.7812C1.33984 13.9635 1.59505 14.0547 1.88672 14.0547C4.14714 14.0365 6.1888 13.4805 8.01172 12.3867C9.85286 11.3112 11.3112 9.85286 12.3867 8.01172C13.4805 6.1888 14.0365 4.14714 14.0547 1.88672C14.0547 1.59505 13.9635 1.33984 13.7812 1.12109C13.6172 0.902344 13.3893 0.75651 13.0977 0.683594L10.5 0.0820312C10.2083 0.0273438 9.9349 0.0638021 9.67969 0.191406C9.42448 0.31901 9.23307 0.519531 9.10547 0.792969L7.90234 3.58203C7.70182 4.14714 7.82031 4.63021 8.25781 5.03125L9.35156 5.93359C8.54948 7.41016 7.41016 8.54948 5.93359 9.35156L5.03125 8.25781C4.63021 7.82031 4.14714 7.70182 3.58203 7.90234L0.792969 9.10547ZM1.53125 12.9062L0.929688 10.3086C0.911458 10.1263 0.984375 9.98958 1.14844 9.89844L3.9375 8.69531C4.10156 8.64062 4.23828 8.67708 4.34766 8.80469L5.49609 10.1992C5.64193 10.3633 5.8151 10.3997 6.01562 10.3086C6.94531 9.85286 7.77474 9.2513 8.50391 8.50391C9.2513 7.77474 9.85286 6.94531 10.3086 6.01562C10.3997 5.8151 10.3633 5.64193 10.1992 5.49609L8.80469 4.34766C8.67708 4.23828 8.64062 4.10156 8.69531 3.9375L9.89844 1.14844C9.97135 1.0026 10.0807 0.929688 10.2266 0.929688C10.263 0.929688 10.2904 0.929688 10.3086 0.929688L12.9062 1.53125C13.0703 1.58594 13.1615 1.70443 13.1797 1.88672C13.1615 3.98307 12.651 5.87891 11.6484 7.57422C10.6276 9.26953 9.26953 10.6276 7.57422 11.6484C5.87891 12.651 3.98307 13.1615 1.88672 13.1797C1.70443 13.1615 1.58594 13.0703 1.53125 12.9062Z" fill="#000D44"/>
</svg>
