<svg width="13" height="14" viewBox="0 0 13 14" fill="none" xmlns="http://www.w3.org/2000/svg">
<path d="M6.125 7C5.14062 6.98177 4.3112 6.64453 3.63672 5.98828C2.98047 5.3138 2.64323 4.48438 2.625 3.5C2.64323 2.51562 2.98047 1.6862 3.63672 1.01172C4.3112 0.355469 5.14062 0.0182292 6.125 0C7.10938 0.0182292 7.9388 0.355469 8.61328 1.01172C9.26953 1.6862 9.60677 2.51562 9.625 3.5C9.60677 4.48438 9.26953 5.3138 8.61328 5.98828C7.9388 6.64453 7.10938 6.98177 6.125 7ZM6.125 0.875C5.3776 0.893229 4.75781 1.14844 4.26562 1.64062C3.77344 2.13281 3.51823 2.7526 3.5 3.5C3.51823 4.2474 3.77344 4.86719 4.26562 5.35938C4.75781 5.85156 5.3776 6.10677 6.125 6.125C6.8724 6.10677 7.49219 5.85156 7.98438 5.35938C8.47656 4.86719 8.73177 4.2474 8.75 3.5C8.73177 2.7526 8.47656 2.13281 7.98438 1.64062C7.49219 1.14844 6.8724 0.893229 6.125 0.875ZM7.51953 8.3125C8.85026 8.34896 9.96224 8.8138 10.8555 9.70703C11.7487 10.6003 12.2135 11.7122 12.25 13.043C12.25 13.3164 12.1589 13.5443 11.9766 13.7266C11.7943 13.9089 11.5664 14 11.293 14H0.957031C0.683594 14 0.455729 13.9089 0.273438 13.7266C0.0911458 13.5443 0 13.3164 0 13.043C0.0364583 11.7122 0.501302 10.6003 1.39453 9.70703C2.28776 8.8138 3.39974 8.34896 4.73047 8.3125H7.51953ZM11.293 13.125C11.3477 13.125 11.375 13.0977 11.375 13.043C11.3385 11.9492 10.9648 11.0378 10.2539 10.3086C9.52474 9.59766 8.61328 9.22396 7.51953 9.1875H4.73047C3.63672 9.22396 2.72526 9.59766 1.99609 10.3086C1.28516 11.0378 0.911458 11.9492 0.875 13.043C0.875 13.0977 0.902344 13.125 0.957031 13.125H11.293Z" fill="#000D44"/>
</svg>
