<svg width="15" height="15" viewBox="0 0 15 15" fill="none" xmlns="http://www.w3.org/2000/svg">
<path d="M13.5898 1.61328C13.8815 1.92318 14.0273 2.27865 14.0273 2.67969C14.0273 3.09896 13.8815 3.46354 13.5898 3.77344L5.03125 12.332C4.72135 12.6419 4.35677 12.8607 3.9375 12.9883L0.628906 13.9453C0.446615 14 0.300781 13.9635 0.191406 13.8359C0.0638021 13.7266 0.0273438 13.5898 0.0820312 13.4258L1.03906 10.1172C1.16667 9.67969 1.38542 9.30599 1.69531 8.99609L10.2539 0.4375C10.5638 0.145833 10.9284 0 11.3477 0C11.7487 0 12.1042 0.145833 12.4141 0.4375L13.5898 1.61328ZM9.37891 2.54297L11.4844 4.62109L12.9609 3.14453C13.2161 2.83464 13.2161 2.52474 12.9609 2.21484L11.8125 1.06641C11.5026 0.811198 11.1927 0.811198 10.8828 1.06641L9.37891 2.54297ZM8.75 3.17188L2.32422 9.59766C2.1237 9.81641 1.97786 10.0716 1.88672 10.3633L1.14844 12.8789L3.66406 12.1406C3.95573 12.0495 4.21094 11.9036 4.42969 11.7031L10.8281 5.27734L8.75 3.17188Z" fill="#000D44"/>
</svg>
