<svg width="14" height="11" viewBox="0 0 14 11" fill="none" xmlns="http://www.w3.org/2000/svg">
<path d="M0 1.75C0.0182292 1.25781 0.191406 0.847656 0.519531 0.519531C0.847656 0.191406 1.25781 0.0182292 1.75 0H12.25C12.7422 0.0182292 13.1523 0.191406 13.4805 0.519531C13.8086 0.847656 13.9818 1.25781 14 1.75V8.75C13.9818 9.24219 13.8086 9.65234 13.4805 9.98047C13.1523 10.3086 12.7422 10.4818 12.25 10.5H1.75C1.25781 10.4818 0.847656 10.3086 0.519531 9.98047C0.191406 9.65234 0.0182292 9.24219 0 8.75V1.75ZM0.875 1.75V2.84375L6.23438 6.75391C6.74479 7.10026 7.25521 7.10026 7.76562 6.75391L13.125 2.84375V1.75C13.125 1.49479 13.043 1.28516 12.8789 1.12109C12.7148 0.957031 12.5052 0.875 12.25 0.875H1.72266C1.48568 0.875 1.28516 0.957031 1.12109 1.12109C0.957031 1.28516 0.865885 1.49479 0.847656 1.75H0.875ZM0.875 3.9375V8.75C0.875 9.00521 0.957031 9.21484 1.12109 9.37891C1.28516 9.54297 1.49479 9.625 1.75 9.625H12.25C12.5052 9.625 12.7148 9.54297 12.8789 9.37891C13.043 9.21484 13.125 9.00521 13.125 8.75V3.9375L8.28516 7.46484C7.90234 7.75651 7.47396 7.90234 7 7.90234C6.52604 7.90234 6.09766 7.75651 5.71484 7.46484L0.875 3.9375Z" fill="#000D44"/>
</svg>
