<svg width="60" height="60" viewBox="0 0 60 60" fill="none" xmlns="http://www.w3.org/2000/svg">
<path d="M46.4516 45.4838C48.0522 45.4838 49.3548 44.1812 49.3548 42.5806C49.3548 40.9799 48.0522 39.6774 46.4516 39.6774C44.8509 39.6774 43.5483 40.9799 43.5483 42.5806C43.5483 44.1812 44.8509 45.4838 46.4516 45.4838ZM46.4516 41.6129C46.9848 41.6129 47.4193 42.0464 47.4193 42.5806C47.4193 43.1148 46.9848 43.5483 46.4516 43.5483C45.9183 43.5483 45.4838 43.1148 45.4838 42.5806C45.4838 42.0464 45.9183 41.6129 46.4516 41.6129Z" fill="#E32682"/>
<path d="M56.2839 38.4948C55.9906 37.7923 56.1465 36.9939 56.6797 36.4597L58.0877 35.0506L53.9806 30.9435L52.5706 32.3526C52.0374 32.8868 51.2381 33.0416 50.4987 32.7319C49.8039 32.4455 49.3548 31.7739 49.3548 31.021V29.0323H47.37C47.2819 27.4713 46.9926 25.9626 46.5126 24.5332L57.7113 13.3345C59.1871 11.8587 60 9.8971 60 7.81065C60 3.50419 56.4958 0 52.1894 0C50.1029 0 48.1413 0.812903 46.6665 2.28774L35.4794 13.4758C34.0326 12.99 32.4987 12.7074 30.9145 12.6232C29.579 10.29 27.0697 8.70968 24.1935 8.70968C23.4571 8.70968 22.7468 8.82 22.0703 9.01258C20.4 5.87226 17.1552 3.87097 13.5484 3.87097C8.21226 3.87097 3.87097 8.21226 3.87097 13.5484C3.87097 14.2897 3.96194 15.0194 4.12742 15.7335C1.74194 16.4555 0 18.6726 0 21.2903C0 24.4926 2.60419 27.0968 5.80645 27.0968H12.8265C12.6658 28.0539 12.5806 29.0255 12.5806 30C12.5806 32.13 12.9745 33.8632 13.6103 35.3439L4.9771 43.9781L0.173226 56.4677C0.0580645 56.7658 0 57.0794 0 57.3997C0 58.8339 1.1671 60 2.60032 60C2.92064 60 3.23419 59.941 3.53323 59.8268L16.0229 55.0229L22.3355 48.7094C22.2881 48.9174 22.2581 49.1323 22.2581 49.3548C22.2581 50.101 22.5494 50.7755 23.0129 51.2903C22.5484 51.8052 22.2581 52.4797 22.2581 53.2258C22.2581 54.571 23.1823 55.6955 24.4258 56.0226C25.2503 58.3839 27.4587 60 30 60C32.5413 60 34.7497 58.3839 35.5742 56.0226C36.8177 55.6955 37.7419 54.571 37.7419 53.2258C37.7419 53.1532 37.7255 53.0855 37.7206 53.0148L38.9226 54.2168L40.3326 52.8077C40.8658 52.2735 41.6623 52.1177 42.4035 52.4264C43.0984 52.7158 43.5484 53.3874 43.5484 54.1403V56.129H49.3548V54.1403C49.3548 53.3874 49.8048 52.7148 50.5374 52.4119C51.24 52.1197 52.0384 52.2735 52.5716 52.8077L53.9806 54.2168L58.0877 50.1097L56.6797 48.7006C56.1465 48.1665 55.9906 47.3681 56.2994 46.6287C56.5868 45.9339 57.2584 45.4839 58.0113 45.4839H60V39.6774H58.0113C57.2584 39.6774 56.5868 39.2274 56.2839 38.4948ZM41.7832 41.3477C42.839 40.3171 43.8968 39.2642 44.8094 38.0468C45.3358 37.8552 45.8835 37.7419 46.4516 37.7419C49.1197 37.7419 51.2903 39.9126 51.2903 42.5806C51.2903 45.2487 49.1197 47.4194 46.4516 47.4194C43.7835 47.4194 41.6129 45.2487 41.6129 42.5806C41.6129 42.1616 41.6777 41.7494 41.7832 41.3477ZM42.9455 18.4239L47.4194 13.949L50.8897 17.4194L45.721 22.5881C44.9961 21.0668 44.0594 19.6674 42.9455 18.4239ZM43.949 7.74194L45.4839 6.2071L53.7929 14.5161L52.2581 16.051L43.949 7.74194ZM52.1894 1.93548C55.4284 1.93548 58.0645 4.57161 58.0645 7.81065C58.0645 9.37935 57.4539 10.8552 56.3439 11.9652L55.1613 13.1477L46.8523 4.83871L48.0348 3.65613C49.1448 2.5471 50.6197 1.93548 52.1894 1.93548ZM42.5806 9.11032L46.051 12.5806L41.579 17.0526C40.3364 15.9377 38.9381 15 37.4168 14.2742L42.5806 9.11032ZM45.4839 30C45.4839 35.0352 42.9484 37.5087 40.2639 40.1264C38.4155 41.9294 36.5168 43.7932 35.4116 46.5097C35.2268 46.4719 35.0352 46.4516 34.8387 46.4516H30.9677V41.6129C30.9677 40.0123 29.6652 38.7097 28.0645 38.7097H26.129C25.5958 38.7097 25.1613 38.2761 25.1613 37.7419C25.1613 37.2077 25.5958 36.7742 26.129 36.7742H35.8064C37.4071 36.7742 38.7097 35.4716 38.7097 33.871C38.7097 32.2703 37.4071 30.9677 35.8064 30.9677H28.0645C27.5313 30.9677 27.0968 30.5342 27.0968 30V27.0968H31.9355C34.6035 27.0968 36.7742 24.9261 36.7742 22.2581C36.7742 19.59 34.6035 17.4194 31.9355 17.4194C31.9084 17.4194 31.8832 17.4271 31.8561 17.4271C31.8977 17.1039 31.9355 16.7806 31.9355 16.4516C31.9355 15.8187 31.8503 15.2061 31.7071 14.6168C39.4219 15.4761 45.4839 22.0974 45.4839 30ZM24.1935 49.3548C24.1935 48.8206 24.6281 48.3871 25.1613 48.3871H34.8387C35.3719 48.3871 35.8064 48.8206 35.8064 49.3548C35.8064 49.889 35.3719 50.3226 34.8387 50.3226H25.1613C24.6281 50.3226 24.1935 49.889 24.1935 49.3548ZM12.0135 49.3548L19.1274 42.241C20.3177 43.4216 21.4229 44.6158 22.2377 46.0703L15.4839 52.8252L12.0135 49.3548ZM1.93548 21.2903C1.93548 19.1555 3.67161 17.4194 5.80645 17.4194C7.94129 17.4194 9.67742 19.1555 9.67742 21.2903H11.6129C11.6129 18.1723 9.14032 15.6271 6.05419 15.4965C5.88968 14.8635 5.80645 14.2103 5.80645 13.5484C5.80645 9.27968 9.27968 5.80645 13.5484 5.80645C16.379 5.80645 18.9339 7.34516 20.2926 9.77516C18.2294 10.9858 16.7719 13.1177 16.5 15.6058C14.8103 16.0219 13.5484 17.5384 13.5484 19.3548H15.4839C15.4839 18.2874 16.3519 17.4194 17.4194 17.4194C18.4868 17.4194 19.3548 18.2874 19.3548 19.3548H21.2903C21.2903 17.579 20.0826 16.0955 18.45 15.6406C18.8468 12.8226 21.2671 10.6452 24.1935 10.6452C27.3958 10.6452 30 13.2494 30 16.4516C30 16.9606 29.9168 17.459 29.7871 17.9448C28.2 18.7394 27.0968 20.3652 27.0968 22.2581H29.0323C29.0323 20.6574 30.3348 19.3548 31.9355 19.3548C33.5361 19.3548 34.8387 20.6574 34.8387 22.2581C34.8387 23.8587 33.5361 25.1613 31.9355 25.1613H5.80645C3.67161 25.1613 1.93548 23.4252 1.93548 21.2903ZM25.1613 27.0968V30C25.1613 31.6006 26.4639 32.9032 28.0645 32.9032H35.8064C36.3397 32.9032 36.7742 33.3368 36.7742 33.871C36.7742 34.4052 36.3397 34.8387 35.8064 34.8387H26.129C24.5284 34.8387 23.2258 36.1413 23.2258 37.7419C23.2258 39.3426 24.5284 40.6452 26.129 40.6452H28.0645C28.5977 40.6452 29.0323 41.0787 29.0323 41.6129V46.4516H25.1613C24.9648 46.4516 24.7732 46.4719 24.5884 46.5097C23.4832 43.7932 21.5845 41.9294 19.7361 40.1264C17.0516 37.5087 14.5161 35.0352 14.5161 30C14.5161 29.0216 14.6332 28.0519 14.8142 27.0968H25.1613ZM17.7455 40.8861L10.6452 47.9865L7.17484 44.5161L14.5587 37.1323C15.4674 38.5587 16.5939 39.749 17.7455 40.8861ZM6.17516 46.2532L13.7468 53.8248L7.33645 56.2906L3.70935 52.6635L6.17516 46.2532ZM2.83935 58.02C2.42032 58.1826 1.93548 57.8487 1.93548 57.3997C1.93548 57.3174 1.95097 57.2371 1.97903 57.1616L2.94871 54.6397L5.35935 57.0503L2.83935 58.02ZM30 58.0645C28.5706 58.0645 27.2961 57.3039 26.5897 56.129H33.4103C32.7039 57.3039 31.4294 58.0645 30 58.0645ZM34.8387 54.1935H25.1613C24.6281 54.1935 24.1935 53.76 24.1935 53.2258C24.1935 52.6916 24.6281 52.2581 25.1613 52.2581H34.8387C35.3719 52.2581 35.8064 52.6916 35.8064 53.2258C35.8064 53.76 35.3719 54.1935 34.8387 54.1935ZM58.0645 43.5484H58.0113C56.4716 43.5484 55.0974 44.4677 54.4974 45.9213C53.9013 47.3506 54.2206 48.9784 55.3103 50.069L55.351 50.1097L53.9806 51.48L53.94 51.4394C52.8484 50.3477 51.2187 50.0274 49.7603 50.639C48.3387 51.2274 47.4194 52.6006 47.4194 54.1403V54.1935H45.4839V54.1403C45.4839 52.6006 44.5645 51.2264 43.111 50.6255C41.6797 50.0284 40.0519 50.3487 38.9623 51.4394L38.9216 51.48L37.6103 50.1687C37.6877 49.9084 37.7419 49.6394 37.7419 49.3548C37.7419 48.6677 37.4923 48.0445 37.0916 47.5461C37.6935 45.9213 38.6371 44.6216 39.7355 43.4216C40.1516 46.7603 43.0016 49.3548 46.4516 49.3548C50.1871 49.3548 53.2258 46.3152 53.2258 42.5806C53.2258 38.8461 50.1871 35.8064 46.4516 35.8064C46.3568 35.8064 46.2648 35.8161 46.171 35.82C46.8261 34.4603 47.2761 32.8839 47.3894 30.9677H47.4194V31.021C47.4194 32.5606 48.3387 33.9358 49.7913 34.5348C51.2197 35.1329 52.8494 34.8135 53.94 33.7219L53.9806 33.6813L55.351 35.0516L55.3103 35.0923C54.2206 36.1829 53.9013 37.8116 54.51 39.271C55.0974 40.6936 56.4716 41.6129 58.0113 41.6129H58.0645V43.5484Z" fill="#E32682"/>
</svg>
