<svg width="66" height="60" viewBox="0 0 66 60" fill="none" xmlns="http://www.w3.org/2000/svg">
<path d="M33.0991 59.5764C32.5276 59.5764 32.0679 59.1096 32.0679 58.5391V15.7282C32.0679 15.1534 32.5319 14.6909 33.0991 14.6909C33.6663 14.6909 34.1304 15.1577 34.1304 15.7282V58.5391C34.1304 59.1139 33.6663 59.5764 33.0991 59.5764Z" fill="#E32682"/>
<path d="M50.7894 34.3351H15.3359C14.7645 34.3351 14.3047 33.8683 14.3047 33.2978C14.3047 32.7273 14.7687 32.2605 15.3359 32.2605H50.7894C51.3609 32.2605 51.8207 32.7273 51.8207 33.2978C51.8207 33.8683 51.3609 34.3351 50.7894 34.3351Z" fill="#E32682"/>
<path d="M8.39142 28.3144C8.30978 28.3144 8.22814 28.3058 8.1508 28.2841C7.5965 28.1502 7.25705 27.5883 7.39025 27.0307C7.88009 24.982 8.61916 22.9938 9.58166 21.118C9.84806 20.5994 10.136 20.0807 10.4367 19.575C12.6582 15.871 15.7777 12.7331 19.4602 10.4985C21.3895 9.32723 23.4563 8.41093 25.609 7.77558C26.1547 7.61566 26.7305 7.92685 26.8895 8.47576C27.0527 9.02468 26.7391 9.60384 26.1934 9.76376C24.2082 10.3516 22.3004 11.1987 20.5258 12.2749C17.1313 14.3366 14.2524 17.2281 12.2027 20.6469C11.9235 21.1094 11.657 21.5891 11.4121 22.0689C10.527 23.7978 9.84806 25.6304 9.39259 27.5191C9.28087 27.9946 8.85548 28.3144 8.39142 28.3144Z" fill="#E32682"/>
<path d="M57.9348 28.9022C57.4579 28.9022 57.0325 28.5694 56.9294 28.0853C56.4825 25.9977 55.7563 23.975 54.7852 22.0775C54.5403 21.5978 54.2739 21.118 53.9946 20.6556C51.945 17.2411 49.0704 14.3452 45.6716 12.2836C43.897 11.2074 41.9891 10.3602 40.004 9.7724C39.4583 9.60816 39.1446 9.03332 39.3079 8.48441C39.4712 7.93549 40.0427 7.61998 40.5884 7.78422C42.7411 8.4239 44.8122 9.34019 46.7415 10.5072C50.4239 12.7417 53.5434 15.8796 55.7649 19.5837C56.0657 20.0894 56.3536 20.608 56.62 21.1267C57.677 23.1883 58.4591 25.384 58.9489 27.6488C59.0692 28.2107 58.7169 28.7596 58.1583 28.8806C58.0809 28.8936 58.0079 28.9022 57.9348 28.9022Z" fill="#E32682"/>
<path d="M33.0986 59.9006C33.0685 59.9006 33.0427 59.9006 33.0127 59.9006C28.226 59.8877 23.5381 58.5694 19.456 56.0928C15.7736 53.8583 12.6541 50.7204 10.4326 47.0163C10.1318 46.5106 9.84392 45.992 9.57752 45.4733C9.0447 44.436 8.57635 43.3511 8.18533 42.2533C7.99197 41.713 8.27127 41.1209 8.80838 40.9264C9.34549 40.7319 9.93416 41.0129 10.1275 41.5531C10.4885 42.5645 10.9181 43.5629 11.408 44.5181C11.6529 44.9979 11.9193 45.4776 12.1986 45.9401C14.2482 49.3546 17.1228 52.2504 20.5217 54.3121C24.2814 56.5942 28.6041 57.8087 33.0213 57.8217H33.0342H33.0943C33.0943 57.8217 33.1373 57.8217 33.1545 57.8217H33.1674C37.5845 57.8087 41.9072 56.5942 45.667 54.3121C49.0615 52.2504 51.9404 49.3589 53.99 45.9401C54.2693 45.4733 54.5357 44.9979 54.7806 44.5181C55.1802 43.7358 55.5412 42.9276 55.8549 42.1107C56.0611 41.5747 56.6584 41.3111 57.1869 41.5142C57.7197 41.7217 57.9818 42.3225 57.7799 42.8541C57.4404 43.7401 57.0451 44.6218 56.6154 45.469C56.349 45.9876 56.0611 46.5063 55.7603 47.012C53.5388 50.7161 50.4193 53.8539 46.7369 56.0885C42.6592 58.5651 37.9713 59.879 33.1803 59.8963C33.1545 59.9006 33.1244 59.9006 33.0986 59.9006Z" fill="#E32682"/>
<path d="M33.0987 59.9006C33.0687 59.9006 33.0386 59.9006 33.0085 59.9006C29.5065 59.8574 26.2194 57.2468 23.7573 52.553C22.6487 50.4438 21.7421 47.9888 21.0589 45.2529C20.1265 41.5315 19.6538 37.5076 19.6538 33.2978C19.6538 33.0947 19.6538 32.8872 19.6581 32.6581C19.7054 28.6774 20.1737 24.8696 21.0589 21.3384C22.1288 17.0725 23.753 13.4635 25.764 10.9005C26.1163 10.451 26.7651 10.3732 27.212 10.7276C27.6589 11.082 27.7362 11.7346 27.3839 12.1841C25.5534 14.5181 24.0581 17.8591 23.0612 21.8441C22.2147 25.2154 21.7679 28.859 21.7206 32.6797C21.7163 32.8959 21.7163 33.099 21.7163 33.2935C21.7163 37.2785 22.1804 41.2333 23.0612 44.7428C23.7058 47.3188 24.5565 49.6182 25.5878 51.5805C27.6847 55.5698 30.3315 57.7871 33.0429 57.8217H33.1073H33.1675C35.8788 57.7871 38.5257 55.5698 40.6226 51.5805C41.6538 49.6182 42.5003 47.3188 43.1448 44.7428C44.0214 41.2376 44.4897 37.2785 44.4897 33.2935C44.4897 33.099 44.4897 32.8959 44.4854 32.6797C44.4425 28.859 43.9913 25.2154 43.1448 21.8441C42.1436 17.8634 40.6483 14.5267 38.8179 12.1928C38.4655 11.7433 38.5429 11.0906 38.9897 10.7362C39.4366 10.3818 40.0854 10.4596 40.4378 10.9091C42.4487 13.4721 44.0729 17.0811 45.1429 21.3471C46.028 24.874 46.5007 28.6818 46.5436 32.6625C46.5479 32.8872 46.5479 33.0947 46.5479 33.3021C46.5479 37.5119 46.0753 41.5358 45.1429 45.2572C44.4597 47.9931 43.5487 50.4481 42.4444 52.5573C39.978 57.2511 36.6952 59.8617 33.1933 59.9049C33.1589 59.9006 33.1288 59.9006 33.0987 59.9006Z" fill="#E32682"/>
<path d="M55.7002 46.0395H10.4971C9.92559 46.0395 9.46582 45.5727 9.46582 45.0022C9.46582 44.4316 9.92988 43.9648 10.4971 43.9648H55.7002C56.2717 43.9648 56.7314 44.4316 56.7314 45.0022C56.7314 45.5727 56.2674 46.0395 55.7002 46.0395Z" fill="#E32682"/>
<path d="M55.7002 22.6351H10.4971C9.92559 22.6351 9.46582 22.1683 9.46582 21.5977C9.46582 21.0272 9.92988 20.5604 10.4971 20.5604H55.7002C56.2717 20.5604 56.7314 21.0272 56.7314 21.5977C56.7314 22.1683 56.2674 22.6351 55.7002 22.6351Z" fill="#E32682"/>
<path d="M10.5189 60C9.28141 60 8.30602 59.6456 7.60563 58.9454C6.49703 57.8303 6.265 56.0193 6.91383 53.5643C7.46813 51.4681 8.65406 48.9051 10.4373 45.9444C10.7338 45.456 11.3654 45.3004 11.8552 45.5943C12.3408 45.8925 12.4955 46.5279 12.2033 47.0206C10.5447 49.7695 9.40602 52.2158 8.91188 54.096C8.47789 55.7384 8.53375 56.9399 9.06656 57.4759C9.59938 58.0118 10.7939 58.068 12.4267 57.6315C14.2959 57.1301 16.7279 55.9847 19.4607 54.3164C25.2056 50.8111 31.9603 45.2701 38.483 38.7091C45.0056 32.1481 50.5185 25.3537 53.999 19.575C55.6576 16.8261 56.7962 14.3798 57.2947 12.4997C57.7287 10.8572 57.6728 9.65568 57.14 9.11973C56.6072 8.58379 55.4127 8.5276 53.7798 8.96414C51.9107 9.46551 49.4787 10.6109 46.7459 12.2792C46.2603 12.5774 45.6244 12.4219 45.3279 11.9291C45.0314 11.4364 45.1861 10.801 45.6759 10.5028C48.615 8.70913 51.163 7.51622 53.2513 6.95866C55.6919 6.30602 57.4923 6.53941 58.6009 7.65453C59.7095 8.76964 59.9416 10.5763 59.2927 13.0356C58.7384 15.1318 57.5525 17.6949 55.7693 20.6555C52.2029 26.5725 46.5826 33.5053 39.9482 40.1787C33.3138 46.852 26.4173 52.5054 20.5392 56.0928C17.6002 57.8865 15.0521 59.0794 12.9638 59.6369C12.0529 59.879 11.2408 60 10.5189 60Z" fill="#E32682"/>
<path d="M55.6791 59.9999C54.9572 59.9999 54.1451 59.8789 53.2427 59.6412C51.1587 59.0837 48.6107 57.8907 45.6673 56.097C39.7849 52.5097 32.8927 46.8563 26.2584 40.1829C19.624 33.5009 14.0037 26.5682 10.4373 20.6511C8.65406 17.6948 7.46813 15.1318 6.91383 13.0312C6.265 10.5762 6.49703 8.76525 7.60563 7.65013C8.71422 6.53502 10.5103 6.30162 12.9552 6.95427C15.0392 7.51182 17.5873 8.70474 20.5306 10.4984C21.0162 10.7967 21.1709 11.432 20.8787 11.9247C20.5822 12.4131 19.9505 12.5687 19.4607 12.2748C16.7279 10.6065 14.2959 9.46111 12.4267 8.95974C10.7939 8.52321 9.59938 8.57939 9.06656 9.11534C8.53375 9.65129 8.47789 10.8528 8.91188 12.4953C9.41031 14.3754 10.549 16.8217 12.2076 19.5706C15.6838 25.3536 21.1966 32.148 27.7193 38.7091C34.242 45.2701 40.9966 50.8154 46.7416 54.3163C49.4744 55.9847 51.9064 57.13 53.7755 57.6314C55.4084 58.0679 56.6029 58.0118 57.1357 57.4758C57.6685 56.9399 57.7244 55.7383 57.2904 54.0959C56.792 52.2158 55.6533 49.7694 53.9947 47.0205C53.6982 46.5321 53.8529 45.8925 54.3427 45.5942C54.8283 45.296 55.4642 45.4516 55.7607 45.9443C57.5439 48.9007 58.7298 51.4637 59.2841 53.5643C59.933 56.0192 59.7009 57.8302 58.5923 58.9453C57.8919 59.6455 56.9166 59.9999 55.6791 59.9999Z" fill="#E32682"/>
<path d="M27.745 14.3452C27.5216 14.3452 27.3025 14.2717 27.1134 14.1291C26.6622 13.779 26.5806 13.1263 26.9329 12.6725C28.3638 10.8226 30.5165 9.7594 32.8454 9.7594H33.3482C35.6771 9.7594 37.8298 10.8226 39.2607 12.6725C39.6087 13.1263 39.5314 13.7747 39.0802 14.1291C38.629 14.4792 37.9845 14.4014 37.6321 13.9476C36.5966 12.6077 35.0325 11.8383 33.3482 11.8383H32.8454C31.1568 11.8383 29.597 12.6077 28.5614 13.9476C28.3595 14.2069 28.0544 14.3452 27.745 14.3452Z" fill="#E32682"/>
<path d="M33.0988 11.8341C30.8301 11.8341 28.9824 9.97556 28.9824 7.69347C28.9824 5.41138 30.8301 3.55286 33.0988 3.55286C35.3676 3.55286 37.2152 5.41138 37.2152 7.69347C37.2152 9.97556 35.3676 11.8341 33.0988 11.8341ZM33.0988 5.62316C31.9645 5.62316 31.0449 6.55242 31.0449 7.68915C31.0449 8.82587 31.9687 9.75513 33.0988 9.75513C34.2332 9.75513 35.1527 8.82587 35.1527 7.68915C35.1527 6.55242 34.2289 5.62316 33.0988 5.62316Z" fill="#E32682"/>
<path d="M33.099 16.7656C28.5572 16.7656 24.8662 13.0486 24.8662 8.48437V8.28123C24.8662 3.71272 28.5615 0 33.099 0C37.6365 0 41.3318 3.71704 41.3318 8.28123V8.48437C41.3318 13.0529 37.6365 16.7656 33.099 16.7656ZM33.099 2.07463C29.6959 2.07463 26.9287 4.85809 26.9287 8.28123V8.48437C26.9287 11.9075 29.6959 14.691 33.099 14.691C36.5021 14.691 39.2693 11.9075 39.2693 8.48437V8.28123C39.2693 4.86241 36.4978 2.07463 33.099 2.07463Z" fill="#E32682"/>
<path d="M2.88323 40.5806C2.66408 40.5806 2.44065 40.5071 2.25158 40.3602C1.80041 40.0101 1.71877 39.3574 2.07112 38.9036C3.50197 37.0537 5.65471 35.9905 7.98362 35.9905H8.48635C10.8153 35.9905 12.968 37.0537 14.3988 38.9036C14.7469 39.3574 14.6696 40.0057 14.2184 40.3602C13.7672 40.7103 13.1227 40.6325 12.7703 40.1786C11.7348 38.8388 10.1707 38.0694 8.48635 38.0694H7.98362C6.29494 38.0694 4.73518 38.8388 3.69963 40.1786C3.49338 40.4423 3.1883 40.5806 2.88323 40.5806Z" fill="#E32682"/>
<path d="M8.23262 38.0694C5.96387 38.0694 4.11621 36.2109 4.11621 33.9288C4.11621 31.6467 5.96387 29.7882 8.23262 29.7882C10.5014 29.7882 12.349 31.6467 12.349 33.9288C12.349 36.2109 10.5057 38.0694 8.23262 38.0694ZM8.23262 31.8585C7.09824 31.8585 6.17871 32.7878 6.17871 33.9245C6.17871 35.0612 7.10254 35.9905 8.23262 35.9905C9.36269 35.9905 10.2865 35.0612 10.2865 33.9245C10.2865 32.7878 9.36699 31.8585 8.23262 31.8585Z" fill="#E32682"/>
<path d="M8.23281 43.0053C3.69102 43.0053 0 39.2883 0 34.7241V34.521C0 29.9525 3.69531 26.2397 8.23281 26.2397C12.7703 26.2397 16.4656 29.9568 16.4656 34.521V34.7241C16.4656 39.2883 12.7746 43.0053 8.23281 43.0053ZM8.23281 28.3144C4.82969 28.3144 2.0625 31.0978 2.0625 34.521V34.7241C2.0625 38.1473 4.82969 40.9307 8.23281 40.9307C11.6359 40.9307 14.4031 38.1473 14.4031 34.7241V34.521C14.4031 31.0978 11.6359 28.3144 8.23281 28.3144Z" fill="#E32682"/>
<path d="M52.413 41.1641C52.1896 41.1641 51.9704 41.0906 51.7814 40.9437C51.3302 40.5936 51.2486 39.9409 51.6009 39.4871C53.0318 37.6372 55.1845 36.574 57.5134 36.574H58.0161C60.345 36.574 62.4978 37.6372 63.9286 39.4871C64.2767 39.9409 64.1993 40.5892 63.7482 40.9437C63.297 41.2938 62.6525 41.216 62.3001 40.7621C61.2646 39.4223 59.7005 38.6529 58.0161 38.6529H57.5134C55.8247 38.6529 54.265 39.4223 53.2294 40.7621C53.0275 41.0301 52.7224 41.1641 52.413 41.1641Z" fill="#E32682"/>
<path d="M57.7673 38.6529C55.4985 38.6529 53.6509 36.7944 53.6509 34.5123C53.6509 32.2302 55.4985 30.3717 57.7673 30.3717C60.036 30.3717 61.8837 32.2302 61.8837 34.5123C61.8837 36.7944 60.036 38.6529 57.7673 38.6529ZM57.7673 32.4463C56.6329 32.4463 55.7134 33.3756 55.7134 34.5123C55.7134 35.649 56.6372 36.5783 57.7673 36.5783C58.8974 36.5783 59.8212 35.649 59.8212 34.5123C59.8212 33.3756 58.9017 32.4463 57.7673 32.4463Z" fill="#E32682"/>
<path d="M57.767 43.5888C53.2252 43.5888 49.5342 39.8718 49.5342 35.3076V35.1045C49.5342 30.536 53.2295 26.8232 57.767 26.8232C62.3045 26.8232 65.9998 30.5403 65.9998 35.1045V35.3076C65.9998 39.8718 62.3045 43.5888 57.767 43.5888ZM57.767 28.8979C54.3639 28.8979 51.5967 31.6813 51.5967 35.1045V35.3076C51.5967 38.7307 54.3639 41.5142 57.767 41.5142C61.1701 41.5142 63.9373 38.7307 63.9373 35.3076V35.1045C63.9373 31.6813 61.1701 28.8979 57.767 28.8979Z" fill="#E32682"/>
</svg>
