<svg width="52" height="60" viewBox="0 0 52 60" fill="none" xmlns="http://www.w3.org/2000/svg">
<path d="M26.002 36.1422C23.7819 36.1422 21.9633 37.9345 21.9633 40.1198V41.175C21.9633 44.2435 25.3853 46.1716 28.0554 44.5953C29.2534 43.8879 30.038 42.6116 30.038 41.175V40.1198C30.038 37.9345 28.2194 36.1422 26.002 36.1422ZM21.8518 36.0284C24.1506 33.7629 27.8507 33.7629 30.1495 36.0284C31.2136 37.081 31.8749 38.5241 31.8749 40.1185V41.1737C31.8749 42.4901 31.421 43.7108 30.6626 44.6858C33.5558 45.4448 35.6499 48.0465 35.6499 51.0672V57.0414C35.6499 58.672 34.2997 60 32.6478 60C28.2142 60 23.7845 60 19.3509 60C17.699 60 16.3488 58.6733 16.3488 57.0414V51.0672C16.3488 48.0465 18.4429 45.4448 21.3361 44.6858C20.5777 43.7108 20.1237 42.4901 20.1237 41.1737V40.1185C20.1264 38.5241 20.7877 37.081 21.8518 36.0284ZM28.7666 46.2776C27.9413 46.7134 27.0005 46.9629 26.0033 46.9629C25.0035 46.9629 24.0614 46.7134 23.2361 46.2776H23.0497C20.3796 46.2776 18.1884 48.4371 18.1884 51.0685V57.0427C18.1884 57.6737 18.7132 58.1897 19.3522 58.1897H19.9584V50.6793C19.9584 50.1802 20.3717 49.7741 20.8769 49.7741C21.3834 49.7741 21.7954 50.1815 21.7954 50.6793V58.1897H30.2046V50.6793C30.2046 50.1802 30.618 49.7741 31.1231 49.7741C31.6283 49.7741 32.0416 50.1815 32.0416 50.6793V58.1897C32.6071 58.1897 33.0532 58.2634 33.4705 57.8521C33.683 57.6427 33.8129 57.3569 33.8129 57.0427V51.0685C33.8129 48.4371 31.6217 46.2776 28.9516 46.2776H28.7666ZM43.0331 46.3254C43.3821 45.9698 43.9634 45.9621 44.3268 46.3112C44.6876 46.6552 44.6955 47.228 44.3452 47.5862L38.9787 52.9927C38.6257 53.3522 38.0458 53.3586 37.6849 53.0108C37.3202 52.6629 37.3136 52.0914 37.6666 51.7358L43.0331 46.3254ZM7.65482 47.5862C7.3058 47.2267 7.31236 46.6552 7.67319 46.3112C8.03795 45.9634 8.6179 45.9698 8.96692 46.3254L14.3334 51.7358C14.6864 52.0914 14.6798 52.6629 14.3151 53.0108C13.9542 53.3586 13.3743 53.3522 13.0213 52.9927L7.65482 47.5862ZM26.0243 12.1371C29.4318 12.1371 31.1494 16.2129 28.739 18.5922C26.3287 20.9677 22.189 19.2737 22.189 15.9168C22.1903 13.8297 23.9079 12.1371 26.0243 12.1371ZM27.4413 14.5228C26.1844 13.2879 24.0273 14.1672 24.0273 15.9155C24.0273 17.6677 26.1844 18.547 27.4413 17.3082C28.2194 16.5388 28.2194 15.2922 27.4413 14.5228ZM25.5047 8.07155H26.5504C27.3613 8.07155 28.0239 8.72457 28.0239 9.52371V9.6556L29.1103 10.0991C29.4344 9.77974 29.7533 9.5819 30.2479 9.5819C30.6166 9.5819 31.0024 9.72543 31.2858 10.0073H31.2897L32.0258 10.7328C32.6018 11.3004 32.6018 12.2211 32.0258 12.7849L31.9287 12.8806C32.018 13.0487 32.1033 13.2246 32.178 13.4043H32.182C32.2568 13.5841 32.3237 13.7677 32.3827 13.95C32.8879 13.95 33.3012 14.0638 33.6292 14.4517C33.8523 14.7078 33.9901 15.0388 33.9901 15.4009V16.4315C33.9901 17.2267 33.3248 17.8836 32.5166 17.8836V17.8797H32.3827L31.9287 18.9543C32.2673 19.2841 32.4562 19.5957 32.4562 20.0728C32.4562 20.4388 32.3106 20.8203 32.0245 21.0996L31.2884 21.8289C30.7124 22.394 29.7782 22.394 29.2061 21.8289L29.109 21.7332L28.0226 22.1806C28.0226 22.6461 27.9334 23.0017 27.5909 23.3353C27.3233 23.5991 26.9546 23.7647 26.5491 23.7647H25.5034C24.6964 23.7647 24.0299 23.1091 24.0299 22.3099V22.178L23.4762 21.9802C23.2977 21.9065 23.1193 21.8263 22.9448 21.7345C22.6102 22.0681 22.29 22.2556 21.8072 22.2556C21.4319 22.2556 21.0553 22.1121 20.7654 21.8302L19.9584 21.0233C19.4493 20.4181 19.4821 19.5866 20.0293 19.0474L20.1264 18.9556C20.0371 18.7875 19.9519 18.6116 19.8771 18.428H19.8731C19.7983 18.2522 19.7314 18.0685 19.6724 17.8849C19.1961 17.8849 18.8392 17.7931 18.4967 17.4595C18.233 17.1957 18.0651 16.8323 18.0651 16.4328V15.4022C18.0651 15.0065 18.233 14.6366 18.5007 14.3754H18.4967C18.8392 14.0379 19.1961 13.95 19.6724 13.95L20.1224 12.8793C19.7878 12.5457 19.5976 12.2341 19.5976 11.7582H19.6015C19.6015 11.3922 19.7472 11.0108 20.0293 10.7353V10.7315L20.7654 10.006C21.3414 9.43836 22.2861 9.44095 22.8477 10.006L22.9448 10.0978C23.1153 10.0099 23.2938 9.92974 23.4762 9.85215C23.6586 9.77845 23.8449 9.7125 24.0299 9.65431C24.0299 9.18491 24.1191 8.83319 24.4616 8.49569C24.7305 8.23319 25.0992 8.07155 25.5047 8.07155ZM26.1844 9.88319H25.8681C25.8681 10.5763 25.4443 11.1478 24.7752 11.3237C24.5705 11.3793 24.3697 11.4453 24.1795 11.5216C23.6034 11.7634 23.3161 12.0608 22.6876 11.9793C22.3412 11.9353 22.063 11.7892 21.8059 11.5397L21.5828 11.7595L21.613 11.7892V11.7931C22.0853 12.2586 22.1785 12.9737 21.8439 13.5414C21.3086 14.4582 21.4463 15.0039 20.8402 15.4616C20.5646 15.6711 20.2641 15.7616 19.9033 15.7616V16.0733C20.6066 16.0733 21.1905 16.4909 21.3689 17.1504C21.4214 17.3522 21.4883 17.5461 21.5697 17.7336L21.5657 17.7375C21.815 18.3052 22.1168 18.5884 22.0302 19.2078C21.9856 19.5491 21.8373 19.8233 21.5841 20.0728L21.8072 20.2927C22.3018 19.8052 23.0156 19.6953 23.6152 20.0366C23.7937 20.1388 23.984 20.2306 24.1808 20.3121C24.7423 20.5435 25.1662 20.5216 25.5637 21.031C25.7763 21.3026 25.8681 21.5987 25.8681 21.9543H26.1844C26.1844 21.2612 26.6082 20.6858 27.2773 20.5099C28.3152 20.2384 28.6131 19.7586 29.3636 19.8543C29.71 19.8983 29.9881 20.0444 30.2453 20.294L30.4684 20.0741L30.4382 20.0444C29.9658 19.5789 29.8687 18.8638 30.2033 18.2922C30.4185 17.9289 30.5747 17.5552 30.6836 17.1517C30.8581 16.5142 31.438 16.0746 32.1085 16.0746V16.0784H32.1492V15.7629C31.4459 15.7629 30.862 15.3414 30.6836 14.6858C30.6311 14.4802 30.5602 14.2862 30.4828 14.0987H30.4867C30.2374 13.531 29.9357 13.2478 30.0183 12.6284C30.0629 12.2909 30.2191 12.0052 30.4684 11.7595L30.2453 11.5397C29.7467 12.0272 29.0369 12.1371 28.4346 11.7957C27.5083 11.2681 26.9546 11.4039 26.4888 10.8065C26.2775 10.531 26.1844 10.2375 26.1844 9.88319ZM42.36 15.8573C42.8651 15.8573 43.2784 16.2647 43.2784 16.7625C43.2784 17.2642 42.8651 17.6677 42.36 17.6677H40.3853C39.8801 17.6677 39.4668 17.2642 39.4668 16.7625C39.4668 16.2634 39.8801 15.8573 40.3853 15.8573H42.36ZM9.64134 17.6677C9.13487 17.6677 8.72287 17.2642 8.72287 16.7625C8.72287 16.2634 9.13618 15.8573 9.64134 15.8573H11.6161C12.1212 15.8573 12.5345 16.2647 12.5345 16.7625C12.5345 17.2642 12.1212 17.6677 11.6161 17.6677H9.64134ZM11.3786 9.48621C10.939 9.23664 10.7907 8.68707 11.04 8.25517C11.2933 7.82328 11.8509 7.67586 12.2892 7.92155L14.0002 8.89267C14.4358 9.14224 14.588 9.69181 14.3347 10.1237C14.0854 10.5556 13.5239 10.703 13.0856 10.4573L11.3786 9.48621ZM17.0272 3.25216C16.7779 2.82026 16.9261 2.2694 17.3657 2.02112C17.8039 1.77543 18.3629 1.92155 18.6148 2.35474L19.6002 4.03707C19.8534 4.46897 19.7012 5.01983 19.2617 5.2681C18.8234 5.51767 18.2645 5.36767 18.0126 4.93448L17.0272 3.25216ZM25.0835 0.905172C25.0835 0.406034 25.4929 0 26.002 0C26.5084 0 26.9165 0.407328 26.9165 0.905172V2.5875C26.9165 3.08535 26.5071 3.49267 26.002 3.49267C25.4929 3.49267 25.0835 3.08535 25.0835 2.5875V0.905172ZM33.3852 2.35345C33.6384 1.92155 34.1961 1.77414 34.6343 2.01983C35.0725 2.2694 35.2221 2.81897 34.9728 3.25086L33.9874 4.93319C33.7342 5.36509 33.1766 5.51638 32.7383 5.26681C32.3001 5.01724 32.1505 4.46767 32.3998 4.03578L33.3852 2.35345ZM39.7121 7.92155C40.1504 7.67586 40.7093 7.82198 40.9613 8.25517C41.2106 8.68707 41.0623 9.23793 40.6227 9.48621L38.9157 10.4573C38.4775 10.703 37.9159 10.5569 37.6666 10.1237C37.4133 9.69181 37.5655 9.14095 38.0012 8.89267L39.7121 7.92155ZM22.8634 24.75H29.1379C29.4987 24.2845 29.9527 23.8966 30.4776 23.603C35.6814 20.6922 36.6707 13.681 32.4195 9.49138C28.8755 5.99871 23.1285 5.99871 19.5845 9.49138C15.3332 13.681 16.3226 20.6935 21.5264 23.603C22.0486 23.8953 22.5026 24.2845 22.8634 24.75ZM31.0378 25.4017C32.6005 26.7647 31.993 29.2694 30.0183 29.8332C30.0288 31.7754 28.4412 33.3453 26.4927 33.3453H25.5112C23.5588 33.3453 21.9699 31.7767 21.9817 29.8332C20.007 29.272 19.4008 26.7647 20.9622 25.4017C20.8585 25.3177 20.7431 25.2401 20.6197 25.1703C14.3715 21.6776 13.1657 13.2543 18.2842 8.20991C22.5459 4.00862 29.4528 4.00862 33.7158 8.20991C38.833 13.253 37.6285 21.6763 31.3803 25.1703C31.2583 25.2414 31.1428 25.3177 31.0378 25.4017ZM28.1814 29.9328H23.8186C23.8554 30.8198 24.6033 31.5349 25.5112 31.5349H26.4927C27.3967 31.5349 28.1446 30.8198 28.1814 29.9328ZM29.294 26.5565H22.7073C22.0158 26.5565 21.6392 27.3918 22.1496 27.8948C22.2913 28.0345 22.4921 28.1224 22.7073 28.1224H29.294C29.9855 28.1224 30.3621 27.2909 29.8556 26.7879C29.7113 26.6483 29.5092 26.5565 29.294 26.5565ZM43.037 22.275C41.0361 22.275 39.392 23.8914 39.392 25.8672V26.8422C39.392 29.6056 42.4715 31.3578 44.8963 29.9289C45.9788 29.2914 46.6847 28.1328 46.6847 26.8422V25.8672C46.686 23.8927 45.0419 22.275 43.037 22.275ZM43.037 20.4647C46.0575 20.4647 48.519 22.8944 48.519 25.8672V26.8422C48.519 28.0332 48.1254 29.1362 47.4549 30.0349C50.0988 30.7759 52 33.1759 52 35.9547V41.4608C52 43.0009 50.7246 44.2578 49.1619 44.2578C45.0787 44.2578 40.9941 44.2578 36.9108 44.2578C35.3481 44.2578 34.0767 43.0009 34.0767 41.4608V35.9547C34.0767 33.1759 35.9779 30.7759 38.6218 30.0349C37.9526 29.1362 37.5537 28.0332 37.5537 26.8422V25.8672C37.555 22.8944 40.0205 20.4647 43.037 20.4647ZM45.6035 31.6112C44.8372 32.0147 43.9634 32.2448 43.037 32.2448C42.1107 32.2448 41.2368 32.0134 40.4705 31.6112H40.3183C37.8975 31.6112 35.911 33.569 35.911 35.9547V41.4608C35.911 42.0039 36.365 42.4474 36.9108 42.4474H37.3976V35.6004C37.3976 35.0987 37.8109 34.6953 38.3161 34.6953C38.8212 34.6953 39.2345 35.0987 39.2345 35.6004V42.4474H46.8369V35.6004C46.8369 35.0987 47.2502 34.6953 47.7553 34.6953C48.2644 34.6953 48.6738 35.0987 48.6738 35.6004V42.4474C49.1422 42.4474 49.5149 42.5056 49.8678 42.1578C50.0502 41.978 50.1617 41.7323 50.1617 41.4608V35.9547C50.1617 33.569 48.1752 31.6112 45.7544 31.6112H45.6035ZM8.9643 22.275C6.9594 22.275 5.31533 23.8914 5.31533 25.8672V26.8422C5.31533 29.6056 8.39878 31.3578 10.8196 29.9289C11.9021 29.2914 12.608 28.1328 12.608 26.8422V25.8672C12.6093 23.8927 10.9692 22.275 8.9643 22.275ZM8.9643 20.4647C11.9808 20.4647 14.4463 22.8944 14.4463 25.8672V26.8422C14.4463 28.0332 14.0487 29.1362 13.3782 30.0349C16.0221 30.7759 17.9233 33.1759 17.9233 35.9547V41.4608C17.9233 43.0009 16.6519 44.2578 15.0892 44.2578C11.0059 44.2578 6.92135 44.2578 2.83808 44.2578C1.27537 44.2578 0 43.0009 0 41.4608V35.9547C0 33.1759 1.89993 30.7759 4.54513 30.0349C3.87596 29.1362 3.48101 28.0332 3.48101 26.8422V25.8672C3.48232 22.8944 5.94383 20.4647 8.9643 20.4647ZM11.5308 31.6112C10.7645 32.0147 9.89064 32.2448 8.9643 32.2448C8.03795 32.2448 7.16409 32.0134 6.39782 31.6112H6.24562C3.82478 31.6112 1.83826 33.569 1.83826 35.9547V41.4608C1.83826 42.0039 2.28831 42.4474 2.83939 42.4474H3.32618V35.6004C3.32618 35.0987 3.73556 34.6953 4.24466 34.6953C4.74982 34.6953 5.16313 35.0987 5.16313 35.6004V42.4474H12.7655V35.6004C12.7655 35.0987 13.1788 34.6953 13.6839 34.6953C14.1891 34.6953 14.6024 35.0987 14.6024 35.6004V42.4474C15.0708 42.4474 15.4435 42.5056 15.7925 42.1578C15.9749 41.978 16.0903 41.7323 16.0903 41.4608V35.9547C16.0903 33.569 14.1038 31.6112 11.683 31.6112H11.5308Z" fill="#E32682"/>
</svg>
