<svg width="36" height="28" viewBox="0 0 36 28" fill="none" xmlns="http://www.w3.org/2000/svg">
<path d="M31.6562 3.65617C28.8825 1.29849 25.2005 0 21.2884 0C18.7822 0 16.3078 0.548418 14.1328 1.58608C13.869 1.71188 13.7555 2.03145 13.8791 2.29987C14.0027 2.56828 14.3168 2.68384 14.5804 2.55797C16.6163 1.58672 18.9359 1.07337 21.2884 1.07337C28.8188 1.07337 34.9454 6.24134 34.9454 12.5937C34.9454 13.0607 34.9118 13.5311 34.8457 13.9919C34.8036 14.2852 35.0031 14.5576 35.2913 14.6005C35.3172 14.6044 35.3428 14.6062 35.3682 14.6062C35.6256 14.6062 35.851 14.414 35.8893 14.147C35.9628 13.6351 36.0001 13.1125 36.0001 12.5937C36.0001 9.21127 34.4574 6.03718 31.6562 3.65617Z" fill="white"/>
<path d="M35.028 15.6464C34.7547 15.5436 34.4515 15.6861 34.3506 15.9641C33.6173 17.9864 32.2335 19.7999 30.347 21.2124C30.1145 21.346 30.0156 21.6381 30.1224 21.8912L31.8617 26.0124C31.9725 26.3451 31.8456 26.6772 31.4851 26.6727C28.7714 26.2431 26.7809 25.2767 25.6775 24.6189C26.4684 24.4072 27.2407 24.1375 27.9909 23.8086C28.2584 23.6913 28.3818 23.3755 28.2665 23.1033C28.1513 22.831 27.8409 22.7054 27.5735 22.8228C25.6196 23.6795 23.5049 24.114 21.2881 24.114C13.7576 24.114 7.63112 18.946 7.63112 12.5937C7.63112 9.06058 9.5164 5.77085 12.8036 3.56802C13.0469 3.40508 13.1143 3.0722 12.9541 2.82461C12.7939 2.57709 12.4668 2.50847 12.2236 2.67155C10.1374 4.0695 8.56964 5.8774 7.62148 7.91208C5.51128 8.47788 3.61383 9.60864 2.25674 11.1176C0.780394 12.7593 0 14.7271 0 16.8084C0 19.3899 1.24242 21.8447 3.42378 23.6033L2.3203 26.2179C1.92711 27.056 2.65428 28.1551 3.57228 27.9817C6.37471 27.5381 8.18236 26.3753 8.76209 25.9544C9.45171 26.0701 10.1565 26.1287 10.8608 26.1287C11.152 26.1287 11.3881 25.8885 11.3881 25.5921C11.3881 25.2956 11.152 25.0554 10.8608 25.0554C10.1421 25.0554 9.42316 24.989 8.72377 24.8581C8.5721 24.8295 8.41517 24.871 8.29543 24.9697C8.27771 24.9843 6.49213 26.4333 3.41014 26.9212C3.31128 26.9346 3.23133 26.761 3.28934 26.6417L4.55651 23.6393C4.66008 23.394 4.56959 23.1126 4.35162 22.9739C2.25596 21.4072 1.05468 19.1617 1.05468 16.8084C1.05468 14.9999 1.73938 13.2827 3.03474 11.8423C4.08999 10.6689 5.51507 9.74803 7.11847 9.18752C6.76269 10.2809 6.57636 11.4243 6.57636 12.5937C6.57636 15.9761 8.11901 19.1501 10.9202 21.5312C12.2259 22.641 13.7329 23.516 15.3704 24.1314C14.5845 24.4755 13.7494 24.7269 12.8746 24.8808C12.1959 24.9897 12.3861 26.0691 13.0543 25.9385C14.4051 25.7008 15.6721 25.2505 16.8243 24.5995C18.2494 24.986 19.7508 25.1873 21.2881 25.1873C22.2858 25.1873 23.2643 25.1035 24.2194 24.9389C24.9174 25.4579 27.3911 27.1109 31.323 27.7334C31.8195 27.8129 32.3141 27.6101 32.6336 27.1894C32.98 26.7348 33.0556 26.1214 32.8308 25.5887L31.2564 21.8584C33.165 20.3536 34.5727 18.452 35.3401 16.3357C35.4409 16.0576 35.3012 15.749 35.028 15.6464Z" fill="white"/>
<path d="M26.0502 16.44L26.5523 14.6063H29.1455L29.6476 16.44C29.8604 17.1202 30.8281 16.8397 30.6636 16.1519L28.8892 9.67121C28.7576 9.19027 28.3395 8.86719 27.849 8.86719C27.3585 8.86719 26.9403 9.19027 26.8086 9.67128L25.0342 16.1519C24.8701 16.8431 25.84 17.1176 26.0502 16.44ZM27.8246 9.95945C27.8275 9.94885 27.8302 9.9447 27.8301 9.94463C27.8376 9.93934 27.8604 9.93934 27.8671 9.94406C27.8672 9.94413 27.8701 9.94807 27.8732 9.95937L28.8516 13.5328H26.8462L27.8246 9.95945Z" fill="white"/>
<path d="M17.2669 11.2755C17.2669 9.94592 16.2041 8.86426 14.8976 8.86426C13.5912 8.86426 12.5283 9.946 12.5283 11.2755V14.4246C12.5283 15.7542 13.5912 16.8359 14.8976 16.8359C15.4579 16.8359 15.973 16.6365 16.379 16.3045L16.7483 16.6792C16.9545 16.8885 17.2885 16.888 17.4941 16.6781C17.6997 16.4682 17.6993 16.1284 17.4931 15.9191L17.0381 15.4574C17.1847 15.1442 17.267 14.794 17.267 14.4246V11.2755H17.2669ZM15.7969 14.1979C15.5906 13.9885 15.2568 13.9891 15.0511 14.199C14.8455 14.4089 14.8459 14.7487 15.0522 14.958L15.6242 15.5385C15.4159 15.6798 15.1662 15.7624 14.8976 15.7624C14.1727 15.7624 13.583 15.1623 13.583 14.4246V11.2755C13.583 10.5378 14.1727 9.93762 14.8976 9.93762C15.6224 9.93762 16.2122 10.5378 16.2122 11.2755V14.4246C16.2122 14.4861 16.2066 14.5462 16.1987 14.6056L15.7969 14.1979Z" fill="white"/>
<path d="M18.9839 15.5446C19.1204 16.2329 19.6803 16.7516 20.3773 16.8353C20.4476 16.8436 20.5178 16.8479 20.5879 16.8479C21.3157 16.8479 22.0193 16.396 22.5792 15.5851L23.1829 16.5783C23.3361 16.8305 23.6611 16.9085 23.9088 16.7524C24.1565 16.5965 24.233 16.2657 24.0798 16.0136L23.1609 14.5017C23.425 13.9373 23.7439 13.294 23.7476 13.2866C23.8789 13.022 23.7745 12.6992 23.5145 12.5656C23.2546 12.4322 22.9374 12.5381 22.8061 12.8028C22.7964 12.8224 22.6661 13.0851 22.5039 13.4206L21.8791 12.3927C21.975 12.2808 22.0862 12.1456 22.1979 11.9981C22.6543 11.3957 22.8669 10.932 22.8669 10.5392C22.8669 9.61544 22.1285 8.86401 21.2209 8.86401C20.3133 8.86401 19.5749 9.61544 19.5749 10.5392C19.5749 10.932 19.7875 11.3957 20.244 11.9981C20.3287 12.11 20.4131 12.2145 20.4908 12.3075C19.8664 12.9705 18.7477 14.3532 18.9839 15.5446ZM21.2209 9.93752C21.5469 9.93752 21.8121 10.2074 21.8122 10.5392C21.8098 10.6995 21.5565 11.1109 21.2209 11.5261C20.8853 11.1108 20.632 10.6996 20.6296 10.5393C20.6296 10.2074 20.8949 9.93752 21.2209 9.93752ZM21.1243 13.1915L21.9593 14.5653C21.4612 15.5162 20.8891 15.8156 20.5007 15.7692C20.2541 15.7396 20.0646 15.568 20.0178 15.3323C19.9036 14.7563 20.558 13.8268 21.1243 13.1915Z" fill="white"/>
</svg>
